<?xml version="1.0" encoding="UTF-8" standalone="no"?><svg xmlns="http://www.w3.org/2000/svg" xmlns:xlink="http://www.w3.org/1999/xlink" data-name="Layer 2" fill="#ffffff" height="29" preserveAspectRatio="xMidYMid meet" version="1" viewBox="3.4 1.5 25.1 29.0" width="25.1" zoomAndPan="magnify"><g id="change1_1"><path d="M26.071,1.5H5.929A2.5,2.5,0,0,0,3.429,4V28a2.5,2.5,0,0,0,2.5,2.5H26.071a2.5,2.5,0,0,0,2.5-2.5V4A2.5,2.5,0,0,0,26.071,1.5Zm1.5,6.893H25.518v-.5h2.053ZM19.116,5.5v-3h1.813v3ZM16.3,5.5v-3h1.812v3Zm-2.813,0v-3H15.3v3Zm-2.812,0v-3h1.812v3Zm11.25-3h2.115V5a.5.5,0,0,1-.5.5H21.929Zm-12.25,0v3H8.456a.5.5,0,0,1-.5-.5V2.5Zm-3.75,0H6.956V5a1.5,1.5,0,0,0,1.5,1.5H23.544a1.5,1.5,0,0,0,1.5-1.5V2.5h1.027a1.5,1.5,0,0,1,1.5,1.5V6.893H25.018a.5.5,0,0,0-.5.5v1.5a.5.5,0,0,0,.5.5h2.553V20.929H10.153L4.429,15.2V9.393H6.991a.5.5,0,0,0,.5-.5v-1.5a.5.5,0,0,0-.5-.5H4.429V4A1.5,1.5,0,0,1,5.929,2.5ZM4.438,8.393v-.5H6.491v.5ZM26.071,29.5H5.929a1.5,1.5,0,0,1-1.5-1.5V16.618l5.164,5.164a.5.5,0,0,0,.353.147H27.571V28A1.5,1.5,0,0,1,26.071,29.5Z"/></g><g id="change1_2"><path d="M5.732,5.094a.768.768,0,1,0-.768-.768A.769.769,0,0,0,5.732,5.094Zm0-1a.232.232,0,0,1,.232.232c0,.256-.464.256-.464,0A.232.232,0,0,1,5.732,4.094Z"/></g><g id="change1_3"><path d="M26.268,5.094a.768.768,0,1,0-.768-.768A.769.769,0,0,0,26.268,5.094Zm0-1a.232.232,0,0,1,.232.232c0,.256-.464.256-.464,0A.232.232,0,0,1,26.268,4.094Z"/></g><g id="change1_4"><path d="M6.435,25.5a1.471,1.471,0,1,0,1.471,1.471A1.473,1.473,0,0,0,6.435,25.5Zm0,1.942a.471.471,0,1,1,.471-.471A.471.471,0,0,1,6.435,27.442Z"/></g><g id="change1_5"><path d="M25.565,25.5a1.471,1.471,0,1,0,1.471,1.471A1.473,1.473,0,0,0,25.565,25.5Zm0,1.942a.471.471,0,1,1,.471-.471A.471.471,0,0,1,25.565,27.442Z"/></g><g id="change1_6"><path d="M9.759,11.589H22.241a.5.5,0,0,0,.5-.5v-2.2a.5.5,0,0,0-.5-.5H9.759a.5.5,0,0,0-.5.5v2.2A.5.5,0,0,0,9.759,11.589Zm.5-2.2H21.741v1.2H10.259Z"/></g><g id="change1_7"><path d="M9.759,15.911H22.241a.5.5,0,0,0,.5-.5v-2.2a.5.5,0,0,0-.5-.5H9.759a.5.5,0,0,0-.5.5v2.2A.5.5,0,0,0,9.759,15.911Zm.5-2.2H21.741v1.2H10.259Z"/></g></svg>