<?xml version="1.0" encoding="UTF-8" standalone="no"?><svg xmlns="http://www.w3.org/2000/svg" xmlns:xlink="http://www.w3.org/1999/xlink" fill="#ffffff" height="459.8" preserveAspectRatio="xMidYMid meet" version="1" viewBox="58.3 28.5 411.7 459.8" width="411.7" zoomAndPan="magnify"><g id="change1_1"><path d="M344.3,227.3c0-3.9,3.1-7,7-7c3.9,0,7,3.1,7,7v17.8c0,18.1-14.7,32.8-32.8,32.8H222.3c-14.7,0-22.6,18-11.9,28.7 c3.1,3,7.3,4.9,11.9,4.9h105.4c17,0,30.8,13.9,30.8,30.8s-13.9,30.8-30.8,30.8h-76.9c-8.6,0-11.2,4.5-11.2,11.3 c0,6.9,1.8,15.7,3.8,25.2c5.7,27.3,12.3,59-14.4,76.6c-3.2,2.1-7.5,1.2-9.7-2c-2.1-3.2-1.2-7.5,2-9.6c26.6-17.5,4.2-63.5,4.2-90.2 c0-15.3,5.8-25.3,25.2-25.3h76.9c14.8,0,22.6-18,11.9-28.7c-3.1-3.1-7.3-5-11.9-5H222.3c-17,0-30.8-13.9-30.8-30.8 s13.9-30.8,30.8-30.8h103.3c10.3,0,18.8-8.5,18.8-18.8V227.3z M110.4,385.7l-5.2,4.9l68.9,73.7l7.8-7.3l-68.9-73.7L110.4,385.7z M185.6,472.5l6.6,3.3l-2.9-6.8L185.6,472.5z M62.1,336.3L62.1,336.3c-3.6,3.3-3.8,8.7-0.6,12.1l31.8,34l12.3-11.5l-31.9-34.1 C70.5,333.3,64.8,333.5,62.1,336.3L62.1,336.3z M383.3,80.7h-63.8V107c0,14.5,11.9,26.3,26.3,26.3h11.2c14.5,0,26.3-11.8,26.3-26.3 V80.7z M337.2,162.2h28.2v-7.5c0-4.1-3.4-7.5-7.5-7.5h-13.3c-4.1,0-7.5,3.4-7.5,7.5V162.2z M305.4,88.1c-3.2,3.3-6.3,0.9-10.1,5.2 c-5,5.7-1.7,14.8,5.9,15.8c1.8,0.2,3.4,1.1,4.5,2.4c-0.2-1.5-0.3-3.1-0.3-4.6V88.1z M401.4,90.1c-1.7-0.2-3.1-1-4.2-2.1V107 c0,1.6-0.1,3.1-0.3,4.6c3.1-3.8,6.4-1.1,10.3-5.6C412.4,100.3,409,91.1,401.4,90.1L401.4,90.1z M378.1,176.2h-53.5v18.5 c0,1,0.8,1.8,1.8,1.8h49.9c1,0,1.8-0.9,1.8-1.8V176.2z M112.2,210.8c-2.7,2.7-7.2,2.7-9.9,0c-2.7-2.7-2.7-7.2,0-9.9l12.6-12.6 c1.4-1.4,3.1-2,4.9-2h11.7c-18.4-7.9-23.2-32.1-8.9-46.3c17.9-17.9,48.7-5.1,48.7,20.2c0,11.6-6.9,21.8-17.2,26.2h11.3l13.9-13.9 c2.7-2.7,7.1-2.7,9.9,0c2.7,2.7,2.7,7.1,0,9.9l-15.9,15.9c-1.2,1.3-3,2.1-5,2.1h-18.5v0.9l25.2,25.2c1.4,1.4,2,3.2,2,5v18.9 c0,3.9-3.1,7-7,7c-3.9,0-7-3.1-7-7v-16l-18.8-18.8L128.3,243c-0.9,1.6-2.4,2.7-4.1,3.2l-21.5,6.9c-3.7,1.2-7.6-0.9-8.8-4.5 c-1.2-3.7,0.8-7.6,4.5-8.8l19.2-6.2l18.1-31.4v-2h-13L112.2,210.8z M447.6,92.1c-3.1,2.3-7.5,1.7-9.8-1.4c-2.3-3.1-1.7-7.5,1.4-9.8 l17.3-13.1c3.1-2.3,7.5-1.7,9.8,1.4c2.3,3.1,1.7,7.5-1.4,9.8L447.6,92.1z M439.1,139.9c-3.1-2.3-3.7-6.7-1.4-9.8 c2.3-3.1,6.7-3.7,9.8-1.4l17.3,13.1c3.1,2.3,3.7,6.7,1.4,9.8c-2.3,3.1-6.7,3.7-9.8,1.4L439.1,139.9z M443.3,117.4c-3.9,0-7-3.1-7-7 c0-3.9,3.1-7,7-7H463c3.9,0,7,3.1,7,7c0,3.9-3.1,7-7,7H443.3z M263.5,80.9c3.1,2.3,3.7,6.7,1.4,9.8c-2.3,3.1-6.7,3.7-9.8,1.4 L237.9,79c-3.1-2.3-3.7-6.7-1.4-9.8c2.3-3.1,6.7-3.7,9.8-1.4L263.5,80.9z M255.1,128.8c3.1-2.3,7.5-1.7,9.8,1.4 c2.3,3.1,1.7,7.5-1.4,9.8L246.3,153c-3.1,2.3-7.5,1.7-9.8-1.4c-2.3-3.1-1.7-7.5,1.4-9.8L255.1,128.8z M259.3,103.4c3.9,0,7,3.1,7,7 c0,3.9-3.1,7-7,7h-19.7c-3.9,0-7-3.1-7-7c0-3.9,3.1-7,7-7H259.3z M380.8,59.4c-2.3,3.1-6.7,3.7-9.8,1.4c-3.1-2.3-3.7-6.7-1.4-9.8 l13-17.3c2.3-3.1,6.7-3.7,9.8-1.4c3.1,2.4,3.7,6.7,1.4,9.8L380.8,59.4z M333,51c2.3,3.1,1.7,7.5-1.4,9.8c-3.1,2.3-7.5,1.7-9.8-1.4 l-13-17.3c-2.3-3.1-1.7-7.5,1.4-9.8c3.1-2.3,7.5-1.7,9.8,1.4L333,51z M358.3,55.2c0,3.9-3.1,7-7,7c-3.9,0-7-3.1-7-7V35.5 c0-3.9,3.1-7,7-7c3.9,0,7,3.1,7,7V55.2z"/></g></svg>