<?xml version="1.0" encoding="UTF-8" standalone="no"?><svg xmlns="http://www.w3.org/2000/svg" xmlns:xlink="http://www.w3.org/1999/xlink" fill="#000000" height="150" preserveAspectRatio="xMidYMid meet" version="1" viewBox="25.0 25.0 150.0 150.0" width="150" zoomAndPan="magnify"><g id="change1_1"><path d="M 110.371094 147.191406 C 90.933594 151.445312 71.628906 143.28125 60.726562 128.03125 L 52.34375 130.179688 L 60.570312 100.789062 L 81.910156 122.605469 L 74.035156 124.625 C 82.394531 133.421875 95.011719 137.785156 107.707031 135.007812 C 120.6875 132.167969 130.476562 122.578125 134.21875 110.730469 L 147.710938 107.777344 C 144.589844 126.742188 130.257812 142.839844 110.371094 147.191406 Z M 111.996094 112.242188 C 105.316406 118.921875 94.480469 118.921875 87.800781 112.242188 C 81.121094 105.5625 81.121094 94.730469 87.800781 88.046875 C 94.480469 81.367188 105.316406 81.367188 111.996094 88.046875 C 118.675781 94.730469 118.675781 105.5625 111.996094 112.242188 Z M 89.714844 52.808594 C 109.222656 48.539062 128.59375 56.773438 139.476562 72.121094 L 147.109375 69.769531 L 140.300781 99.519531 L 117.941406 78.75 L 126.6875 76.058594 C 118.34375 66.800781 105.402344 62.140625 92.382812 64.992188 C 79.195312 67.878906 69.296875 77.726562 65.691406 89.835938 L 52.289062 92.765625 C 55.222656 73.566406 69.640625 57.203125 89.714844 52.808594 Z M 100 25 C 58.640625 25 25 58.640625 25 100 C 25 141.359375 58.640625 175 100 175 C 141.359375 175 175 141.359375 175 100 C 175 58.640625 141.359375 25 100 25" fill="#ffffff"/></g></svg>