<?xml version="1.0" encoding="UTF-8" standalone="no"?><svg xmlns="http://www.w3.org/2000/svg" xmlns:xlink="http://www.w3.org/1999/xlink" fill="#000000" height="513.4" preserveAspectRatio="xMidYMid meet" version="1" viewBox="48.8 -0.7 414.3 513.4" width="414.3" zoomAndPan="magnify"><g clip-rule="evenodd" fill="#ffffff" fill-rule="evenodd" id="change1_1"><path d="M162.4,465.7l-54.9-95.1l-42.1,24.3c19.5,33.7,38.8,67.4,58.4,101.1l42.1-24.3L162.4,465.7L162.4,465.7z M123.4,371.6l57.3,99.2c1.8,3.2,0.7,7.3-2.4,9.1l-53.6,31c-3.2,1.8-7.2,0.8-9.1-2.4l-65-112.6c-1.8-3.2-0.7-7.3,2.4-9.1l53.6-31 c3.2-1.8,7.2-0.7,9.1,2.4L123.4,371.6z"/><path d="M126,376l44.6,77.3c12.5-6.7,29.4-19.9,44.3-18.8h122.7c9.4,0,17.2-3.6,23.2-10.7l84.9-99.6 c2.5-2.9,3.6-6.6,3.3-10.2c-0.7-11.8-16.6-19.1-25.2-9.9c-21.5,21.5-45.3,47.7-67.7,67.6c-5.9,5.2-14.5-3.2-9.5-9.2 c8.8-11.4-0.3-29.3-14.8-28.9c0,0-132.3,0-132.3,0c-10.4,0-20,1.8-28.9,5.5C154.5,344.5,138.2,364.3,126,376L126,376z M162.4,465.7 l-50.3-87.1c-1.8-2.6-1.5-6.1,0.8-8.4l24.1-24c17.1-17.1,38.3-25.9,62.5-25.9h132.3c8.7,0,16.6,3.5,22.3,9.3v0 c4.4,4.4,7.6,10.2,8.7,16.6l51.5-51.5c16.1-17.2,46.9-4.3,47.9,18.4c0.5,6.9-1.6,14-6.5,19.8l-84.9,99.7c-4.3,5-9.3,8.9-14.9,11.5 c-5.6,2.6-11.8,3.9-18.4,3.9H214.9c-5.7,0-10.4,1.3-15.2,4.1l-28.1,16.2C168.3,470,164.3,468.9,162.4,465.7z"/><path d="M331.8,333.6c-8.7,0-8.7-13.3,0-13.3c27.6-0.6,42.1,35,22.3,53.8v0c-5.7,5.7-13.6,9.3-22.3,9.3h-63 c-8.7,0-8.7-13.3,0-13.3c0,0,63,0,63,0c5,0,9.6-2.1,12.9-5.4C356.1,354.1,347.6,333.1,331.8,333.6z"/><path d="M231.8,59.7c0-8.6,13.3-8.8,13.3,0c0,0,0,227.4,0,227.4c0,1.1,0.9,2,2,2h21.4c1.1,0,2-0.9,2-2V59.7 c0-8.6,13.3-8.8,13.3,0c0,0,0,227.4,0,227.4c0,4.2-1.7,8.1-4.5,10.8c-6.1,7.2-22.4,3.8-32.2,4.5c-8.5,0-15.3-6.9-15.3-15.3V59.7z"/><path d="M257.8,0.3c48.4,1.6,48.4,71.7,0,73.2C209.4,72,209.4,1.8,257.8,0.3z M274.3,20.4 c-22.3-21.1-54.1,10.7-32.9,33v0C263.6,74.5,295.5,42.7,274.3,20.4L274.3,20.4z"/><path d="M206.3,145.9H140c-3.7,0-6.7-3-6.7-6.7v-19.8l-56.8,55.4l56.8,55.4v-19.8c0-3.7,3-6.7,6.7-6.7h66.3V145.9 L206.3,145.9z M146.7,132.6H213c3.7,0,6.7,3,6.7,6.7v71.2c0,3.7-3,6.7-6.7,6.7h-66.3v28.9c0.2,5.6-7.3,8.9-11.3,4.8l-73.1-71.4 c-2.6-2.6-2.5-6.8,0.1-9.4L135,99.3c3.7-4.5,11.9-1.6,11.7,4.4V132.6z"/><path d="M302.7,80.6h80.1V61c-0.2-5.8,7.6-8.9,11.4-4.6l65.8,57.5c3.1,2.6,3,7.5-0.1,10.1l-66.1,57.8 c-4.1,3.8-11.2,0.5-11-5l0-19.6h-80.1c-3.7,0-6.7-3-6.7-6.7V87.2C296,83.6,299,80.6,302.7,80.6z M389.4,93.9h-80.1v49.9h80.1 c9.4,0.3,6.1,12.3,6.7,18.3l49.5-43.2l-49.5-43.2C395.6,81.6,398.8,93.6,389.4,93.9z"/><path d="M301.4,210.2h47.3v-9.6c-0.2-5.8,7.6-8.9,11.4-4.6l40.7,35.6c3.1,2.6,3,7.5-0.1,10.1l-41.1,35.9 c-4.1,3.8-11.2,0.5-11-5l0-9.6h-47.3c-3.7,0-6.7-3-6.7-6.7v-39.3C294.7,213.2,297.7,210.2,301.4,210.2z M355.3,223.6h-47.3v25.9 h47.3c4.5,0,7.2,4.1,6.7,8.3l24.4-21.3L362,215.2C362.6,219.4,359.8,223.6,355.3,223.6z"/></g></svg>