<?xml version="1.0" encoding="UTF-8" standalone="no"?><svg xmlns="http://www.w3.org/2000/svg" xmlns:xlink="http://www.w3.org/1999/xlink" fill="#ffffff" height="63.9" preserveAspectRatio="xMidYMid meet" version="1" viewBox="-1.2 -1.2 63.9 63.9" width="63.9" zoomAndPan="magnify"><g data-name="Layer 13" id="change1_1"><path d="M61.29,56.71l1.42-1.42-16-16a1,1,0,0,0-1.42,0l-.29.3-4-4A22,22,0,1,0,35.6,41l4,4-.3.29a1,1,0,0,0,0,1.42l16,16,1.42-1.42L41.41,46,46,41.41ZM3,23A20,20,0,1,1,23,43,20,20,0,0,1,3,23ZM37.2,39.79a22.62,22.62,0,0,0,2.59-2.59l3.8,3.8L41,43.59Z" fill="inherit"/><path d="M23,7A16,16,0,1,0,39,23,16,16,0,0,0,23,7Zm0,30A14,14,0,1,1,37,23,14,14,0,0,1,23,37Z" fill="inherit"/><path d="M28,28H26V20a1,1,0,0,0-1-1H18a1,1,0,0,0-1,1v3a1,1,0,0,0,1,1h2v4H18a1,1,0,0,0-1,1v3a1,1,0,0,0,1,1H28a1,1,0,0,0,1-1V29A1,1,0,0,0,28,28Zm-1,3H19V30h2a1,1,0,0,0,1-1V23a1,1,0,0,0-1-1H19V21h5v8a1,1,0,0,0,1,1h2Z" fill="inherit"/><path d="M23,18a3,3,0,1,0-3-3A3,3,0,0,0,23,18Zm0-4a1,1,0,1,1-1,1A1,1,0,0,1,23,14Z" fill="inherit"/></g></svg>