<?xml version="1.0" encoding="UTF-8" standalone="no"?><svg xmlns="http://www.w3.org/2000/svg" xmlns:xlink="http://www.w3.org/1999/xlink" data-name="Layer 42" fill="#ffffff" height="35" preserveAspectRatio="xMidYMid meet" version="1" viewBox="1.8 7.0 46.4 35.0" width="46.4" zoomAndPan="magnify"><g id="change1_1"><path d="M47.45,16.76a30.7,30.7,0,0,0-44.9,0,2,2,0,0,0,2.9,2.76,26.7,26.7,0,0,1,39.1,0A2,2,0,0,0,47.45,16.76Z" fill="inherit"/></g><g id="change1_2"><path d="M25,14.62a24.32,24.32,0,0,0-17.73,7.7,2,2,0,0,0,2.9,2.76,20.24,20.24,0,0,1,29.66,0,2,2,0,0,0,2.9-2.76A24.32,24.32,0,0,0,25,14.62Z" fill="inherit"/></g><g id="change1_3"><path d="M25,22.21a17.73,17.73,0,0,0-12.92,5.61A2,2,0,1,0,15,30.59a13.68,13.68,0,0,1,20,0,2,2,0,1,0,2.9-2.76A17.73,17.73,0,0,0,25,22.21Z" fill="inherit"/></g><g id="change1_4"><path d="M25,29.08a10.15,10.15,0,0,0-7.4,3.21,2,2,0,1,0,2.9,2.76,6.14,6.14,0,0,1,9,0,2,2,0,1,0,2.9-2.76A10.15,10.15,0,0,0,25,29.08Z" fill="inherit"/></g><g id="change1_5"><circle cx="25" cy="39" fill="inherit" r="3"/></g></svg>