<?xml version="1.0" encoding="UTF-8" standalone="no"?><svg xmlns="http://www.w3.org/2000/svg" xmlns:xlink="http://www.w3.org/1999/xlink" fill="#ffffff" height="126" preserveAspectRatio="xMidYMid meet" version="1" viewBox="-0.6 0.0 91.7 126.0" width="91.7" zoomAndPan="magnify"><g id="change1_1"><path d="M82.362,70.975c-2.535-3.086-12.996-7.415-21.326-10.503c-2.162-0.8-3.883-1.409-4.777-1.723v-5.504 c1.892-1.652,3.46-3.665,4.595-5.886h4.565c1.366,0,2.655-0.461,3.733-1.335c1.371-1.12,2.157-2.776,2.157-4.544v-6.86 c0-1.761-0.784-3.419-2.158-4.555c-0.001,0-0.001-0.001-0.002-0.002c0,0,0,0,0,0c-0.854-0.693-1.853-1.11-2.92-1.255V19.59 c0-10.802-9.42-19.59-21-19.59s-21,8.788-21,19.59v9.218c-1.063,0.144-2.059,0.561-2.915,1.252 c-0.003,0.002-0.006,0.003-0.008,0.006c-0.001,0.001-0.002,0.002-0.004,0.002c-1.369,1.13-2.153,2.79-2.153,4.551v6.86 c0,1.768,0.786,3.425,2.16,4.546c0.034,0.028,0.072,0.046,0.107,0.073c0.007,0.004,0.013,0.01,0.021,0.014 c1.05,0.81,2.289,1.247,3.603,1.247h0.36v0.11c0,1.842,1.498,3.34,3.34,3.34h3.121c0.703,0.878,1.486,1.694,2.34,2.436v5.503 c-0.894,0.313-2.615,0.923-4.778,1.723c-8.33,3.087-18.791,7.416-21.327,10.504c-7.302,8.939-8.71,37.618-7.885,43.071 c0.7,4.678,2.895,7.66,6.711,9.116c0.486,0.187,1.965,0.753,15.612,2.241c3.276,0.351,5.76,0.591,5.76,0.591 c0.032,0.003,0.064,0.005,0.096,0.005c0,0,0,0,0.001,0h7.32h11.97h7.35h7.01c0,0,0,0,0,0c0.032,0,0.064-0.001,0.096-0.005 c0,0,2.896-0.28,6.562-0.681c5.864-0.635,13.199-1.524,14.839-2.149c3.817-1.457,6.013-4.438,6.712-9.115 C91.073,108.595,89.665,79.916,82.362,70.975z M60.096,62.258l4.725,5.564l-6.858,4.46c-0.247,0.161-0.41,0.422-0.447,0.714 c-0.037,0.292,0.058,0.586,0.257,0.802l5.593,6.056c-4.779,6.417-10.967,10.891-18.808,13.669c0.08-0.17,0.144-0.323,0.232-0.502 c0.009-0.018,0.02-0.038,0.029-0.056c0.003-0.007,0.008-0.013,0.011-0.021c0.384-0.756,0.804-1.539,1.274-2.383 c0.323-0.589,0.664-1.199,1.017-1.831c0.919-1.647,1.962-3.514,2.979-5.518c0.004-0.007,0.003-0.015,0.006-0.023 c1.622-3.198,2.87-6.172,3.814-9.093c1.425-4.421,2.18-8.766,2.311-13.236C57.148,61.185,58.492,61.666,60.096,62.258z M40.339,69.939c-0.01,0.009-0.014,0.022-0.024,0.031l-0.022,0.019c0,0-0.001,0.001-0.001,0.001l-2.295,2.023 c-1.012-3.506-1.589-6.976-1.747-10.518l7.395,5.537L40.339,69.939z M41.739,75.264l-0.884,4.387 c-0.871-1.906-1.597-3.744-2.203-5.553l1.942-1.71L41.739,75.264z M50.175,69.998c-0.01-0.011-0.022-0.019-0.033-0.029 c-0.01-0.009-0.013-0.022-0.023-0.03l-3.305-2.906l7.395-5.537c-0.159,3.542-0.735,7.012-1.747,10.516L50.175,69.998z M51.804,74.095c-0.608,1.801-1.335,3.632-2.205,5.533l-0.881-4.365l1.145-2.876L51.804,74.095z M45.229,65.721l-9.03-6.761v-4.15 c2.792,1.895,5.876,2.901,9.03,2.901c3.156,0,6.241-1.006,9.03-2.9v4.149L45.229,65.721z M45.229,68.302l3.043,2.676l-1.271,3.192 h-3.544l-1.271-3.192L45.229,68.302z M66.773,30.983c-1.095,1.137-2.495,3.321-2.495,7.067c0,3.747,1.4,5.927,2.495,7.061 c-0.431,0.162-0.886,0.249-1.355,0.249h-3.676c0.578-1.608,0.886-3.223,0.886-4.74v-9.88h2.79 C65.89,30.74,66.345,30.825,66.773,30.983z M26.229,19.59c0-9.699,8.523-17.59,19-17.59s19,7.891,19,17.59v9.15h-1.6v-8.23 c0-7.834-5.38-15.74-17.4-15.74s-17.4,7.905-17.4,15.74v8.23h-1.6V19.59z M25.039,45.36c-0.47,0-0.925-0.087-1.355-0.249 c1.096-1.134,2.496-3.315,2.496-7.061c0-3.746-1.399-5.93-2.495-7.067c0.428-0.158,0.883-0.243,1.354-0.243h2.79v9.88 c0,1.516,0.308,3.13,0.886,4.74H25.039z M28.738,48.81c-0.739,0-1.34-0.601-1.34-1.34v-0.11h2.206 c0.253,0.493,0.512,0.982,0.805,1.45H28.738z M32.84,48.81c-0.665-0.904-1.259-1.861-1.734-2.871 c-0.835-1.804-1.277-3.643-1.277-5.319V30.306c5.463-3.183,9.539-6.976,12.145-11.324c-0.089,1.56-0.338,2.977-0.749,4.276 c-0.119,0.377-0.005,0.789,0.291,1.05c0.296,0.262,0.718,0.324,1.078,0.161c3.665-1.672,6.249-4.219,7.713-7.593 c1.884,4.834,5.351,9.303,10.321,13.33V40.62c0,1.676-0.442,3.516-1.276,5.315c-1.078,2.303-2.763,4.474-4.75,6.121 c-1.973,1.667-5.201,3.654-9.375,3.654s-7.402-1.987-9.384-3.662c-0.471-0.388-0.912-0.805-1.336-1.238h6.156 c0.533,1.65,2.338,2.84,4.564,2.84c2.658,0,4.74-1.687,4.74-3.84s-2.082-3.84-4.74-3.84c-2.227,0-4.031,1.19-4.564,2.84H32.84z M42.488,49.81c0-0.997,1.255-1.84,2.74-1.84s2.74,0.843,2.74,1.84s-1.255,1.84-2.74,1.84S42.488,50.807,42.488,49.81z M30.435,62.231c1.572-0.579,2.889-1.051,3.791-1.371c0.131,4.47,0.886,8.815,2.31,13.235c0.001,0.003,0.002,0.006,0.003,0.009 c0.008,0.025,0.015,0.049,0.025,0.073c0.936,2.907,2.172,5.863,3.782,9.035c1.058,2.086,2.141,4.018,3.097,5.723 c0.222,0.395,0.431,0.772,0.642,1.15c-0.214,0.389-0.42,0.771-0.616,1.142c-5.408-2.735-9.959-6.295-13.525-10.619l4.409-6.709 c0.152-0.231,0.201-0.516,0.136-0.785c-0.065-0.269-0.239-0.5-0.48-0.635l-7.379-4.166L30.435,62.231z M22.229,97.339V86.29 c0-2.086-0.55-4.155-1.593-5.988l-3.54-6.16c-0.275-0.479-0.887-0.644-1.365-0.369c-0.479,0.275-0.644,0.887-0.369,1.365 l3.538,6.156c0.87,1.528,1.329,3.256,1.329,4.996v10.817c-1.709-0.157-3.307-0.204-4.747-0.105 c-7.966,0.528-10.896,5.189-11.017,5.388c-0.287,0.469-0.139,1.079,0.329,1.369c0.163,0.101,0.344,0.148,0.523,0.148 c0.334,0,0.662-0.167,0.852-0.471c0.102-0.163,2.571-3.982,9.447-4.438c1.911-0.129,4.121,0,6.563,0.356 c-1.011,2.194-2.907,6.979-3.11,12.386c-0.199,5.056,1.108,9.287,1.969,11.487c-10.208-1.14-12.792-1.697-13.404-1.932 c-3.125-1.192-4.856-3.589-5.447-7.545c-0.712-4.702,0.521-33.019,7.454-41.505c1.584-1.929,7.983-5.117,17.707-8.851l-2.968,4.746 c-0.145,0.231-0.189,0.512-0.122,0.777s0.24,0.49,0.478,0.624l7.358,4.154l-4.223,6.426c-0.237,0.361-0.216,0.833,0.053,1.171 c3.817,4.81,8.754,8.745,14.662,11.73c-0.299,0.657-0.562,1.278-0.752,1.835c-0.238,0.672-0.393,1.291-0.486,1.876 c-0.492-0.02-0.93,0.032-1.324,0.163c-0.004,0.001-0.008-0.001-0.012,0l-5.105,1.179c-1.088,0.246-2.094,0.755-2.959,1.456 c-0.628-0.196-1.649-0.503-2.886-0.818c-1.783-0.468-3.539-0.848-5.211-1.128C23.296,97.487,22.764,97.415,22.229,97.339z M29.048,124c-0.65-1.6-2.372-6.393-2.38-12.272c-0.015-6.508,1.77-9.807,2.527-10.912c0.464,0.124,0.882,0.243,1.251,0.351 c-0.788,1.188-1.227,2.597-1.227,4.044v14.31c0,1.738,0.693,3.315,1.812,4.48H29.048z M37.359,112.43h10.32 c1.323,0,2.4,1.072,2.4,2.39c0,0.635-0.25,1.238-0.692,1.688c-0.46,0.453-1.067,0.703-1.708,0.703h-10.32c-0.552,0-1,0.448-1,1 s0.448,1,1,1h10.32c1.323,0,2.4,1.077,2.4,2.4c0,0.635-0.25,1.238-0.692,1.688C48.927,123.75,48.32,124,47.679,124h-11.97 c-2.476,0-4.49-2.01-4.49-4.48v-14.31c0-1.448,0.597-2.846,1.643-3.839c0.696-0.669,1.556-1.135,2.492-1.346l2.784-0.643 c-0.119,0.936,0.09,1.966,0.627,2.933c0.282,0.509,0.641,0.947,1.028,1.326h-2.434c-0.552,0-1,0.448-1,1s0.448,1,1,1h10.32 c1.323,0,2.4,1.072,2.4,2.39c0,0.641-0.25,1.248-0.692,1.697c-0.46,0.454-1.067,0.703-1.708,0.703h-10.32c-0.552,0-1,0.448-1,1 S36.806,112.43,37.359,112.43z M59.238,119.79c0,2.321-1.889,4.21-4.21,4.21h-3.66c0.46-0.709,0.711-1.532,0.711-2.39 c0-0.886-0.268-1.709-0.721-2.4h2.19c0.552,0,1-0.448,1-1s-0.448-1-1-1h-2.18c0.46-0.71,0.71-1.532,0.71-2.39 c0-0.882-0.267-1.701-0.718-2.39h2.188c0.552,0,1-0.448,1-1s-0.448-1-1-1h-2.181c0.461-0.711,0.711-1.537,0.711-2.4 c0-0.882-0.267-1.701-0.718-2.39h2.188c0.552,0,1-0.448,1-1s-0.448-1-1-1h-5.87h-4.175c-0.165-0.058-2.151-0.78-2.991-2.295 c-0.404-0.73-0.523-1.502-0.317-2.066c0.062-0.17,0.182-0.391,0.403-0.476c0.316-0.123,0.788-0.115,1.438,0.024 c0.727,0.158,1.564,0.468,2.374,0.768c1.325,0.491,2.577,0.955,3.708,0.955c0.964,0,1.806-0.147,2.619-0.289 c1.214-0.212,2.36-0.412,3.979-0.163c0.455,0.07,0.939,0.269,1.471,0.603c0.354,0.227,0.675,0.487,0.984,0.796 c0.008,0.008,0.018,0.01,0.026,0.018c1.297,1.276,2.04,3.121,2.04,5.065V119.79z M61.426,124H59.58 c1.026-1.108,1.658-2.585,1.658-4.21v-13.21c0-1.927-0.587-3.781-1.635-5.289c0.317-0.096,0.675-0.202,1.073-0.314 c0.781,1.299,2.612,5.042,2.612,11.613C63.289,119.244,61.972,122.808,61.426,124z M88.269,113.752 c-0.591,3.955-2.322,6.352-5.447,7.544c-1.019,0.389-5.763,1.076-12.81,1.861c0.618-2.134,1.576-6.334,1.376-11.415 c-0.203-5.409-2.1-10.194-3.111-12.388c2.415-0.352,4.627-0.482,6.565-0.356c6.875,0.456,9.344,4.275,9.443,4.433 c0.188,0.309,0.517,0.479,0.854,0.479c0.177,0,0.357-0.047,0.52-0.146c0.472-0.288,0.621-0.903,0.333-1.374 c-0.121-0.198-3.051-4.859-11.019-5.388c-1.454-0.092-3.051-0.046-4.745,0.108V86.29c0-1.74,0.459-3.467,1.327-4.992l3.54-6.16 c0.275-0.479,0.11-1.09-0.369-1.365c-0.478-0.275-1.09-0.109-1.365,0.369l-3.542,6.163c-1.041,1.83-1.591,3.899-1.591,5.985v11.05 c-0.533,0.075-1.064,0.147-1.616,0.244c-1.797,0.301-3.682,0.717-5.765,1.271c-1.186,0.32-2.128,0.611-2.731,0.806 c-0.271-0.232-0.551-0.451-0.857-0.648c-0.778-0.487-1.51-0.779-2.239-0.891c-1.942-0.299-3.369-0.05-4.627,0.169 c-0.763,0.133-1.484,0.259-2.275,0.259c-0.773,0-1.913-0.422-3.014-0.83c-0.591-0.219-1.193-0.425-1.791-0.606 c0.052-0.351,0.138-0.728,0.261-1.131c9.186-2.906,16.555-8.156,21.897-15.621c0.276-0.386,0.243-0.912-0.078-1.26l-5.347-5.79 l6.817-4.434c0.241-0.157,0.402-0.41,0.444-0.694c0.042-0.284-0.041-0.573-0.227-0.792l-3.115-3.669 c9.243,3.591,15.313,6.648,16.849,8.519C87.748,80.731,88.982,109.048,88.269,113.752z" fill="inherit"/></g></svg>