<?xml version="1.0" encoding="UTF-8" standalone="no"?><svg xmlns="http://www.w3.org/2000/svg" xmlns:xlink="http://www.w3.org/1999/xlink" fill="#ffffff" height="3308.4" preserveAspectRatio="xMidYMid meet" version="1" viewBox="467.4 343.6 3076.4 3308.4" width="3076.4" zoomAndPan="magnify"><g id="change1_1"><path d="M2516.61,1170.44h-212.55c-35.34,0-63.99,28.65-63.99,63.99v38.85v243.72c0,17.23,13.24,32.05,30.45,32.86 c18.37,0.87,33.54-13.78,33.54-31.96v-236.62c0-4.42,3.58-8,8-8s8,3.58,8,8v586.32c0,22.42,18.35,41.46,40.76,41.04 c21.74-0.41,39.23-18.16,39.23-39.99v-327.97c0-6.31,5.12-11.43,11.43-11.43c6.31,0,11.43,5.12,11.43,11.43v326.92 c0,22.42,18.35,41.46,40.76,41.04c21.74-0.41,39.23-18.16,39.23-39.99v-588.51c0-3.79,3.07-6.86,6.86-6.86 c3.79,0,6.86,3.07,6.86,6.86v236.86c0,17.23,13.24,32.05,30.45,32.86c18.37,0.87,33.54-13.78,33.54-31.96v-244.62v-38.85 C2580.6,1199.09,2551.95,1170.44,2516.61,1170.44z"/><circle cx="2410.33" cy="1082.77" r="70.85" transform="rotate(-22.5 2410.225 1082.734)"/><path d="M3329.58,2478.9c-44.63,0-86.84,15.94-122.09,46.09l-431.48,349.02c-3.84-110-91.02-198.83-196.08-198.83H2085.7 c-25.56,0-49.78-14.95-64.8-39.99c-4.17-6.95-9.61-12.88-16.18-17.63c-126.63-91.53-273.71-139.91-425.35-139.91 c-99.84,0-197.4,20.86-289.96,62l-84.47,37.55H1012.6v-70.68c0-32.84-26.72-59.56-59.56-59.56H527 c-32.84,0-59.56,26.72-59.56,59.56v948.9c0,32.84,26.72,59.56,59.56,59.56h426.05c32.84,0,59.56-26.72,59.56-59.56v-73.16h195.75 l607.1,192.76c144.04,53.24,258.81,76.99,372.07,76.99c103.48,0,199.37-16.3,293.16-49.84c25.76-9.21,50.68-21.46,74.05-36.39 l27.18-17.36c29.36-18.76,57.98-39.39,85.07-61.32l802.29-649.5c3.26-2.66,6.24-5.68,8.85-8.94 c65.69-82.12,62.29-207.42-7.74-285.24C3432.96,2501.81,3382.95,2478.9,3329.58,2478.9z M586.56,3395.85v-48.54 c8.92,18.18,21.24,34.68,36.47,48.54H586.56z M732.21,3319.09c-23.74,0-43.05-19.31-43.05-43.05c0-23.74,19.31-43.05,43.05-43.05 c23.74,0,43.05,19.31,43.05,43.05C775.26,3299.78,755.95,3319.09,732.21,3319.09z M893.49,3395.85h-52.1 c29.38-26.75,47.94-63.26,52.1-102.83V3395.85z M893.49,3259.02c-8.53-81.45-77.61-145.14-161.28-145.14 c-63.86,0-119.23,37.11-145.65,90.9v-638.72h306.93V3259.02z M3388.43,2749.8l-801.27,653.71 c-59.05,48.17-125.95,82.29-198.85,101.4c-71.42,18.72-137.1,27.82-200.8,27.82c-99.09,0-201.48-21.56-332.04-69.93 c-0.88-0.32-1.76-0.62-2.64-0.91l-617.23-195.98c-5.84-1.85-11.9-2.79-18.02-2.79H1012.6v-566.82h204.98 c8.39,0,16.53-1.73,24.19-5.13l96.02-42.68c77.01-34.23,158.21-51.59,241.34-51.59c122.96,0,242.87,38.32,346.87,110.85 c37.26,54.22,96.84,86.55,159.69,86.55h494.23c41.72,0,76.3,38.42,77.08,85.65c0.43,26.35-9.01,51.31-25.91,68.49 c-7.85,7.98-17.18,13.98-27.02,17.37c-13.95,2.22-28.21,3.34-42.4,3.34h-549.67c-32.76,0-59.86,26.26-60.39,58.55 c-0.27,16.1,5.8,31.29,17.09,42.77c11.29,11.48,26.37,17.8,42.46,17.8h573.15c15.91,0,31.73-2.1,47.04-6.24 c65.8-11.94,126.63-40.21,180.81-84.04l470.94-380.94c0.49-0.4,0.97-0.8,1.49-1.24c13.16-11.38,28.67-17.39,44.86-17.39 c19.47,0,38.07,8.76,52.38,24.66C3412.1,2656.71,3414.92,2712.16,3388.43,2749.8z"/><path d="M3496.57,1284.38l-157.64-46.44l-49.24-151.54l100.24-130.23c13.57-17.63,13.91-42.09,0.83-60.09l-145.05-199.64 c-13.08-18-36.44-25.24-57.41-17.78l-154.83,55.09l-128.91-93.66l4.55-164.28c0.61-22.24-13.49-42.23-34.65-49.1l-234.69-76.26 c-21.16-6.87-44.32,1.01-56.89,19.36L2490,505.4h-159.34l-92.88-135.58c-12.57-18.35-35.73-26.23-56.89-19.36l-234.69,76.26 c-21.16,6.87-35.26,26.86-34.65,49.1l4.55,164.28l-128.91,93.66l-154.83-55.09c-20.96-7.46-44.33-0.22-57.4,17.78l-145.05,199.64 c-13.08,18-12.74,42.46,0.83,60.09l100.24,130.23l-49.24,151.54l-157.64,46.44c-21.34,6.29-35.99,25.88-35.99,48.13v246.77 c0,22.25,14.65,41.84,35.99,48.13l157.64,46.44l49.24,151.54l-100.24,130.23c-13.57,17.63-13.91,42.09-0.83,60.09l145.05,199.64 c13.08,18,36.45,25.24,57.4,17.78l154.83-55.09l128.91,93.66l-4.55,164.28c-0.62,22.24,13.49,42.23,34.65,49.1l234.69,76.25 c21.16,6.87,44.32-1.01,56.89-19.36l92.88-135.57H2490l92.88,135.57c9.54,13.92,25.17,21.82,41.4,21.82c5.16,0,10.39-0.8,15.5-2.46 l234.69-76.25c21.16-6.88,35.26-26.86,34.65-49.1l-4.55-164.28l128.91-93.66l154.83,55.09c20.96,7.46,44.33,0.22,57.41-17.78 l145.05-199.64c13.08-18,12.74-42.46-0.83-60.09l-100.24-130.23l49.24-151.54l157.64-46.44c21.34-6.29,35.99-25.88,35.99-48.13 v-246.77C3532.56,1310.26,3517.91,1290.67,3496.57,1284.38z M3432.22,1541.75l-147.01,43.31c-15.88,4.68-28.42,16.88-33.54,32.62 l-65.58,201.84c-5.11,15.74-2.14,32.99,7.96,46.1l93.48,121.45L3186.59,2126l-144.39-51.37c-15.59-5.54-32.92-3.05-46.31,6.68 l-171.69,124.74c-13.39,9.73-21.12,25.43-20.66,41.98l4.24,153.2l-163.32,53.07l-86.62-126.43c-9.35-13.65-24.84-21.82-41.39-21.82 h-212.22c-16.55,0-32.03,8.16-41.39,21.82l-86.62,126.43l-163.32-53.07l4.24-153.2c0.46-16.54-7.27-32.25-20.66-41.98 l-171.69-124.74c-13.39-9.73-30.72-12.23-46.31-6.68L1634.08,2126l-100.94-138.93l93.48-121.45c10.09-13.11,13.07-30.36,7.96-46.1 L1569,1617.68c-5.11-15.74-17.66-27.94-33.54-32.62l-147.01-43.31v-171.72l147.01-43.31c15.88-4.68,28.42-16.88,33.54-32.62 l65.58-201.84c5.11-15.74,2.14-32.99-7.96-46.1l-93.48-121.45l100.94-138.93l144.39,51.37c15.59,5.55,32.92,3.05,46.31-6.68 l171.69-124.74c13.39-9.73,21.12-25.43,20.66-41.98l-4.24-153.2l163.32-53.07l86.62,126.44c9.35,13.65,24.84,21.82,41.39,21.82 h212.22c16.55,0,32.03-8.16,41.39-21.82l86.62-126.44l163.32,53.07l-4.24,153.2c-0.46,16.54,7.27,32.25,20.66,41.98l171.69,124.74 c13.39,9.73,30.71,12.23,46.31,6.68l144.39-51.37l100.94,138.93l-93.48,121.45c-10.09,13.11-13.07,30.36-7.96,46.1l65.58,201.84 c5.11,15.74,17.66,27.94,33.54,32.62l147.01,43.31V1541.75z"/><path d="M2858.14,1008.08c-58.14-58.14-125.87-103.8-201.28-135.7c-78.11-33.04-161.05-49.79-246.52-49.79 c-85.47,0-168.41,16.75-246.52,49.79c-75.42,31.9-143.14,77.55-201.28,135.7c-58.14,58.14-103.8,125.87-135.7,201.28 c-33.04,78.11-49.79,161.05-49.79,246.52s16.75,168.41,49.79,246.52c31.9,75.42,77.56,143.14,135.7,201.28 c58.14,58.14,125.87,103.8,201.28,135.7c78.11,33.04,161.05,49.79,246.52,49.79c85.47,0,168.41-16.75,246.52-49.79 c75.42-31.9,143.14-77.55,201.28-135.7c58.14-58.14,103.8-125.87,135.7-201.28c33.04-78.11,49.79-161.05,49.79-246.52 s-16.75-168.41-49.79-246.52C2961.94,1133.95,2916.28,1066.23,2858.14,1008.08z M2787.19,1832.74 c-100.66,100.66-234.5,156.1-376.85,156.1s-276.19-55.44-376.86-156.1c-100.66-100.66-156.1-234.5-156.1-376.86 s55.44-276.19,156.1-376.86c100.66-100.66,234.5-156.1,376.86-156.1s276.19,55.44,376.85,156.1 c100.66,100.66,156.1,234.5,156.1,376.86S2887.85,1732.08,2787.19,1832.74z"/></g></svg>