<?xml version="1.0" encoding="UTF-8" standalone="no"?><svg xmlns="http://www.w3.org/2000/svg" xmlns:xlink="http://www.w3.org/1999/xlink" fill="#ffffff" height="386.6" preserveAspectRatio="xMidYMid meet" version="1" viewBox="0.0 -0.4 400.1 386.6" width="400.1" zoomAndPan="magnify"><g id="change1_1"><path d="M399.93,137.82c0-2.28-1.19-4.28-2.99-5.41L203.59,1.1c-2.26-1.53-5.15-1.42-7.26,0.06L2.87,132.52 c-1.82,1.24-2.81,3.25-2.81,5.3L0,173.6c0,3.53,2.87,6.4,6.4,6.4c1.34,0,2.58-0.41,3.62-1.11l10.49-7.2l0.06,170.59h-7.51 c-3.55,0-6.43,2.88-6.43,6.43v31.04c0,3.55,2.88,6.43,6.43,6.43h373.89c3.55,0,6.43-2.88,6.43-6.43v-31.04 c0-3.55-2.88-6.43-6.43-6.43h-7.42V171.72l10.45,7.18l0,0c2.92,2,6.92,1.24,8.91-1.68c0.83-1.21,1.18-2.61,1.11-3.97L399.93,137.82z M85.58,219.63c-4.46-4.46-7.23-10.63-7.23-17.45c0-6.81,2.76-12.99,7.23-17.45c4.46-4.46,10.64-7.23,17.45-7.23 c6.81,0,12.99,2.76,17.45,7.23c4.46,4.46,7.23,10.63,7.23,17.45c0,6.81-2.76,12.98-7.23,17.45c-4.46,4.46-10.64,7.23-17.45,7.23 C96.22,226.85,90.05,224.09,85.58,219.63z M168.6,269.28L168.6,269.28c3.46,3.47,5.61,8.27,5.61,13.56c0,5.29-2.15,10.09-5.61,13.56 l-0.28,0.3c-3.44,3.29-8.12,5.32-13.28,5.32c-5.29,0-10.09-2.15-13.56-5.61c-0.87-0.87-1.65-1.82-2.34-2.84 c-2.07-3.06-3.27-6.75-3.27-10.72c0-5.29,2.15-10.09,5.61-13.56s8.26-5.61,13.56-5.61c0,0,0,0,0,0 C160.34,263.67,165.13,265.81,168.6,269.28z M190.85,312.36c1.24-2.05,2.87-3.85,4.78-5.28c3.03-2.27,6.82-3.62,10.94-3.62h46.24 c1.25,0,2.46,0.13,3.64,0.37c0.33,0.07,0.63,0.2,0.96,0.29c0.83,0.22,1.66,0.43,2.45,0.76c0.33,0.14,0.62,0.34,0.94,0.49 c0.74,0.36,1.49,0.72,2.17,1.18c0.24,0.16,0.45,0.37,0.68,0.54c0.74,0.55,1.47,1.1,2.12,1.76c0.54,0.54,0.99,1.17,1.46,1.77 c2.42,3.11,3.92,6.96,3.92,11.17v17.81h-70.28v-6.4c0-0.01,0-0.01,0-0.02c0-1.59-0.19-3.14-0.46-4.67 c-0.08-0.45-0.19-0.89-0.29-1.34c-0.27-1.13-0.6-2.24-1.01-3.31c-0.15-0.39-0.27-0.78-0.43-1.16c-0.56-1.3-1.19-2.56-1.94-3.75 c-0.04-0.06-0.09-0.11-0.13-0.17c-0.26-0.4-0.58-0.75-0.86-1.14c-0.65-0.9-1.31-1.78-2.06-2.59c-0.11-0.12-0.19-0.26-0.3-0.37 l-0.38-0.41c-0.35-0.35-0.78-0.62-1.15-0.95C191.5,313.01,191.21,312.65,190.85,312.36z M256.23,287.14 c0.21-0.21,0.37-0.48,0.58-0.7c0.79-0.82,1.46-1.74,2.17-2.63c0.76-0.95,1.54-1.87,2.2-2.9c0.12-0.18,0.28-0.33,0.39-0.52 c0.96-1.54,1.79-3.17,2.52-4.86c0.19-0.44,0.32-0.9,0.49-1.35c0.63-1.62,1.15-3.29,1.56-5.01c0.14-0.62,0.29-1.23,0.4-1.86 c0.4-2.19,0.68-4.41,0.68-6.71c0-0.01,0-0.01,0-0.02c0-0.01,0-0.01,0-0.02c0-2.29-0.28-4.51-0.68-6.7 c-0.13-0.69-0.29-1.36-0.46-2.04c-0.17-0.68-0.26-1.39-0.46-2.06c-0.38-1.24-0.81-2.46-1.31-3.65l0.57-0.18 c1.93-0.59,4.02-0.92,6.23-0.92h51.68h0c5.86,0,11.17,2.38,15,6.22l0.03,0.03c3.84,3.84,6.22,9.15,6.22,15.01v73.31H284v-17.81v0 c0-8.58-3.51-16.38-9.16-22.03l-0.4-0.37c-0.73-0.71-1.59-1.28-2.39-1.91c-0.68-0.54-1.3-1.14-2.03-1.63 c-0.98-0.65-2.06-1.15-3.11-1.69c-0.72-0.37-1.38-0.82-2.13-1.13c-1.23-0.52-2.55-0.85-3.85-1.2c-0.65-0.18-1.26-0.45-1.93-0.59 c-2-0.41-4.07-0.63-6.19-0.63h-0.59c0.67-0.5,1.22-1.14,1.85-1.68C254.78,288.31,255.57,287.8,256.23,287.14z M279.51,219.63 c-4.46-4.46-7.23-10.63-7.23-17.45c0-6.81,2.76-12.98,7.23-17.45c4.46-4.46,10.64-7.23,17.45-7.23c6.81,0,12.99,2.76,17.45,7.23 c4.46,4.46,7.23,10.63,7.23,17.45s-2.76,12.98-7.23,17.45c-4.46,4.46-10.64,7.23-17.45,7.23 C290.14,226.85,283.97,224.09,279.51,219.63z M252.27,250.71c0.13,0.29,0.23,0.6,0.35,0.9c0.43,1.09,0.78,2.22,1.05,3.38 c0.08,0.36,0.17,0.72,0.24,1.09c0.27,1.46,0.45,2.96,0.45,4.5c0,0.01,0,0.01,0,0.01c0,0.01,0,0.01,0,0.02 c0,1.53-0.18,3.01-0.45,4.45c-0.07,0.37-0.15,0.73-0.23,1.09c-0.29,1.26-0.66,2.48-1.13,3.66c-0.07,0.17-0.11,0.34-0.19,0.51 c-0.55,1.27-1.22,2.47-1.97,3.62c-1.05,1.62-2.29,3.12-3.68,4.45c-0.36,0.35-0.78,0.64-1.17,0.96c-1.14,0.97-2.37,1.83-3.68,2.58 c-3.61,2.06-7.73,3.34-12.18,3.34c-6.81,0-12.99-2.76-17.45-7.23l-0.31-0.29c-4.28-4.42-6.91-10.47-6.91-17.16 c0-6.83,2.75-13,7.2-17.45h0.03c4.46-4.46,10.64-7.23,17.45-7.23c6.81,0,12.99,2.76,17.45,7.23v0 C249.3,245.31,251.03,247.88,252.27,250.71z M180.76,321.05c0.68,0.38,1.32,0.8,1.92,1.28c0.32,0.25,0.64,0.5,0.94,0.78 c0.83,0.79,1.59,1.65,2.21,2.61c0.06,0.1,0.1,0.22,0.17,0.32c0.52,0.86,0.93,1.8,1.25,2.77c0.1,0.29,0.19,0.59,0.27,0.89 c0.29,1.12,0.5,2.28,0.5,3.5v6.4h-65.97v-6.4c0-3.83,1.57-7.32,4.1-9.85l0.27-0.29c2.49-2.36,5.87-3.81,9.58-3.81h20.55h17.51v0 C176.5,319.25,178.76,319.94,180.76,321.05z M143.97,252.9c-1.51,0.56-2.93,1.25-4.32,2.02c-0.63,0.35-1.29,0.64-1.9,1.03 c-1.93,1.24-3.75,2.63-5.36,4.25c-5.79,5.79-9.38,13.8-9.38,22.64s3.59,16.85,9.38,22.64c0,0,0,0,0,0l1.08,1.03 c-0.52,0.05-1.01,0.2-1.53,0.28c-0.67,0.1-1.33,0.21-1.99,0.36c-0.97,0.23-1.9,0.53-2.83,0.86c-0.59,0.21-1.18,0.4-1.75,0.65 c-0.99,0.43-1.91,0.96-2.84,1.5c-0.45,0.26-0.92,0.48-1.35,0.77c-1.31,0.88-2.55,1.84-3.68,2.93c-0.01,0.01-0.02,0.01-0.03,0.02 l-0.41,0.38c-4.85,4.85-7.87,11.56-7.87,18.94v0v6.4H55.94v-73.31c0-5.85,2.39-11.16,6.23-15.02c3.85-3.84,9.17-6.23,15.02-6.23 h51.68c4.58,0,8.82,1.46,12.28,3.92c1.41,1,2.69,2.17,3.82,3.48C144.62,252.55,144.32,252.77,143.97,252.9z M380.51,373.32H19.48 v-18.18h7.48v0h346.13c0.01,0,0.01,0,0.02,0h7.4V373.32z M366.66,342.28h-9.76v-76c0-9.35-3.83-17.86-10.01-24.07l-0.03-0.03 c-6.19-6.18-14.71-10.01-24.07-10.01h-3.5c1.46-1.09,2.91-2.18,4.19-3.46c6.79-6.79,10.99-16.17,10.99-26.53 c0-10.36-4.2-19.75-10.99-26.54c-6.79-6.79-16.18-10.99-26.54-10.99c-10.36,0-19.75,4.2-26.54,10.99 c-6.79,6.79-10.99,16.17-10.99,26.54c0,10.36,4.2,19.74,10.99,26.53c1.28,1.28,2.74,2.37,4.19,3.46h-3.5l0,0 c-3.43,0-6.79,0.53-9.99,1.52c-1.36,0.42-2.65,0.97-3.93,1.54c-0.34-0.37-0.61-0.81-0.96-1.17c-6.79-6.79-16.18-10.99-26.54-10.99v0 c-10.36,0-19.75,4.2-26.52,11.01c-6.8,6.81-11.01,16.18-11.01,26.52c0,10.14,4.05,19.37,10.63,26.14l0.36,0.4 c1.28,1.28,2.74,2.37,4.19,3.46h-0.78l0,0c-6.94,0-13.4,2.33-18.62,6.24c-3.58,2.67-6.49,6.15-8.65,10.09 c-0.97-0.19-1.98-0.22-2.98-0.3c0.31-0.27,0.67-0.48,0.96-0.77l0.4-0.37c5.79-5.79,9.38-13.8,9.38-22.64s-3.59-16.85-9.38-22.64 h-0.03c-4.82-4.82-11.21-7.97-18.29-8.94c-2.52-5.08-6.19-9.48-10.77-12.74c-5.59-3.98-12.4-6.33-19.72-6.33h-3.5 c1.46-1.09,2.91-2.18,4.19-3.46c6.79-6.79,10.99-16.17,10.99-26.53c0-10.36-4.2-19.75-10.99-26.54 c-6.79-6.79-16.18-10.99-26.54-10.99c-10.36,0-19.75,4.2-26.54,10.99c-6.79,6.79-10.99,16.17-10.99,26.54 c0,10.36,4.2,19.74,10.99,26.53c1.28,1.28,2.74,2.37,4.19,3.46h-3.5h0c-9.37,0-17.89,3.84-24.07,10.01l-0.03,0.03 c-6.18,6.18-10.01,14.7-10.01,24.07v76h-9.72L33.3,162.91L199.99,48.47l166.67,114.42V342.28z M203.73,35.48L203.73,35.48 c-2.13-1.52-5.07-1.64-7.35-0.08L12.82,161.41l0.03-20.2L199.99,14.13l187.14,127.08l0.03,20.2L203.73,35.48z M199.99,104.85 c-4.99-4.8-11.48-7.2-17.95-7.2v0.03c-6.63,0-13.26,2.51-18.29,7.54l-0.13,0.14c-4.97,5.03-7.46,11.61-7.46,18.19 c0,6.63,2.53,13.28,7.57,18.32l31.35,31.35l0.5,0.46c2.54,2.47,6.59,2.41,9.06-0.12c9.52-10.75,21.35-21.42,31.62-31.69l0.38-0.42 c4.79-5,7.18-11.46,7.18-17.9c0-6.56-2.47-13.14-7.41-18.16l-0.59-0.55c-4.98-4.76-11.44-7.15-17.89-7.15v-0.03 C211.47,97.65,204.99,100.05,199.99,104.85z M226.9,114.01l0.27,0.29c2.53,2.53,3.8,5.88,3.8,9.23c0,3.25-1.17,6.48-3.51,8.96 l-27.47,27.45l-27.18-27.18c-2.53-2.53-3.8-5.88-3.8-9.23c0-3.24,1.17-6.46,3.51-8.96l0.57-0.58c2.51-2.35,5.73-3.52,8.95-3.52v0.03 c3.35,0,6.7,1.27,9.23,3.8l4.17,4.17c2.51,2.51,6.58,2.51,9.09,0l4.17-4.17c2.53-2.53,5.88-3.8,9.23-3.8v-0.03 C221.16,110.48,224.39,111.66,226.9,114.01z"/></g></svg>