<?xml version="1.0" encoding="UTF-8" standalone="no"?><svg xmlns="http://www.w3.org/2000/svg" xmlns:xlink="http://www.w3.org/1999/xlink" fill="#ffffff" height="480" preserveAspectRatio="xMidYMid meet" version="1" viewBox="36.0 12.0 440.0 480.0" width="440" zoomAndPan="magnify"><g id="change1_1"><path d="M472,268H268v-48h116c1.2,0,2.3-0.5,3.1-1.5s1.1-2.1,0.8-3.3l-40-200c-0.4-1.9-2-3.2-3.9-3.2H168c-1.9,0-3.5,1.3-3.9,3.2 l-40,200c-0.2,1.2,0.1,2.4,0.8,3.3s1.9,1.5,3.1,1.5h116v48H40c-2.2,0-4,1.8-4,4v216c0,2.2,1.8,4,4,4h432c2.2,0,4-1.8,4-4V272 C476,269.8,474.2,268,472,268z M292.3,276l-2.9,2.2c-7.8,5.8-12.2,14.4-12.2,23.6c0,0.7,0,1.3,0.1,2c0.5,7.2-2.8,14-9,18.6l-0.3,0.2 V276H292.3z M312,332c6.6,0,12,5.4,12,12v4H188v-4c0-6.6,5.4-12,12-12H312z M171.3,20h169.4l35.2,176H136.1L171.3,20z M134.5,204 h243l1.6,8H132.9L134.5,204z M260,220v104h-8V220H260z M44,276h200v48h-44c-11,0-20,9-20,20v8c0,2.2,1.8,4,4,4h144c2.2,0,4-1.8,4-4 v-8c0-11-9-20-20-20h-33.8c5-5.8,7.6-13.1,7.1-20.8c0-0.5,0-0.9,0-1.4c0-6.7,3.2-12.8,9.1-17.2l11.1-8.6H468v192H44V276z M468,484 H44v-8h424V484z"/></g><g id="change1_2"><path d="M331.6,364.5c-3.1-1-6.3-0.7-9.1,0.8l-42.5,22.3c-5.5-2.6-12.1-2.7-17.8,0.3c-4.7,2.5-8.2,6.7-9.8,11.8 c-0.3,0.9-0.5,1.8-0.6,2.7L187.8,436c-4,2.1-6.4,6.2-6.4,10.6c0,1.9,0.5,3.8,1.4,5.6c1.5,2.8,4,4.9,7.1,5.9c1.2,0.4,2.4,0.5,3.6,0.5 c1.9,0,3.8-0.5,5.6-1.4l63.8-33.5c2.7,1.3,5.6,1.9,8.6,1.9c3.1,0,6.3-0.7,9.3-2.3c5.8-3,9.4-8.5,10.4-14.5l42.5-22.3 c4-2.1,6.4-6.2,6.4-10.6c0-1.9-0.5-3.9-1.4-5.6C337.1,367.6,334.6,365.5,331.6,364.5z M195.3,450.2c-0.9,0.5-2,0.6-3.1,0.3 c-1-0.3-1.9-1-2.3-2c-0.3-0.6-0.5-1.2-0.5-1.9c0-1.5,0.8-2.9,2.1-3.5l60.6-31.8c0.4,1.3,0.9,2.5,1.5,3.7c0.6,1.2,1.4,2.3,2.2,3.4 L195.3,450.2z M276.9,416.4c-5.9,3.1-13.1,0.8-16.2-5c-3.1-5.9-0.8-13.1,5-16.2c1.8-0.9,3.7-1.4,5.6-1.4c4.3,0,8.5,2.3,10.6,6.4 C285,406,282.8,413.3,276.9,416.4z M329.9,379.5l-39.3,20.6c-0.4-1.3-0.9-2.5-1.5-3.7c-0.6-1.2-1.4-2.3-2.2-3.4l39.3-20.6 c0.9-0.5,2-0.6,3-0.3c1,0.3,1.9,1,2.4,2c0.3,0.6,0.5,1.2,0.5,1.8C332,377.5,331.2,378.8,329.9,379.5z"/></g><g id="change1_3"><path d="M278.1,401.6l-4.4,0.1l-2.5-4.8c-1-2-3.4-2.7-5.4-1.7c-2,1-2.7,3.4-1.7,5.4l3.7,7c0.7,1.3,2.1,2.1,3.5,2.1c0,0,0.1,0,0.1,0 l6.8-0.1c2.2,0,4-1.9,3.9-4.1C282.1,403.3,280.3,401.6,278.1,401.6z"/></g><g id="change1_4"><path d="M112,388c19.9,0,36-16.1,36-36s-16.1-36-36-36s-36,16.1-36,36S92.1,388,112,388z M118.6,340c0.6,2.6,1,5.3,1.2,8h-15.7 c0.2-2.7,0.6-5.4,1.2-8H118.6z M108,332c1.1-2.7,2.4-5.2,4-7.7c1.6,2.5,2.9,5,4,7.7H108z M119.8,356c-0.2,2.7-0.6,5.4-1.2,8h-13.2 c-0.6-2.6-1-5.3-1.2-8H119.8z M116,372c-1.1,2.7-2.5,5.2-4,7.7c-1.6-2.5-2.9-5-4-7.7H116z M124.6,372h7c-2.7,2.7-6,4.8-9.6,6.1 C123,376.1,123.8,374.1,124.6,372z M126.8,364c0.5-2.6,0.9-5.3,1.1-8h11.9c-0.4,2.8-1.2,5.5-2.4,8H126.8z M127.9,348 c-0.2-2.7-0.5-5.4-1.1-8h10.5c1.2,2.5,2,5.2,2.4,8H127.9z M124.6,332c-0.7-2.1-1.6-4.1-2.6-6.1c3.6,1.4,6.8,3.5,9.5,6.1H124.6z M99.4,332h-7c2.7-2.7,6-4.8,9.5-6.1C101,327.9,100.2,329.9,99.4,332z M97.2,340c-0.5,2.6-0.9,5.3-1.1,8H84.3c0.4-2.8,1.2-5.5,2.4-8 H97.2z M96.1,356c0.2,2.7,0.5,5.4,1.1,8H86.7c-1.2-2.5-2-5.2-2.4-8H96.1z M99.4,372c0.7,2.1,1.6,4.1,2.6,6.1 c-3.6-1.4-6.8-3.5-9.5-6.1H99.4z"/></g><g id="change1_5"><path d="M160,300H64c-2.2,0-4,1.8-4,4v144c0,2.2,1.8,4,4,4h96c2.2,0,4-1.8,4-4V304C164,301.8,162.2,300,160,300z M156,444H68V308h88 V444z"/></g><g id="change1_6"><path d="M128,412c2.2,0,4-1.8,4-4s-1.8-4-4-4H96c-2.2,0-4,1.8-4,4s1.8,4,4,4H128z"/></g><g id="change1_7"><path d="M136,420H88c-2.2,0-4,1.8-4,4s1.8,4,4,4h48c2.2,0,4-1.8,4-4S138.2,420,136,420z"/></g><g id="change1_8"><path d="M442,292h-76c-5.5,0-10,4.5-10,10v140c0,5.5,4.5,10,10,10h76c5.5,0,10-4.5,10-10V302C452,296.5,447.5,292,442,292z M396,300 h16v4c0,0.9-0.8,1.7-1.7,1.7h-12.6c-0.9,0-1.7-0.8-1.7-1.7V300z M444,442c0,1.1-0.9,2-2,2h-76c-1.1,0-2-0.9-2-2V302c0-1.1,0.9-2,2-2 h22v4c0,5.3,4.3,9.7,9.7,9.7h12.6c5.3,0,9.7-4.3,9.7-9.7v-4h22c1.1,0,2,0.9,2,2V442z"/></g></svg>