<?xml version="1.0" encoding="UTF-8" standalone="no"?><svg xmlns="http://www.w3.org/2000/svg" xmlns:xlink="http://www.w3.org/1999/xlink" fill="#ffffff" height="3068.3" preserveAspectRatio="xMidYMid meet" version="1" viewBox="279.6 465.8 3440.8 3068.3" width="3440.8" zoomAndPan="magnify"><g id="change1_1"><path d="M347.47,1607.05c40.18,1.89,73.35-30.12,73.35-69.88v-443.84c0-10.87,8.81-19.68,19.68-19.68s19.68,8.81,19.68,19.68v513.8 v714.93c0,49.79,38.72,92.2,88.48,93.97c52.24,1.86,95.18-39.94,95.18-91.77v-692.05c0-12.56,9.18-23.78,21.69-24.97 c14.34-1.37,26.41,9.88,26.41,23.94v690.88c0,49.79,38.72,92.2,88.48,93.97c52.24,1.86,95.18-39.94,95.18-91.77v-717.14v-513.8 c0-10.87,8.81-19.68,19.68-19.68h4.37c10.87,0,19.68,8.81,19.68,19.68v441.86c0,37.67,28.95,70.09,66.58,71.86 c40.18,1.89,73.35-30.12,73.35-69.88V986.2c0-77.28-62.65-139.93-139.93-139.93h0h-43.73H464.54h-4.37h-39.36h0 c-77.28,0-139.93,62.65-139.93,139.93v548.99C280.89,1572.87,309.84,1605.28,347.47,1607.05z"/><circle cx="670.06" cy="627.63" r="161.79"/><path d="M924.23,2475.65c0,67.11,35.9,125.98,89.5,158.45H884.25c-91.18,0-165.36,74.18-165.36,165.36v77.15h780.9v-77.15 c0-91.18-74.18-165.36-165.36-165.36h-129.48c53.6-32.46,89.5-91.34,89.5-158.45c0-102.07-83.04-185.11-185.11-185.11 S924.23,2373.58,924.23,2475.65z"/><path d="M1605.51,2799.45v77.15h780.9v-77.15c0-91.18-74.18-165.36-165.36-165.36h-129.48c53.6-32.46,89.5-91.34,89.5-158.45 c0-102.07-83.04-185.11-185.11-185.11c-102.07,0-185.11,83.04-185.11,185.11c0,67.11,35.9,125.98,89.5,158.45h-129.48 C1679.69,2634.09,1605.51,2708.27,1605.51,2799.45z"/><path d="M2786.98,2634.09H2657.5c-91.18,0-165.36,74.18-165.36,165.36v77.15h780.89v-77.15c0-91.18-74.18-165.36-165.36-165.36 h-129.48c53.6-32.46,89.5-91.34,89.5-158.45c0-102.07-83.04-185.11-185.11-185.11s-185.11,83.04-185.11,185.11 C2697.48,2542.76,2733.38,2601.63,2786.98,2634.09z"/><path d="M895.15,3291.65H765.67c53.6-32.46,89.5-91.34,89.5-158.45c0-102.07-83.04-185.11-185.11-185.11 s-185.11,83.04-185.11,185.11c0,67.11,35.9,125.98,89.5,158.45H444.98c-91.18,0-165.36,74.18-165.36,165.36v77.15h780.9v-77.15 C1060.51,3365.83,986.33,3291.65,895.15,3291.65z"/><path d="M1781.77,3291.65H1652.3c53.6-32.46,89.5-91.34,89.5-158.45c0-102.07-83.04-185.11-185.11-185.11 s-185.11,83.04-185.11,185.11c0,67.11,35.9,125.98,89.5,158.45H1331.6c-91.18,0-165.36,74.18-165.36,165.36v77.15h780.89v-77.15 C1947.14,3365.83,1872.95,3291.65,1781.77,3291.65z"/><path d="M2668.4,3291.65h-129.48c53.6-32.46,89.5-91.34,89.5-158.45c0-102.07-83.04-185.11-185.11-185.11 s-185.11,83.04-185.11,185.11c0,67.11,35.9,125.98,89.5,158.45h-129.48c-91.18,0-165.36,74.18-165.36,165.36v77.15h780.89v-77.15 C2833.76,3365.83,2759.58,3291.65,2668.4,3291.65z"/><path d="M3555.02,3291.65h-129.48c53.6-32.46,89.5-91.34,89.5-158.45c0-102.07-83.04-185.11-185.11-185.11 c-102.07,0-185.11,83.04-185.11,185.11c0,67.11,35.9,125.98,89.5,158.45h-129.48c-91.18,0-165.36,74.18-165.36,165.36v77.15h780.89 v-77.15C3720.38,3365.83,3646.2,3291.65,3555.02,3291.65z"/><path d="M1371.88,1729.92h409.7L1470.3,2041.2c-35.69,35.69-35.69,93.77,0,129.48c17.29,17.29,40.28,26.81,64.73,26.81 c24.45,0,47.44-9.52,64.74-26.81L2000,1770.44l400.23,400.23c17.29,17.29,40.28,26.8,64.73,26.8c24.45,0,47.44-9.52,64.73-26.81 c17.3-17.29,26.82-40.28,26.82-64.74c0-24.46-9.52-47.45-26.82-64.74l-311.28-311.28h401.62c33.28,0,60.35-27.07,60.35-60.35V744.8 c0-33.28-27.07-60.35-60.35-60.35H1371.88c-33.28,0-60.35,27.07-60.35,60.35v924.77 C1311.53,1702.85,1338.6,1729.92,1371.88,1729.92z M1494.63,867.55h1002.66v679.27H1494.63V867.55z"/></g></svg>