<?xml version="1.0" encoding="UTF-8" standalone="no"?><svg xmlns="http://www.w3.org/2000/svg" xmlns:xlink="http://www.w3.org/1999/xlink" fill="none" height="30" preserveAspectRatio="xMidYMid meet" style="fill: none" version="1" viewBox="1.0 1.0 30.0 30.0" width="30" zoomAndPan="magnify"><g id="change1_1"><path clip-rule="evenodd" d="M31 16C31 24.2843 24.2843 31 16 31C7.71573 31 1 24.2843 1 16C1 7.71573 7.71573 1 16 1C24.2843 1 31 7.71573 31 16ZM10 14.8C10 13.6954 10.8954 12.8 12 12.8L12 11.6C12 9.61177 13.6118 8 15.6 8H16.4C18.3882 8 20 9.61177 20 11.6L20 12.8C21.1046 12.8 22 13.6954 22 14.8V22C22 23.1046 21.1046 24 20 24H12C10.8954 24 10 23.1046 10 22V14.8ZM18.4 12.8V11.6C18.4 10.4954 17.5046 9.6 16.4 9.6H15.6C14.4954 9.6 13.6 10.4954 13.6 11.6V12.8H18.4ZM14 17.2C14 16.0954 14.8954 15.2 16 15.2C17.1046 15.2 18 16.0954 18 17.2C18 17.5371 17.9166 17.8546 17.7694 18.1332C18.6317 18.7065 19.2 19.6869 19.2 20.8C19.2 21.2418 18.8418 21.6 18.4 21.6H13.6C13.1582 21.6 12.8 21.2418 12.8 20.8C12.8 19.6869 13.3683 18.7065 14.2306 18.1332C14.0834 17.8546 14 17.5371 14 17.2Z" fill="#ffffff" fill-rule="evenodd"/></g></svg>