<?xml version="1.0" encoding="UTF-8" standalone="no"?><svg xmlns="http://www.w3.org/2000/svg" xmlns:xlink="http://www.w3.org/1999/xlink" fill="#ffffff" height="81.5" preserveAspectRatio="xMidYMid meet" version="1" viewBox="2.8 6.7 87.3 81.5" width="87.3" zoomAndPan="magnify"><g id="change1_2"><circle cx="50.6" cy="47.2" fill="inherit" r="0.8"/></g><g id="change1_1"><path d="M77.4,71.4C66.7,82.6,50.2,85.9,36,79.6C18.1,71.7,9.5,51.1,16.5,32.9l2.8,11.9c0.1,0.7,0.8,1.2,1.5,1 c0.7-0.2,1.1-0.8,0.9-1.5c0,0-3.9-16.5-3.9-16.5c-0.1-0.4-0.4-0.8-0.9-0.9c-0.4-0.1-0.9,0-1.2,0.3L3.3,39.8c-0.5,0.5-0.5,1.3,0,1.8 s1.3,0.5,1.8,0l8.9-9c-7.4,20.4,3.1,42.9,23.5,50.3c14.6,5.3,31,1.5,41.8-9.7c0.5-0.5,0.5-1.3,0.1-1.8 C78.4,70.6,77.6,71.3,77.4,71.4z" fill="inherit"/><path d="M68.3,13.7c0.6,0.3,1.3,0.1,1.7-0.5c0.3-0.6,0.1-1.4-0.5-1.7c0,0-4.1-1.9-4.7-2.1c-0.6-0.3-1.4,0-1.7,0.6 c-0.3,0.6,0,1.4,0.6,1.7C63.8,11.6,67.5,13.2,68.3,13.7z" fill="inherit"/><path d="M42.7,10.1c0.1,0,3.4-0.6,5-0.7c0.7-0.1,1.2-0.7,1.1-1.3c0-0.7-0.7-1.2-1.4-1.2c0,0-3.4,0.4-5.1,0.8 c-0.7,0.2-1.1,0.8-0.9,1.5C41.6,9.7,42.1,10.1,42.7,10.1z" fill="inherit"/><path d="M76.8,20c0.2,0.2,1,0.7,1.8,0c0.5-0.5,0.5-1.3,0-1.8c0,0,0,0,0,0c-1.2-1.2-2.5-2.3-3.9-3.4c-0.6-0.4-1.3-0.3-1.8,0.2 c-0.4,0.6-0.3,1.3,0.2,1.8l0,0C74.5,17.8,75.7,18.9,76.8,20z" fill="inherit"/><path d="M58.4,10c0,0,1.2,0.3,1.5-1c0.2-0.9-0.4-1.4-0.9-1.5c-1.7-0.3-3.4-0.6-5.1-0.7c-0.7-0.1-1.3,0.4-1.4,1.1 c-0.1,0.7,0.4,1.3,1.1,1.4C53.5,9.3,56.8,9.7,58.4,10z" fill="inherit"/><path d="M33.1,13.8c1.4-0.8,2.9-1.4,4.4-2c0.6-0.3,1-1,0.7-1.6s-1-1-1.6-0.7c-1.6,0.6-3.2,1.4-4.7,2.2c-0.6,0.3-0.9,1.1-0.5,1.7 C32,14.3,32.9,13.9,33.1,13.8z" fill="inherit"/><path d="M86.8,38.4c0.1,0.6,0.6,1.2,1.5,1c0.7-0.1,1.1-0.8,1-1.5c0,0-0.8-3.4-1.4-5c-0.2-0.7-0.9-1-1.6-0.8c-0.6,0.2-1,0.9-0.8,1.5 C85.5,33.7,86.5,36.8,86.8,38.4z" fill="inherit"/><path d="M88.1,53.8c-0.7-0.2-1.3,0.2-1.5,0.9c0,0,0,0,0,0c-0.4,1.6-0.9,3.1-1.4,4.6c-0.2,0.6,0.1,1.4,0.7,1.6 c0.8,0.3,1.4-0.2,1.6-0.7c0.6-1.6,1.1-3.3,1.5-4.9C89.2,54.6,88.8,54,88.1,53.8z" fill="inherit"/><path d="M84.3,64.1c-0.6-0.3-1.4-0.1-1.7,0.4c-0.8,1.4-1.7,2.7-2.7,4c-0.4,0.6-0.3,1.3,0.2,1.8s1.3,0.3,1.8-0.2 c1.1-1.4,2-2.8,2.9-4.3C85.1,65.2,84.9,64.4,84.3,64.1z" fill="inherit"/><path d="M90.1,44c0-0.7-0.6-1.2-1.3-1.2c-0.7,0-1.2,0.6-1.2,1.3c0,0.6,0,3.9-0.1,4.9c-0.1,0.7,0.5,1.3,1.1,1.3c0,0,1.3,0.2,1.4-1.2 C90.1,48.2,90.1,44.7,90.1,44z" fill="inherit"/><path d="M83.2,28.5c0.2,0.4,1,0.8,1.7,0.5c1.1-0.5,0.6-1.5,0.5-1.7c-0.8-1.5-1.7-3-2.8-4.4c-0.4-0.6-1.3-0.7-1.8-0.2 c-0.5,0.4-0.6,1.1-0.2,1.7C80.6,24.4,82.4,27.1,83.2,28.5z" fill="inherit"/><path d="M64.1,25.7c0.4,0,0.8-0.2,1.1-0.6l1-1.7c0.3-0.6,0-1.4-0.6-1.7c-0.5-0.3-1.2-0.1-1.6,0.4l-1,1.7 C62.4,24.6,63,25.6,64.1,25.7z" fill="inherit"/><path d="M51.4,22L51.4,22c0.7,0,1.2-0.5,1.2-1.2v-2c0-0.7-0.6-1.2-1.2-1.2s-1.2,0.6-1.2,1.2v2C50.2,21.4,50.7,22,51.4,22z" fill="inherit"/><path d="M37,21.1c-0.6,0.3-0.8,1.1-0.5,1.7l1,1.7c0.2,0.4,0.9,0.9,1.7,0.5c0.6-0.3,0.8-1.1,0.5-1.7c0,0-1-1.7-1-1.7 C38.2,20.6,37.2,21,37,21.1z" fill="inherit"/><path d="M27.5,60.5l1.7-1c0.6-0.3,0.8-1.1,0.5-1.7c-0.3-0.6-1.1-0.8-1.7-0.5c0,0,0,0,0,0l-1.7,1c-0.6,0.3-0.8,1.1-0.5,1.7 C26,60.5,26.6,61,27.5,60.5z" fill="inherit"/><path d="M35.7,69c-0.4,0.6-0.1,1.8,1.1,1.9c0.4,0,0.8-0.2,1.1-0.6l1-1.7c0.4-0.6,0.2-1.4-0.4-1.7c-0.6-0.4-1.3-0.2-1.7,0.4 C36.7,67.3,35.7,69,35.7,69z" fill="inherit"/><path d="M49.2,71.6v2c0,0.7,0.5,1.3,1.2,1.3c0,0,0,0,0,0l0,0c0.7,0,1.2-0.5,1.2-1.2v-2C51.7,69.9,49.2,69.8,49.2,71.6z" fill="inherit"/><path d="M62.6,67.4c-0.6,0.3-0.8,1.1-0.5,1.7l1,1.7c0.2,0.4,0.6,0.7,1.1,0.7c0.2,0,0.4-0.1,0.6-0.2c0.6-0.3,0.8-1.1,0.5-1.7 c0,0,0,0,0,0l-1-1.7C64,67.3,63.2,67.1,62.6,67.4C62.6,67.4,62.6,67.4,62.6,67.4z" fill="inherit"/><path d="M75,59.3l-1.7-1c-0.6-0.4-1.4-0.2-1.7,0.4S71.4,60,72,60.4c0,0,0,0,0.1,0l1.7,1c0.6,0.4,1.4,0.2,1.7-0.4c0,0,0,0,0-0.1 C75.8,60.4,75.6,59.6,75,59.3z" fill="inherit"/><path d="M76.4,45.4c-0.7,0-1.2,0.5-1.3,1.2c0,0,0,0,0,0c0,0.7,0.5,1.3,1.2,1.3c0,0,0,0,0,0h2l0,0c0.7,0,1.2-0.6,1.2-1.2 s-0.6-1.2-1.2-1.2H76.4z" fill="inherit"/><path d="M73.2,35.2c0.2,0,0.4-0.1,0.6-0.2l1.7-1c0.6-0.3,0.8-1.1,0.5-1.7c-0.3-0.6-1.1-0.8-1.7-0.5l-1.7,1 c-0.6,0.3-0.8,1.1-0.5,1.7C72.3,34.9,72.7,35.1,73.2,35.2z" fill="inherit"/><path d="M51.1,47.5c0.1-0.1,0.1-0.3,0.1-0.4c0-0.1-0.1-0.3-0.2-0.4c-0.1-0.1-0.3-0.1-0.4-0.1c-0.1,0-0.3,0.1-0.4,0.2 c-0.2,0.2-0.2,0.6,0,0.8C50.5,47.8,50.8,47.8,51.1,47.5C51.1,47.5,51.1,47.5,51.1,47.5z" fill="inherit"/><path d="M50.8,68.8c12.6,0,22.7-10.2,22.7-22.7S63.4,23.4,50.8,23.4S28.1,33.5,28.1,46.1c0,0,0,0,0,0 C28.1,58.6,38.3,68.8,50.8,68.8z M36.5,34.5c0.5-0.5,1.3-0.6,1.8-0.1l11.1,9.9c0.3-0.2,0.7-0.2,1.1-0.3c0.4,0,0.7,0,1.1,0.1 l11.9-13.3c0.4-0.5,1.2-0.7,1.8-0.2c0.5,0.4,0.7,1.2,0.2,1.8c0,0-12.1,13.5-12.1,13.5c0.2,0.3,0.2,0.7,0.3,1.1c0,1.7-1.3,3.1-3,3.1 c-1.7,0-3.1-1.3-3.1-3c0-0.3,0-0.6,0.1-0.9l-11.1-10C36.1,35.8,36.1,35,36.5,34.5z" fill="inherit"/></g></svg>