<?xml version="1.0" encoding="UTF-8" standalone="no"?><svg xmlns="http://www.w3.org/2000/svg" xmlns:xlink="http://www.w3.org/1999/xlink" fill="#ffffff" height="126" preserveAspectRatio="xMidYMid meet" version="1" viewBox="0.0 0.0 126.0 126.0" width="126" zoomAndPan="magnify"><g id="change1_1"><path d="M63,71c-2.206,0-4,1.794-4,4s1.794,4,4,4s4-1.794,4-4S65.206,71,63,71z M63,77c-1.103,0-2-0.897-2-2s0.897-2,2-2 s2,0.897,2,2S64.103,77,63,77z" fill="inherit"/><path d="M63,63.005c-3.208,0-6.222,1.246-8.485,3.51c-0.567,0.566-0.879,1.32-0.879,2.121s0.312,1.555,0.879,2.121 c1.133,1.133,3.109,1.133,4.242,0c1.131-1.13,2.638-1.753,4.243-1.753s3.112,0.623,4.243,1.753c0.566,0.566,1.32,0.879,2.121,0.879 s1.555-0.313,2.121-0.879c0.567-0.566,0.879-1.32,0.879-2.121s-0.312-1.555-0.879-2.121C69.222,64.251,66.208,63.005,63,63.005z M70.071,69.343c-0.384,0.383-1.03,0.383-1.414,0c-1.509-1.509-3.518-2.339-5.657-2.339s-4.148,0.83-5.657,2.339 c-0.384,0.383-1.03,0.383-1.414,0c-0.191-0.191-0.293-0.437-0.293-0.707s0.102-0.516,0.293-0.707 c1.886-1.886,4.396-2.924,7.071-2.924s5.185,1.038,7.071,2.924c0.191,0.191,0.293,0.437,0.293,0.707S70.262,69.151,70.071,69.343z" fill="inherit"/><path d="M63,55c-5.342,0-10.365,2.08-14.142,5.858c-0.566,0.565-0.878,1.319-0.878,2.121s0.312,1.556,0.878,2.121 c1.133,1.133,3.109,1.133,4.242,0C55.745,62.456,59.26,61,63,61s7.255,1.456,9.9,4.101c0.566,0.566,1.32,0.879,2.121,0.879 s1.555-0.313,2.121-0.879c0.566-0.565,0.878-1.319,0.878-2.121s-0.312-1.556-0.878-2.121C73.365,57.08,68.342,55,63,55z M75.728,63.687c-0.384,0.383-1.03,0.383-1.414,0C71.292,60.664,67.274,59,63,59s-8.292,1.664-11.314,4.687 c-0.384,0.383-1.03,0.383-1.414,0c-0.188-0.188-0.292-0.439-0.292-0.707s0.104-0.519,0.292-0.707C53.672,58.872,58.192,57,63,57 s9.328,1.872,12.728,5.272c0.188,0.188,0.292,0.439,0.292,0.707S75.917,63.498,75.728,63.687z" fill="inherit"/><path d="M43.201,55.201c-0.566,0.565-0.878,1.319-0.878,2.121s0.312,1.556,0.878,2.121c1.133,1.133,3.109,1.133,4.242,0 c4.147-4.147,9.672-6.432,15.557-6.432s11.409,2.284,15.557,6.432c0.566,0.566,1.32,0.879,2.121,0.879s1.555-0.313,2.121-0.879 c0.566-0.565,0.878-1.319,0.878-2.121s-0.312-1.556-0.878-2.121c-5.28-5.28-12.312-8.188-19.799-8.188S48.481,49.921,43.201,55.201 z M81.677,57.322c0,0.268-0.104,0.519-0.292,0.707c-0.384,0.383-1.03,0.383-1.414,0C75.445,53.504,69.418,51.012,63,51.012 s-12.445,2.492-16.971,7.018c-0.384,0.383-1.03,0.383-1.414,0c-0.188-0.188-0.292-0.439-0.292-0.707s0.104-0.519,0.292-0.707 c4.903-4.902,11.432-7.603,18.385-7.603s13.482,2.7,18.385,7.603C81.573,56.804,81.677,57.055,81.677,57.322z" fill="inherit"/><path d="M121,0H99c-2.757,0-5,2.243-5,5v18h-8.908c-2.905,0-5.517,1.614-6.816,4.213l-4.895,9.79C70.168,35.716,66.667,35,63,35 s-7.168,0.716-10.38,2.003l-4.895-9.79C46.425,24.614,43.813,23,40.908,23H32V5c0-2.757-2.243-5-5-5H5C2.243,0,0,2.243,0,5v38 c0,2.757,2.243,5,5,5h22c2.757,0,5-2.243,5-5V25h8.908c2.143,0,4.069,1.19,5.027,3.107l4.851,9.702C41.45,42.354,35,51.937,35,63 s6.45,20.646,15.786,25.191l-4.851,9.702C44.978,99.81,43.051,101,40.908,101H32V83c0-2.757-2.243-5-5-5H5c-2.757,0-5,2.243-5,5v38 c0,2.757,2.243,5,5,5h22c2.757,0,5-2.243,5-5v-18h8.908c2.905,0,5.517-1.614,6.816-4.213l4.895-9.79C55.832,90.284,59.333,91,63,91 s7.168-0.716,10.38-2.003l4.895,9.79c1.299,2.599,3.911,4.213,6.816,4.213H94v18c0,2.757,2.243,5,5,5h22c2.757,0,5-2.243,5-5V83 c0-2.757-2.243-5-5-5H99c-2.757,0-5,2.243-5,5v18h-8.908c-2.143,0-4.069-1.19-5.027-3.107l-4.851-9.702 C84.55,83.646,91,74.063,91,63s-6.45-20.646-15.786-25.191l4.851-9.702C81.022,26.19,82.949,25,85.092,25H94v18 c0,2.757,2.243,5,5,5h22c2.757,0,5-2.243,5-5V5C126,2.243,123.757,0,121,0z M2,8h28v32H2V8z M5,2h22c1.654,0,3,1.346,3,3v1H2V5 C2,3.346,3.346,2,5,2z M27,46H5c-1.654,0-3-1.346-3-3v-1h28v1C30,44.654,28.654,46,27,46z M2,86h28v32H2V86z M5,80h22 c1.654,0,3,1.346,3,3v1H2v-1C2,81.346,3.346,80,5,80z M27,124H5c-1.654,0-3-1.346-3-3v-1h28v1C30,122.654,28.654,124,27,124z M124,118H96V86h28V118z M121,124H99c-1.654,0-3-1.346-3-3v-1h28v1C124,122.654,122.654,124,121,124z M99,80h22 c1.654,0,3,1.346,3,3v1H96v-1C96,81.346,97.346,80,99,80z M89,63c0,14.337-11.664,26-26,26S37,77.337,37,63s11.664-26,26-26 S89,48.663,89,63z M96,8h28v32H96V8z M99,2h22c1.654,0,3,1.346,3,3v1H96V5C96,3.346,97.346,2,99,2z M121,46H99 c-1.654,0-3-1.346-3-3v-1h28v1C124,44.654,122.654,46,121,46z" fill="inherit"/><path d="M110,20c-2.206,0-4,1.794-4,4s1.794,4,4,4s4-1.794,4-4S112.206,20,110,20z M110,26c-1.103,0-2-0.897-2-2s0.897-2,2-2 s2,0.897,2,2S111.103,26,110,26z" fill="inherit"/><path d="M116.653,28.444c-0.135,0.202-0.279,0.396-0.431,0.585c-0.347,0.43-0.279,1.06,0.15,1.406 c0.185,0.149,0.407,0.222,0.627,0.222c0.292,0,0.582-0.127,0.779-0.372c0.19-0.235,0.369-0.479,0.537-0.729 c0.307-0.459,0.183-1.08-0.276-1.387C117.581,27.861,116.96,27.986,116.653,28.444z" fill="inherit"/><path d="M110,14c-0.552,0-1,0.447-1,1s0.448,1,1,1c4.411,0,8,3.589,8,8c0,0.462-0.04,0.923-0.117,1.372 c-0.094,0.545,0.271,1.063,0.815,1.156c0.058,0.01,0.115,0.015,0.171,0.015c0.478,0,0.9-0.343,0.984-0.829 C119.951,25.152,120,24.575,120,24C120,18.486,115.514,14,110,14z" fill="inherit"/><path d="M102.515,20c0.323,0,0.64-0.156,0.833-0.444c0.135-0.202,0.279-0.396,0.431-0.585c0.347-0.43,0.279-1.06-0.15-1.406 c-0.43-0.347-1.06-0.279-1.406,0.15c-0.19,0.235-0.369,0.479-0.537,0.729c-0.307,0.459-0.183,1.08,0.276,1.387 C102.131,19.945,102.324,20,102.515,20z" fill="inherit"/><path d="M110,32c-4.411,0-8-3.589-8-8c0-0.462,0.04-0.923,0.117-1.372c0.094-0.545-0.271-1.063-0.815-1.156 c-0.545-0.094-1.061,0.271-1.156,0.814C100.049,22.848,100,23.425,100,24c0,5.514,4.486,10,10,10c0.552,0,1-0.447,1-1 S110.552,32,110,32z" fill="inherit"/><path d="M110,106c2.206,0,4-1.794,4-4s-1.794-4-4-4s-4,1.794-4,4S107.794,106,110,106z M110,100c1.103,0,2,0.897,2,2s-0.897,2-2,2 s-2-0.897-2-2S108.897,100,110,100z" fill="inherit"/><path d="M116.653,106.444c-0.135,0.202-0.279,0.396-0.431,0.585c-0.347,0.43-0.279,1.06,0.15,1.406 c0.185,0.149,0.407,0.222,0.627,0.222c0.292,0,0.582-0.127,0.779-0.372c0.19-0.235,0.369-0.479,0.537-0.729 c0.307-0.459,0.183-1.08-0.276-1.387C117.581,105.861,116.96,105.985,116.653,106.444z" fill="inherit"/><path d="M110,94c4.411,0,8,3.589,8,8c0,0.462-0.04,0.923-0.117,1.372c-0.094,0.545,0.271,1.063,0.815,1.156 c0.058,0.01,0.115,0.015,0.171,0.015c0.478,0,0.9-0.343,0.984-0.829c0.097-0.562,0.146-1.139,0.146-1.714c0-5.514-4.486-10-10-10 c-0.552,0-1,0.447-1,1S109.448,94,110,94z" fill="inherit"/><path d="M102.515,98c0.323,0,0.64-0.156,0.833-0.444c0.135-0.202,0.279-0.396,0.431-0.585c0.347-0.43,0.279-1.06-0.15-1.406 c-0.43-0.347-1.06-0.279-1.406,0.15c-0.19,0.235-0.369,0.479-0.537,0.729c-0.307,0.459-0.183,1.08,0.276,1.387 C102.131,97.945,102.324,98,102.515,98z" fill="inherit"/><path d="M110,112c0.552,0,1-0.447,1-1s-0.448-1-1-1c-4.411,0-8-3.589-8-8c0-0.462,0.04-0.923,0.117-1.372 c0.094-0.545-0.271-1.063-0.815-1.156c-0.545-0.09-1.061,0.271-1.156,0.814C100.049,100.848,100,101.425,100,102 C100,107.514,104.486,112,110,112z" fill="inherit"/><path d="M16,20c-2.206,0-4,1.794-4,4s1.794,4,4,4s4-1.794,4-4S18.206,20,16,20z M16,26c-1.103,0-2-0.897-2-2s0.897-2,2-2 s2,0.897,2,2S17.103,26,16,26z" fill="inherit"/><path d="M22.653,28.444c-0.135,0.202-0.279,0.396-0.431,0.585c-0.347,0.43-0.279,1.06,0.15,1.406 c0.185,0.149,0.407,0.222,0.627,0.222c0.292,0,0.582-0.127,0.779-0.372c0.19-0.235,0.369-0.479,0.537-0.729 c0.307-0.459,0.183-1.08-0.276-1.387C23.58,27.861,22.96,27.986,22.653,28.444z" fill="inherit"/><path d="M16,14c-0.552,0-1,0.447-1,1s0.448,1,1,1c4.411,0,8,3.589,8,8c0,0.462-0.04,0.923-0.117,1.372 c-0.094,0.545,0.271,1.063,0.815,1.156c0.058,0.01,0.115,0.015,0.171,0.015c0.478,0,0.9-0.343,0.984-0.829 C25.951,25.152,26,24.575,26,24C26,18.486,21.514,14,16,14z" fill="inherit"/><path d="M8.515,20c0.323,0,0.64-0.156,0.833-0.444c0.135-0.202,0.279-0.396,0.431-0.585c0.347-0.43,0.279-1.06-0.15-1.406 c-0.43-0.347-1.06-0.279-1.406,0.15c-0.19,0.235-0.369,0.479-0.537,0.729c-0.307,0.459-0.183,1.08,0.276,1.387 C8.131,19.945,8.324,20,8.515,20z" fill="inherit"/><path d="M16,32c-4.411,0-8-3.589-8-8c0-0.462,0.04-0.923,0.117-1.372c0.094-0.545-0.271-1.063-0.815-1.156 c-0.542-0.094-1.062,0.271-1.156,0.814C6.049,22.848,6,23.425,6,24c0,5.514,4.486,10,10,10c0.552,0,1-0.447,1-1S16.552,32,16,32z" fill="inherit"/><path d="M16,98c-2.206,0-4,1.794-4,4s1.794,4,4,4s4-1.794,4-4S18.206,98,16,98z M16,104c-1.103,0-2-0.897-2-2s0.897-2,2-2 s2,0.897,2,2S17.103,104,16,104z" fill="inherit"/><path d="M22.653,106.444c-0.135,0.202-0.279,0.396-0.431,0.585c-0.347,0.43-0.279,1.06,0.15,1.406 c0.185,0.149,0.407,0.222,0.627,0.222c0.292,0,0.582-0.127,0.779-0.372c0.19-0.235,0.369-0.479,0.537-0.729 c0.307-0.459,0.183-1.08-0.276-1.387C23.58,105.861,22.96,105.985,22.653,106.444z" fill="inherit"/><path d="M16,92c-0.552,0-1,0.447-1,1s0.448,1,1,1c4.411,0,8,3.589,8,8c0,0.462-0.04,0.923-0.117,1.372 c-0.094,0.545,0.271,1.063,0.815,1.156c0.058,0.01,0.115,0.015,0.171,0.015c0.478,0,0.9-0.343,0.984-0.829 C25.951,103.152,26,102.575,26,102C26,96.486,21.514,92,16,92z" fill="inherit"/><path d="M8.515,98c0.323,0,0.64-0.156,0.833-0.444c0.135-0.202,0.279-0.396,0.431-0.585c0.347-0.43,0.279-1.06-0.15-1.406 c-0.43-0.347-1.06-0.279-1.406,0.15c-0.19,0.235-0.369,0.479-0.537,0.729c-0.307,0.459-0.183,1.08,0.276,1.387 C8.131,97.945,8.324,98,8.515,98z" fill="inherit"/><path d="M16,110c-4.411,0-8-3.589-8-8c0-0.462,0.04-0.923,0.117-1.372c0.094-0.545-0.271-1.063-0.815-1.156 c-0.542-0.09-1.062,0.271-1.156,0.814C6.049,100.848,6,101.425,6,102c0,5.514,4.486,10,10,10c0.552,0,1-0.447,1-1 S16.552,110,16,110z" fill="inherit"/></g></svg>