<?xml version="1.0" encoding="UTF-8" standalone="no"?><svg xmlns="http://www.w3.org/2000/svg" xmlns:xlink="http://www.w3.org/1999/xlink" fill="#ffffff" height="121.9" preserveAspectRatio="xMidYMid meet" version="1" viewBox="0.0 0.0 121.9 121.9" width="121.9" zoomAndPan="magnify"><g id="change1_1"><path d="M38.178,11.501l-2.615-5.96c-6.313,2.905-12.045,6.854-16.978,11.63l4.601,4.601C27.551,17.564,32.61,14.077,38.178,11.501 z" fill="inherit"/><path d="M6.51,61.975H0c0.126,7.764,1.705,15.178,4.485,21.984l5.989-2.552C8.029,75.385,6.634,68.834,6.51,61.975z" fill="inherit"/><path d="M10.474,40.543l-5.989-2.552C1.705,44.797,0.126,52.21,0,59.975h6.51C6.634,53.115,8.029,46.564,10.474,40.543z" fill="inherit"/><path d="M11.262,83.244l-5.988,2.552c2.928,6.545,6.973,12.482,11.897,17.568l4.601-4.601C17.431,94.262,13.86,89.02,11.262,83.244 z" fill="inherit"/><path d="M23.186,100.177l-4.601,4.601c4.933,4.776,10.666,8.725,16.978,11.63l2.615-5.96 C32.61,107.872,27.551,104.386,23.186,100.177z" fill="inherit"/><path d="M98.763,21.772l4.601-4.601c-4.933-4.776-10.666-8.725-16.978-11.63l-2.615,5.96 C89.339,14.077,94.399,17.564,98.763,21.772z" fill="inherit"/><path d="M59.975,6.51V0c-7.992,0.13-15.618,1.79-22.586,4.722l2.617,5.964C46.172,8.105,52.912,6.638,59.975,6.51z" fill="inherit"/><path d="M110.687,38.705l5.988-2.552c-2.928-6.545-6.973-12.482-11.897-17.568l-4.601,4.601 C104.518,27.688,108.089,32.93,110.687,38.705z" fill="inherit"/><path d="M115.439,59.975h6.51c-0.126-7.764-1.705-15.178-4.485-21.984l-5.989,2.552C113.92,46.564,115.315,53.115,115.439,59.975z" fill="inherit"/><path d="M84.561,4.722C77.592,1.79,69.966,0.13,61.975,0v6.51c7.062,0.128,13.802,1.595,19.969,4.176L84.561,4.722z" fill="inherit"/><path d="M37.389,117.227c6.968,2.933,14.594,4.593,22.586,4.722v-6.51c-7.062-0.128-13.802-1.595-19.969-4.176L37.389,117.227z" fill="inherit"/><path d="M21.772,23.186l-4.601-4.601c-4.924,5.087-8.969,11.023-11.897,17.568l5.988,2.552 C13.86,32.93,17.431,27.688,21.772,23.186z" fill="inherit"/><path d="M60.975,18.21c-23.58,0-42.765,19.184-42.765,42.765s19.185,42.765,42.765,42.765s42.765-19.184,42.765-42.765 S84.555,18.21,60.975,18.21z M60.975,100.59c-21.845,0-39.616-17.771-39.616-39.616S39.13,21.359,60.975,21.359 s39.616,17.771,39.616,39.616S82.819,100.59,60.975,100.59z" fill="inherit"/><path d="M61.975,115.439v6.51c7.992-0.13,15.618-1.79,22.586-4.722l-2.617-5.964C75.777,113.844,69.037,115.311,61.975,115.439z" fill="inherit"/><path d="M113.465,60.975c0-28.943-23.547-52.49-52.49-52.49s-52.49,23.547-52.49,52.49s23.547,52.49,52.49,52.49 S113.465,89.918,113.465,60.975z M60.975,105.739c-24.684,0-44.765-20.082-44.765-44.765S36.291,16.21,60.975,16.21 s44.765,20.082,44.765,44.765S85.658,105.739,60.975,105.739z" fill="inherit"/><path d="M83.771,110.448l2.615,5.96c6.313-2.905,12.045-6.854,16.978-11.63l-4.601-4.601 C94.399,104.386,89.339,107.872,83.771,110.448z" fill="inherit"/><path d="M60.975,23.359c-20.741,0-37.616,16.875-37.616,37.616S40.233,98.59,60.975,98.59s37.616-16.875,37.616-37.616 S81.716,23.359,60.975,23.359z M31.798,65.837c-2.686,0-4.863-2.177-4.863-4.863s2.177-4.863,4.863-4.863s4.863,2.177,4.863,4.863 S34.484,65.837,31.798,65.837z M80.803,77.157c-3.646,8.181-9.844,13.11-16.788,13.11c-11.249,0-20.06-12.867-20.06-29.292 s8.811-29.292,20.06-29.292c6.289,0,11.975,4.025,15.722,10.952c1.032,1.909,0.111,4.297-1.91,5.086l-0.007,0.003 c-1.72,0.672-3.65-0.064-4.539-1.683c-2.429-4.424-5.821-7.064-9.266-7.064c-6.92,0-12.766,10.074-12.766,21.998 c0,11.924,5.846,21.998,12.766,21.998c3.901,0,7.68-3.348,10.109-8.757c0.763-1.698,2.654-2.579,4.43-2.021 C80.63,72.846,81.689,75.17,80.803,77.157z M90.151,65.837c-2.686,0-4.863-2.177-4.863-4.863s2.177-4.863,4.863-4.863 c2.686,0,4.863,2.177,4.863,4.863S92.837,65.837,90.151,65.837z" fill="inherit"/><path d="M111.475,81.406l5.989,2.552c2.779-6.806,4.359-14.22,4.485-21.984h-6.51C115.315,68.834,113.92,75.385,111.475,81.406z" fill="inherit"/><path d="M100.177,98.763l4.601,4.601c4.924-5.087,8.969-11.023,11.897-17.568l-5.988-2.552 C108.089,89.02,104.518,94.262,100.177,98.763z" fill="inherit"/></g></svg>