<?xml version="1.0" encoding="UTF-8" standalone="no"?><svg xmlns="http://www.w3.org/2000/svg" xmlns:xlink="http://www.w3.org/1999/xlink" fill="#ffffff" height="62.3" preserveAspectRatio="xMidYMid meet" version="1" viewBox="0.0 0.0 62.0 62.3" width="62" zoomAndPan="magnify"><g id="change1_1"><path d="M43,41.18c0,0.12,0.008,0.24,0.022,0.357l0.861,6.893c0.134,1.064,1.044,1.867,2.116,1.867s1.982-0.803,2.116-1.868 l0.861-6.89C48.992,41.42,49,41.3,49,41.18c0-1.59-1.293-2.883-2.883-2.883h-0.234C44.293,38.297,43,39.59,43,41.18z M47,41.18 c0,0.036-0.002,0.072-0.007,0.109l-0.861,6.891c-0.018,0.133-0.246,0.132-0.264,0.001l-0.861-6.894 C45.002,41.252,45,41.216,45,41.18c0-0.486,0.396-0.883,0.883-0.883h0.234C46.604,40.297,47,40.693,47,41.18z" fill="inherit"/><path d="M46,52.297c-1.654,0-3,1.346-3,3s1.346,3,3,3s3-1.346,3-3S47.654,52.297,46,52.297z M46,56.297c-0.552,0-1-0.448-1-1 s0.448-1,1-1s1,0.448,1,1S46.552,56.297,46,56.297z" fill="inherit"/><path d="M19,18.297h2c1.654,0,3,1.346,3,3h2c0-2.757-2.243-5-5-5v-2h-2v2c-2.757,0-5,2.243-5,5s2.243,5,5,5h2c1.654,0,3,1.346,3,3 s-1.346,3-3,3h-2c-1.654,0-3-1.346-3-3v-1h-2v1c0,2.757,2.243,5,5,5v2h2v-2c2.757,0,5-2.243,5-5s-2.243-5-5-5h-2 c-1.654,0-3-1.346-3-3S17.346,18.297,19,18.297z" fill="inherit"/><path d="M50,22.297h2c0-2.206,1.794-4,4-4s4,1.794,4,4h2v-3c0-8.822-7.178-16-16-16c-4.051,0-7.744,1.526-10.566,4.016 l-3.526-0.807c-3.641-0.834-7.106-2.545-10.022-4.949L20,0l-1.885,1.557c-2.917,2.404-6.384,4.116-10.024,4.949L3.437,7.572 L0.378,23.34C0.127,24.633,0,25.956,0,27.271c0,6.366,2.976,12.416,7.96,16.184l6.641,5.021c1.575,1.191,3.442,1.821,5.399,1.821 s3.824-0.63,5.399-1.821l6.64-5.021C37.024,39.688,40,33.638,40,27.271c0-1.041-0.08-2.093-0.238-3.126l-1.977,0.303 C37.928,25.381,38,26.331,38,27.271c0,5.742-2.679,11.196-7.167,14.588l-6.641,5.021c-2.449,1.854-5.936,1.854-8.385,0 l-6.642-5.021C4.679,38.468,2,33.014,2,27.271c0-1.188,0.115-2.383,0.341-3.551L5.151,9.23l3.386-0.775 c3.942-0.902,7.694-2.754,10.851-5.355L20,2.594L20.613,3.1c3.155,2.602,6.906,4.453,10.848,5.355l2.323,0.532 c-0.462,0.547-0.882,1.129-1.269,1.735l-1.5-0.316C27.308,9.557,23.703,7.9,20.592,5.617L20,5.183l-0.592,0.435 c-3.11,2.283-6.714,3.938-10.423,4.788l-2.118,0.483L4.305,24.102C4.103,25.146,4,26.213,4,27.271 c0,5.119,2.382,9.977,6.372,12.993l6.643,5.021c0.888,0.671,1.893,1.011,2.985,1.011s2.098-0.341,2.987-1.012l6.64-5.021 C33.618,37.248,36,32.391,36,27.271c0-1.059-0.103-2.125-0.305-3.17l-1.963,0.379C33.91,25.401,34,26.34,34,27.271 c0,4.496-2.085,8.757-5.579,11.396l-6.64,5.021c-1.082,0.818-2.48,0.817-3.561,0.001l-6.642-5.021C8.086,36.028,6,31.768,6,27.271 c0-0.932,0.09-1.87,0.268-2.79l2.314-11.933l0.849-0.194C13.171,11.499,16.81,9.878,20,7.652c3.191,2.226,6.83,3.847,10.569,4.702 l0.935,0.213C30.549,14.616,30,16.891,30,19.297v3h2c0-2.206,1.794-4,4-4s4,1.794,4,4h2c0-1.859,1.279-3.411,3-3.858v13.955 c-1.252,0.264-2.327,1.073-2.912,2.256L31.439,56.175C31.152,56.757,31,57.406,31,58.061c0,2.336,1.9,4.236,4.236,4.236h21.527 c2.336,0,4.236-1.9,4.236-4.236c0-0.654-0.154-1.31-0.447-1.895L49.787,34.633c-0.569-1.134-1.591-1.924-2.787-2.213V18.439 C48.721,18.886,50,20.438,50,22.297z M59.911,17.756c-1.051-0.907-2.416-1.459-3.911-1.459c-1.622,0-3.09,0.652-4.171,1.702 C51.29,11.41,49.573,7.55,48.254,5.495C54.405,6.498,59.223,11.507,59.911,17.756z M36,16.297c-1.494,0-2.859,0.552-3.911,1.459 c0.688-6.249,5.506-11.258,11.656-12.26c-1.319,2.054-3.036,5.915-3.574,12.503C39.09,16.949,37.622,16.297,36,16.297z M42.209,17.664C42.87,10.611,44.945,7.131,46,5.78c1.055,1.351,3.13,4.831,3.791,11.884c-1.035-0.849-2.351-1.367-3.791-1.367 S43.244,16.815,42.209,17.664z M47.998,35.528l10.766,21.532c0.154,0.309,0.236,0.655,0.236,1c0,1.233-1.003,2.236-2.236,2.236 H35.236c-1.233,0-2.236-1.003-2.236-2.243c0-0.342,0.08-0.685,0.232-0.992l10.648-21.524c0.38-0.769,1.147-1.245,2.005-1.245 c0.002,0,0.004,0,0.006,0h0.111C46.853,34.294,47.617,34.768,47.998,35.528z" fill="inherit"/></g></svg>