<?xml version="1.0" encoding="UTF-8" standalone="no"?><svg xmlns="http://www.w3.org/2000/svg" xmlns:xlink="http://www.w3.org/1999/xlink" fill="#ffffff" height="467.5" preserveAspectRatio="xMidYMid meet" version="1" viewBox="19.0 25.9 467.5 467.5" width="467.5" zoomAndPan="magnify"><g data-name="Solid" id="change1_1"><path d="M484,356.5H372v24h52a4,4,0,0,1,4,4v80a4,4,0,0,1-4,4H372v4a12.013,12.013,0,0,0,12,12h88a12.013,12.013,0,0,0,12-12Z"/><path d="M372 388.5H420V460.5H372z"/><path d="M391.806 316.5L374.678 348.5 481.123 348.5 462.924 316.5 391.806 316.5z"/><rect height="24" rx="4" width="112" x="372" y="284.5"/><path d="M478.758,79l-45.25-45.254a20.03,20.03,0,0,0-28.289,0c-7.762,7.445-7.762,20.837,0,28.281l45.258,45.258c7.546,7.555,20.734,7.555,28.281,0C486.519,99.838,486.521,86.44,478.758,79Z"/><path d="M374.39 90.108H430.394V130.111H374.39z" transform="rotate(-45.005 402.395 110.109)"/><path d="M239.73,300.762c-.51-6.315-7.061-4.917-13.921-5.43-8.879-.144-20.621-.332-28.02-9.309L137.2,347l28.289,28.285Z"/><path d="M95.063 373.434H127.065V429.43600000000004H95.063z" transform="rotate(-45.005 111.064 401.434)"/><path d="M99.75,356.18l56.57,56.57c4.89,4.981,13.521,3.673,18.262-1.293L379.766,206.273l-73.539-73.539-16.971,16.971L303.4,163.848a4,4,0,1,1-5.656,5.656L283.6,155.361l-16.973,16.973,25.459,25.455a4,4,0,1,1-5.656,5.656L260.971,177.99,244,194.961,258.141,209.1a4,4,0,0,1-5.657,5.656l-14.14-14.141L221.371,217.59l25.457,25.453a4,4,0,0,1-5.656,5.656l-25.457-25.453L101.043,337.918C96.074,342.657,94.777,351.29,99.75,356.18Zm28.965-11.992,66.875-67.3a4.03,4.03,0,0,1,6.4,1c4.664,9.136,14.469,9.293,23.95,9.445,7.32.117,14.234.231,18.48,4.711,2.484,2.643,5.029,9.211,2.16,13.18l-78.254,78.55a3.993,3.993,0,0,1-2.828,1.176h0a4,4,0,0,1-2.828-1.172l-33.941-33.941A4,4,0,0,1,128.715,344.188Z"/><path d="M303.4,90.309c-7.76,7.442-7.762,20.84,0,28.285L393.906,209.1c7.571,7.562,20.742,7.554,28.282,0,7.762-7.445,7.761-20.837,0-28.282L331.68,90.309C324.244,82.552,310.834,82.553,303.4,90.309Z"/><path d="M26.211,491.945,74.3,443.861l5.658,5.659,22.625-22.629L85.609,409.922,62.98,432.547l5.659,5.658L20.555,486.289a4,4,0,0,0,5.656,5.656Z"/></g></svg>