<?xml version="1.0" encoding="UTF-8" standalone="no"?><svg xmlns="http://www.w3.org/2000/svg" xmlns:xlink="http://www.w3.org/1999/xlink" fill="#ffffff" height="3414.1" preserveAspectRatio="xMidYMid meet" version="1" viewBox="601.2 296.2 2797.6 3414.1" width="2797.6" zoomAndPan="magnify"><g id="change1_1"><path d="M2667.09,2591.64c-0.33-5.71-0.84-11.41-1.5-17.1c-0.07-0.58-0.14-1.16-0.21-1.74c-0.73-5.86-1.62-11.71-2.71-17.54 c-0.57-3.08-1.84-5.77-3.58-7.98c-4.61-5.88-12.55-8.43-19.76-6.27c-1.26,0.38-2.49,0.89-3.69,1.56c-0.37,0.21-0.73,0.43-1.08,0.66 c-0.71,0.47-1.41,1-2.08,1.58l-175.86,154.03c-20.33,17.81-51.24,15.76-69.05-4.57l-95-108.46c-17.8-20.33-15.76-51.24,4.57-69.05 l175.86-154.03c0.67-0.59,1.28-1.2,1.84-1.85c1.4-1.61,2.45-3.39,3.18-5.25c0.29-0.74,0.53-1.5,0.72-2.27s0.33-1.54,0.42-2.32 c0.04-0.39,0.08-0.78,0.09-1.17c0.06-1.17,0-2.34-0.16-3.5c-0.48-3.47-1.94-6.79-4.27-9.5c-0.52-0.6-1.08-1.17-1.68-1.71 c-0.3-0.27-0.61-0.53-0.94-0.78c-1.61-1.25-3.48-2.26-5.6-2.95c-5.63-1.84-11.31-3.5-17.03-4.99c-0.57-0.15-1.13-0.29-1.7-0.44 c-5.55-1.41-11.14-2.66-16.75-3.75c-0.37-0.07-0.75-0.14-1.12-0.22c-7.36-1.39-14.77-2.5-22.21-3.32c-0.13-0.01-0.27-0.03-0.4-0.04 c-2.99-0.33-5.99-0.61-8.99-0.84c-1.57-0.12-3.15-0.23-4.72-0.33c-9.27-0.57-18.57-0.71-27.86-0.4c-3.1,0.1-6.19,0.25-9.29,0.45 c-6.19,0.4-12.37,1-18.53,1.79c-2.74,0.35-5.48,0.75-8.21,1.18c-3.74,0.59-7.48,1.26-11.2,1.99c-7.32,1.45-14.59,3.18-21.81,5.19 c-1.51,0.42-3.01,0.86-4.52,1.3c-2.1,0.62-4.2,1.28-6.29,1.96c-2.39,0.77-4.78,1.56-7.16,2.4c-5.94,2.09-11.83,4.37-17.66,6.85 c-10.2,4.35-20.22,9.31-29.99,14.89c-4.19,2.39-8.33,4.9-12.43,7.51c-2.73,1.75-5.44,3.54-8.13,5.39 c-9.41,6.46-18.53,13.54-27.33,21.25c-1.33,1.17-2.65,2.34-3.95,3.53c-0.43,0.39-0.85,0.79-1.28,1.18c-0.87,0.8-1.74,1.6-2.6,2.41 c-0.5,0.47-0.99,0.95-1.49,1.42c-0.78,0.74-1.55,1.48-2.32,2.23c-0.52,0.5-1.03,1.01-1.54,1.52c-0.73,0.73-1.46,1.45-2.19,2.19 c-0.52,0.52-1.03,1.05-1.54,1.57c-0.71,0.73-1.42,1.47-2.13,2.21c-0.5,0.53-1,1.05-1.5,1.58c-0.71,0.76-1.42,1.52-2.12,2.28 c-0.47,0.52-0.95,1.03-1.42,1.55c-0.74,0.81-1.46,1.63-2.19,2.44c-0.42,0.47-0.85,0.95-1.26,1.42c-0.86,0.98-1.7,1.97-2.55,2.95 c-0.27,0.32-0.55,0.64-0.82,0.96c-1.11,1.31-2.2,2.63-3.29,3.96c-0.27,0.33-0.53,0.66-0.8,0.99c-0.81,1-1.61,2-2.41,3.01 c-0.39,0.5-0.77,1-1.16,1.5c-0.66,0.85-1.32,1.7-1.97,2.56c-0.42,0.55-0.83,1.1-1.24,1.65c-0.61,0.82-1.22,1.64-1.82,2.46 c-0.42,0.57-0.83,1.15-1.25,1.73c-0.58,0.81-1.16,1.62-1.74,2.44c-0.41,0.58-0.82,1.17-1.22,1.75c-0.57,0.82-1.14,1.65-1.7,2.48 c-0.39,0.58-0.78,1.16-1.17,1.73c-0.57,0.86-1.14,1.73-1.7,2.59c-0.36,0.55-0.72,1.1-1.08,1.65c-0.61,0.96-1.22,1.92-1.82,2.88 c-0.29,0.47-0.59,0.93-0.88,1.4c-0.88,1.43-1.76,2.87-2.61,4.31c-0.02,0.03-0.03,0.05-0.05,0.08c-0.84,1.42-1.67,2.84-2.48,4.27 c-0.27,0.48-0.54,0.96-0.81,1.44c-0.55,0.98-1.1,1.96-1.64,2.94c-0.32,0.57-0.62,1.15-0.93,1.73c-0.48,0.9-0.97,1.8-1.44,2.7 c-0.32,0.61-0.64,1.23-0.95,1.84c-0.45,0.88-0.9,1.76-1.35,2.64c-0.31,0.63-0.63,1.25-0.94,1.88c-0.44,0.88-0.86,1.76-1.29,2.64 c-0.3,0.63-0.6,1.25-0.9,1.88c-0.43,0.9-0.85,1.81-1.26,2.71c-0.28,0.61-0.56,1.22-0.84,1.83c-0.44,0.96-0.86,1.93-1.29,2.9 c-0.24,0.55-0.49,1.11-0.73,1.66c-0.5,1.16-0.99,2.33-1.48,3.49c-0.15,0.36-0.31,0.73-0.46,1.09c-0.63,1.53-1.25,3.07-1.85,4.61 c-0.15,0.39-0.29,0.77-0.44,1.16c-0.45,1.16-0.89,2.31-1.32,3.48c-0.21,0.57-0.42,1.15-0.63,1.72c-0.36,0.98-0.71,1.96-1.06,2.95 c-0.22,0.63-0.44,1.27-0.66,1.9c-0.32,0.93-0.64,1.87-0.95,2.8c-0.22,0.65-0.43,1.31-0.65,1.97c-0.3,0.92-0.6,1.85-0.89,2.77 c-0.21,0.66-0.42,1.32-0.62,1.99c-0.29,0.93-0.57,1.87-0.84,2.8c-0.19,0.65-0.39,1.3-0.57,1.96c-0.28,0.97-0.55,1.94-0.82,2.92 c-0.17,0.62-0.35,1.23-0.51,1.85c-0.29,1.08-0.57,2.16-0.85,3.24c-0.13,0.51-0.27,1.02-0.4,1.54c-0.4,1.6-0.79,3.19-1.17,4.8 c-0.01,0.06-0.02,0.11-0.04,0.17c-0.36,1.54-0.71,3.09-1.05,4.64c-0.12,0.54-0.22,1.07-0.34,1.61c-0.23,1.07-0.45,2.15-0.67,3.22 c-0.13,0.63-0.24,1.26-0.37,1.89c-0.19,0.99-0.38,1.97-0.56,2.96c-0.12,0.67-0.24,1.33-0.35,2c-0.17,0.96-0.33,1.92-0.49,2.88 c-0.11,0.68-0.22,1.36-0.33,2.04c-0.15,0.96-0.3,1.91-0.44,2.87c-0.1,0.68-0.2,1.35-0.29,2.03c-0.14,0.98-0.27,1.95-0.39,2.93 c-0.09,0.66-0.17,1.31-0.25,1.97c-0.13,1.04-0.25,2.08-0.36,3.11c-0.07,0.59-0.14,1.19-0.2,1.78c-0.13,1.25-0.25,2.51-0.37,3.77 c-0.04,0.38-0.08,0.76-0.11,1.13c-0.15,1.63-0.28,3.27-0.39,4.91c-0.03,0.42-0.05,0.84-0.08,1.26c-0.08,1.22-0.16,2.43-0.23,3.65 c-0.03,0.61-0.06,1.21-0.09,1.82c-0.05,1.03-0.1,2.07-0.14,3.1c-0.03,0.66-0.04,1.33-0.07,1.99c-0.03,0.98-0.06,1.96-0.08,2.95 c-0.01,0.68-0.03,1.37-0.04,2.05c-0.01,0.97-0.02,1.93-0.03,2.9c0,0.69-0.01,1.38,0,2.06c0,0.97,0.01,1.95,0.02,2.92 c0.01,0.68,0.02,1.35,0.03,2.03c0.02,1.01,0.05,2.02,0.08,3.03c0.02,0.64,0.03,1.27,0.06,1.9c0.04,1.12,0.09,2.23,0.14,3.34 c0.02,0.53,0.04,1.06,0.07,1.58c0.09,1.64,0.19,3.28,0.3,4.92c0.01,0.08,0.01,0.17,0.02,0.25c0.11,1.56,0.23,3.11,0.37,4.66 c0.05,0.54,0.1,1.09,0.15,1.63c0.1,1.09,0.2,2.19,0.32,3.28c0.07,0.64,0.14,1.28,0.21,1.92c0.11,1,0.22,1.99,0.34,2.99 c0.08,0.68,0.17,1.35,0.25,2.03c0.12,0.97,0.25,1.93,0.38,2.9c0.09,0.68,0.19,1.37,0.29,2.05c0.14,0.96,0.28,1.92,0.43,2.88 c0.11,0.68,0.21,1.36,0.32,2.03c0.16,0.98,0.33,1.96,0.5,2.94c0.11,0.65,0.22,1.3,0.34,1.96c0.04,0.24,0.08,0.47,0.12,0.71 c4.06,22.23-3.88,44.96-20.89,59.86l-74.41,65.17l-271.94-310.48l-81.85-93.45c-70.05-79.97-192.1-88.05-272.07-18l-6.31,5.52 c-79.97,70.05-88.05,192.1-18,272.07l81.85,93.45l271.94,310.48l-74.41,65.17c-17,14.89-40.58,19.78-62.09,12.82 c-0.23-0.07-0.46-0.14-0.68-0.22c-0.63-0.2-1.27-0.4-1.9-0.6c-0.94-0.3-1.89-0.59-2.83-0.88c-0.66-0.2-1.32-0.39-1.98-0.59 c-0.93-0.27-1.86-0.54-2.79-0.81c-0.67-0.19-1.33-0.38-2-0.56c-0.94-0.26-1.88-0.51-2.82-0.76c-0.66-0.17-1.32-0.35-1.98-0.52 c-0.97-0.25-1.94-0.49-2.91-0.73c-0.63-0.16-1.26-0.31-1.89-0.46c-1.06-0.26-2.13-0.5-3.2-0.74c-0.54-0.12-1.07-0.25-1.61-0.37 c-1.52-0.34-3.05-0.66-4.58-0.98c-0.08-0.02-0.16-0.04-0.24-0.05c-1.61-0.33-3.22-0.64-4.84-0.95c-0.52-0.1-1.04-0.19-1.56-0.28 c-1.1-0.2-2.19-0.4-3.29-0.58c-0.63-0.11-1.26-0.21-1.89-0.31c-0.99-0.16-1.98-0.32-2.98-0.47c-0.67-0.1-1.34-0.2-2.01-0.3 c-0.96-0.14-1.92-0.28-2.89-0.41c-0.68-0.09-1.36-0.18-2.05-0.27c-0.96-0.12-1.92-0.24-2.88-0.35c-0.68-0.08-1.36-0.16-2.04-0.24 c-0.98-0.11-1.95-0.21-2.93-0.31c-0.66-0.07-1.32-0.14-1.98-0.2c-1.03-0.1-2.06-0.18-3.09-0.27c-0.6-0.05-1.21-0.1-1.81-0.15 c-1.22-0.09-2.43-0.18-3.65-0.25c-0.42-0.03-0.84-0.06-1.26-0.09c-1.64-0.1-3.27-0.18-4.91-0.26c-0.39-0.02-0.78-0.03-1.17-0.04 c-1.25-0.05-2.5-0.09-3.75-0.13c-0.6-0.02-1.2-0.02-1.8-0.04c-1.04-0.02-2.08-0.04-3.12-0.05c-0.66-0.01-1.33-0.01-1.99-0.01 c-0.98,0-1.97,0-2.95,0c-0.68,0-1.37,0.01-2.05,0.02c-0.97,0.01-1.93,0.03-2.9,0.05c-0.69,0.02-1.38,0.03-2.07,0.06 c-0.97,0.03-1.94,0.07-2.91,0.11c-0.68,0.03-1.36,0.05-2.03,0.09c-1,0.05-2.01,0.1-3.01,0.16c-0.64,0.04-1.28,0.07-1.92,0.11 c-1.09,0.07-2.19,0.15-3.28,0.24c-0.55,0.04-1.09,0.08-1.64,0.12c-1.58,0.13-3.16,0.27-4.73,0.42c-0.06,0.01-0.12,0.01-0.18,0.02 c-1.64,0.16-3.27,0.34-4.9,0.53c-0.53,0.06-1.06,0.13-1.59,0.2c-1.1,0.13-2.21,0.27-3.31,0.42c-0.64,0.08-1.27,0.18-1.91,0.26 c-1,0.14-1.99,0.28-2.99,0.43c-0.68,0.1-1.35,0.21-2.02,0.31c-0.96,0.15-1.92,0.31-2.88,0.47c-0.68,0.11-1.37,0.23-2.05,0.35 c-0.96,0.17-1.91,0.34-2.87,0.52c-0.68,0.13-1.36,0.25-2.04,0.38c-0.97,0.19-1.94,0.38-2.9,0.58c-0.66,0.13-1.32,0.27-1.97,0.4 c-1.02,0.21-2.04,0.44-3.06,0.66c-0.6,0.13-1.2,0.26-1.79,0.4c-1.2,0.27-2.4,0.56-3.6,0.85c-0.41,0.1-0.82,0.19-1.23,0.29 c-1.61,0.4-3.21,0.8-4.81,1.23c-0.38,0.1-0.77,0.21-1.15,0.31c-1.22,0.33-2.44,0.66-3.65,1c-0.58,0.16-1.17,0.34-1.75,0.51 c-1.01,0.29-2.03,0.59-3.04,0.89c-0.64,0.19-1.29,0.39-1.93,0.59c-0.95,0.29-1.9,0.59-2.85,0.89c-0.66,0.21-1.33,0.43-1.99,0.65 c-0.93,0.3-1.86,0.61-2.79,0.93c-0.66,0.23-1.33,0.45-1.99,0.68c-0.93,0.32-1.86,0.65-2.79,0.99c-0.65,0.23-1.3,0.47-1.95,0.7 c-0.96,0.35-1.92,0.71-2.87,1.08c-0.61,0.23-1.22,0.46-1.83,0.7c-1.04,0.4-2.08,0.82-3.12,1.23c-0.52,0.21-1.04,0.41-1.55,0.62 c-1.51,0.61-3.02,1.24-4.52,1.88c-0.04,0.02-0.09,0.04-0.13,0.05c-1.54,0.66-3.08,1.34-4.62,2.02c-0.5,0.22-0.99,0.45-1.48,0.68 c-1.04,0.47-2.08,0.95-3.11,1.43c-0.59,0.28-1.18,0.56-1.78,0.85c-0.93,0.45-1.86,0.89-2.79,1.35c-0.63,0.31-1.25,0.62-1.88,0.93 c-0.89,0.45-1.79,0.9-2.68,1.35c-0.63,0.32-1.27,0.65-1.9,0.98c-0.88,0.46-1.77,0.93-2.65,1.4c-0.63,0.34-1.25,0.67-1.88,1.01 c-0.89,0.49-1.78,0.98-2.67,1.48c-0.6,0.34-1.2,0.67-1.8,1.01c-0.94,0.53-1.87,1.08-2.81,1.62c-0.54,0.32-1.09,0.63-1.63,0.95 c-1.1,0.65-2.2,1.31-3.29,1.98c-0.37,0.22-0.74,0.44-1.11,0.67c-1.46,0.9-2.91,1.81-4.35,2.73c-0.36,0.23-0.72,0.47-1.08,0.7 c-1.08,0.7-2.17,1.41-3.24,2.12c-0.53,0.35-1.05,0.71-1.58,1.07c-0.9,0.61-1.81,1.22-2.71,1.84c-0.58,0.4-1.15,0.8-1.72,1.21 c-0.85,0.59-1.69,1.19-2.54,1.8c-0.59,0.42-1.18,0.85-1.76,1.28c-0.83,0.6-1.65,1.21-2.47,1.82c-0.59,0.44-1.17,0.88-1.75,1.32 c-0.82,0.62-1.64,1.25-2.46,1.88c-0.57,0.44-1.14,0.88-1.71,1.33c-0.84,0.66-1.68,1.33-2.52,2.01c-0.53,0.43-1.07,0.85-1.6,1.28 c-0.92,0.75-1.83,1.5-2.73,2.26c-0.44,0.37-0.89,0.74-1.33,1.11c-1.35,1.14-2.69,2.29-4.02,3.45c-6.28,5.5-12.27,11.22-17.97,17.12 c-2.28,2.36-4.51,4.75-6.69,7.17c-1.37,1.51-2.71,3.04-4.04,4.58c-3.35,3.87-6.58,7.81-9.69,11.82c-2.96,3.81-5.81,7.67-8.56,11.59 c-1.09,1.55-2.16,3.11-3.21,4.68c-0.76,1.14-1.52,2.28-2.26,3.42c-0.95,1.46-1.89,2.94-2.82,4.41c-1.66,2.65-3.27,5.31-4.83,8 c-2.6,4.48-5.08,9.01-7.43,13.59c-2.51,4.91-4.88,9.87-7.1,14.89c-0.89,2.02-1.76,4.05-2.61,6.08 c-5.36,12.91-9.77,26.14-13.21,39.59c-0.31,1.19-0.6,2.39-0.89,3.59c-0.83,3.41-1.59,6.83-2.3,10.26 c-0.18,0.87-0.35,1.74-0.52,2.61c-1.36,6.96-2.47,13.96-3.32,20.99c-0.59,4.89-1.07,9.79-1.41,14.69 c-0.46,6.49-0.69,12.99-0.72,19.5c-0.02,5.24,0.1,10.49,0.36,15.73c0.07,1.45,0.16,2.9,0.25,4.35c0.37,5.71,0.9,11.41,1.61,17.1 c0.31,2.52,0.66,5.05,1.04,7.56c0.5,3.3,1.05,6.6,1.66,9.89c0,0,0,0,0,0c0.55,2.97,1.75,5.58,3.4,7.74 c0.29,0.38,0.59,0.76,0.91,1.11c0.32,0.35,0.65,0.69,0.99,1.02c0.35,0.33,0.71,0.65,1.08,0.95c0.37,0.3,0.74,0.58,1.13,0.85 c3.01,2.09,6.59,3.27,10.26,3.34c0.04,0,0.07,0,0.11,0c1.14,0.02,2.3-0.07,3.44-0.27c0.39-0.07,0.78-0.15,1.17-0.25 c1.94-0.48,3.84-1.29,5.62-2.46c0.71-0.47,1.41-1,2.08-1.58l175.86-154.03c20.33-17.81,51.24-15.76,69.05,4.57l95,108.46 c17.81,20.33,15.76,51.24-4.57,69.05l-175.86,154.03c-10.71,9.38-7.15,26.87,6.38,31.29c94.74,30.97,202.91,12.6,283.32-57.83 c1.33-1.17,2.65-2.34,3.95-3.53c0.43-0.39,0.85-0.78,1.28-1.18c0.87-0.8,1.74-1.6,2.6-2.41c0.5-0.47,0.99-0.94,1.48-1.41 c0.78-0.74,1.55-1.48,2.32-2.23c0.52-0.5,1.03-1.01,1.54-1.52c0.73-0.73,1.47-1.46,2.19-2.19c0.52-0.52,1.03-1.04,1.54-1.57 c0.71-0.73,1.42-1.47,2.13-2.21c0.5-0.53,1-1.05,1.5-1.58c0.71-0.76,1.42-1.52,2.12-2.28c0.47-0.52,0.95-1.03,1.42-1.55 c0.73-0.81,1.46-1.62,2.18-2.44c0.42-0.48,0.85-0.95,1.27-1.43c0.85-0.97,1.69-1.95,2.53-2.94c0.28-0.33,0.56-0.65,0.84-0.98 c1.11-1.31,2.2-2.63,3.28-3.95c0.27-0.34,0.54-0.67,0.81-1.01c0.8-1,1.61-1.99,2.4-3c0.39-0.49,0.77-0.99,1.15-1.49 c0.66-0.85,1.32-1.71,1.98-2.57c0.42-0.55,0.83-1.1,1.24-1.65c0.61-0.82,1.22-1.63,1.82-2.45c0.42-0.57,0.83-1.15,1.25-1.73 c0.58-0.81,1.16-1.62,1.74-2.44c0.41-0.58,0.82-1.17,1.22-1.75c0.57-0.82,1.13-1.65,1.7-2.48c0.39-0.58,0.78-1.16,1.17-1.73 c0.58-0.86,1.14-1.73,1.71-2.6c0.36-0.55,0.72-1.1,1.07-1.65c0.62-0.96,1.22-1.93,1.83-2.89c0.29-0.46,0.58-0.92,0.87-1.38 c0.88-1.43,1.76-2.87,2.61-4.31c0.02-0.04,0.05-0.08,0.07-0.12c0.83-1.4,1.65-2.81,2.46-4.23c0.28-0.48,0.54-0.97,0.82-1.46 c0.55-0.98,1.1-1.95,1.64-2.93c0.31-0.57,0.62-1.15,0.93-1.72c0.49-0.9,0.97-1.8,1.44-2.71c0.32-0.61,0.64-1.22,0.95-1.84 c0.45-0.88,0.9-1.75,1.35-2.64c0.32-0.63,0.63-1.26,0.94-1.88c0.43-0.88,0.86-1.76,1.29-2.64c0.3-0.63,0.6-1.26,0.9-1.89 c0.43-0.9,0.84-1.8,1.26-2.71c0.28-0.61,0.56-1.22,0.84-1.83c0.44-0.96,0.86-1.93,1.28-2.89c0.24-0.56,0.49-1.11,0.73-1.67 c0.5-1.16,0.99-2.32,1.47-3.49c0.15-0.37,0.31-0.73,0.46-1.1c0.63-1.53,1.25-3.07,1.85-4.61c0.15-0.39,0.3-0.79,0.45-1.18 c0.44-1.15,0.89-2.3,1.32-3.46c0.21-0.57,0.42-1.15,0.63-1.73c0.36-0.98,0.71-1.96,1.06-2.94c0.22-0.63,0.44-1.27,0.66-1.9 c0.32-0.93,0.64-1.87,0.95-2.8c0.22-0.65,0.43-1.31,0.65-1.97c0.3-0.92,0.6-1.85,0.89-2.77c0.21-0.66,0.42-1.32,0.62-1.99 c0.29-0.93,0.57-1.86,0.84-2.8c0.19-0.65,0.39-1.31,0.58-1.97c0.28-0.97,0.55-1.94,0.82-2.91c0.17-0.62,0.35-1.24,0.51-1.86 c0.29-1.07,0.57-2.15,0.85-3.22c0.13-0.52,0.27-1.04,0.4-1.56c0.4-1.59,0.79-3.19,1.17-4.79c0.01-0.06,0.03-0.12,0.04-0.18 c0.36-1.54,0.71-3.09,1.04-4.64c0.12-0.54,0.22-1.07,0.34-1.61c0.23-1.07,0.45-2.15,0.67-3.22c0.13-0.63,0.24-1.26,0.36-1.89 c0.19-0.99,0.38-1.97,0.56-2.96c0.12-0.67,0.24-1.34,0.35-2.01c0.17-0.96,0.33-1.91,0.49-2.87c0.11-0.68,0.22-1.37,0.33-2.05 c0.15-0.95,0.29-1.91,0.44-2.86c0.1-0.68,0.2-1.36,0.29-2.03c0.14-0.98,0.27-1.95,0.39-2.93c0.09-0.66,0.17-1.31,0.25-1.97 c0.13-1.03,0.24-2.07,0.36-3.1c0.07-0.6,0.14-1.19,0.2-1.79c0.13-1.24,0.25-2.49,0.37-3.73c0.04-0.39,0.08-0.78,0.11-1.16 c0.15-1.63,0.28-3.27,0.39-4.9c0.03-0.42,0.05-0.84,0.08-1.26c0.08-1.22,0.16-2.43,0.23-3.65c0.03-0.61,0.06-1.21,0.09-1.82 c0.05-1.03,0.1-2.07,0.14-3.1c0.03-0.66,0.04-1.33,0.07-1.99c0.03-0.98,0.06-1.96,0.08-2.95c0.01-0.68,0.03-1.37,0.04-2.05 c0.01-0.97,0.02-1.93,0.03-2.9c0-0.69,0-1.38,0-2.06c0-0.97-0.01-1.94-0.02-2.92c-0.01-0.68-0.02-1.36-0.03-2.04 c-0.02-1-0.05-2.01-0.08-3.01c-0.02-0.64-0.03-1.28-0.06-1.92c-0.04-1.11-0.09-2.22-0.14-3.34c-0.03-0.53-0.04-1.06-0.07-1.59 c-0.09-1.64-0.19-3.28-0.3-4.92c-0.01-0.08-0.01-0.17-0.02-0.25c-0.11-1.56-0.23-3.11-0.37-4.67c-0.05-0.55-0.1-1.1-0.15-1.65 c-0.1-1.09-0.2-2.18-0.32-3.27c-0.07-0.64-0.14-1.29-0.21-1.93c-0.11-0.99-0.22-1.99-0.34-2.98c-0.08-0.68-0.17-1.35-0.26-2.03 c-0.12-0.96-0.25-1.93-0.38-2.89c-0.09-0.69-0.19-1.37-0.29-2.06c-0.14-0.96-0.28-1.92-0.43-2.87c-0.11-0.68-0.21-1.36-0.32-2.04 c-0.16-0.98-0.33-1.95-0.49-2.92c-0.11-0.66-0.23-1.31-0.34-1.97c-0.04-0.24-0.08-0.47-0.12-0.71 c-4.06-22.23,3.88-44.96,20.89-59.86l74.41-65.17l301.27,343.97c0.17,0.2,0.35,0.38,0.53,0.57c0.22,0.25,0.45,0.49,0.68,0.74 c0.4,0.42,0.81,0.83,1.22,1.23c0.19,0.19,0.38,0.38,0.58,0.56c0.56,0.52,1.13,1.03,1.71,1.52c0.06,0.05,0.12,0.11,0.18,0.16 c1.42,1.18,2.89,2.25,4.42,3.22c0,0,0,0,0.01,0c0.75,0.48,1.52,0.93,2.29,1.35c0.07,0.04,0.14,0.08,0.22,0.12 c0.74,0.4,1.49,0.78,2.25,1.14c0.07,0.03,0.13,0.06,0.2,0.09c0.98,0.45,1.97,0.88,2.97,1.25l309.98,120.78 c5.08,1.98,10.39,2.95,15.66,2.95c10.29,0,20.44-3.68,28.45-10.7c12.11-10.61,17.31-27.07,13.49-42.7l-79-323.67 c-0.04-0.15-0.09-0.3-0.13-0.45c-0.16-0.62-0.33-1.23-0.51-1.84c-0.08-0.26-0.16-0.52-0.24-0.77c-0.2-0.63-0.42-1.25-0.65-1.86 c-0.07-0.18-0.13-0.36-0.2-0.53c-0.3-0.76-0.62-1.52-0.96-2.27c-0.1-0.22-0.21-0.43-0.31-0.64c-0.26-0.54-0.53-1.08-0.81-1.61 c-0.13-0.25-0.27-0.5-0.41-0.75c-0.29-0.53-0.6-1.05-0.92-1.56c-0.12-0.2-0.24-0.4-0.36-0.6c-0.44-0.69-0.9-1.38-1.38-2.04 c-0.1-0.14-0.2-0.26-0.3-0.4c-0.39-0.54-0.8-1.06-1.22-1.58c-0.17-0.21-0.35-0.42-0.53-0.63c-0.18-0.21-0.35-0.43-0.54-0.64 l-301.27-343.97l74.41-65.17c17-14.89,40.58-19.78,62.09-12.82c0.23,0.07,0.46,0.14,0.69,0.22c0.63,0.2,1.26,0.4,1.9,0.6 c0.95,0.3,1.89,0.59,2.84,0.88c0.66,0.2,1.32,0.39,1.97,0.59c0.93,0.27,1.87,0.55,2.8,0.81c0.66,0.19,1.33,0.38,1.99,0.56 c0.94,0.26,1.88,0.51,2.82,0.76c0.66,0.17,1.32,0.35,1.98,0.52c0.97,0.25,1.94,0.49,2.92,0.73c0.63,0.15,1.25,0.31,1.88,0.46 c1.07,0.26,2.14,0.5,3.21,0.75c0.53,0.12,1.06,0.25,1.6,0.37c1.52,0.34,3.05,0.66,4.57,0.98c0.08,0.02,0.17,0.04,0.25,0.05 c1.61,0.33,3.22,0.64,4.84,0.94c0.52,0.1,1.04,0.19,1.56,0.28c1.1,0.2,2.2,0.4,3.29,0.58c0.63,0.11,1.25,0.21,1.88,0.31 c1,0.16,1.99,0.32,2.99,0.48c0.67,0.1,1.34,0.2,2,0.3c0.96,0.14,1.93,0.28,2.89,0.41c0.68,0.09,1.36,0.18,2.05,0.27 c0.96,0.12,1.92,0.24,2.88,0.35c0.68,0.08,1.36,0.16,2.04,0.24c0.98,0.11,1.95,0.21,2.93,0.31c0.66,0.07,1.32,0.13,1.98,0.2 c1.03,0.1,2.06,0.18,3.09,0.27c0.6,0.05,1.21,0.1,1.81,0.15c1.22,0.09,2.43,0.18,3.65,0.25c0.42,0.03,0.84,0.06,1.26,0.09 c1.64,0.1,3.28,0.18,4.92,0.26c0.38,0.02,0.76,0.03,1.14,0.04c1.26,0.05,2.52,0.1,3.78,0.13c0.6,0.02,1.19,0.02,1.79,0.04 c1.04,0.02,2.09,0.04,3.14,0.05c0.66,0.01,1.32,0.01,1.99,0.01c0.99,0,1.97,0,2.95,0c0.68,0,1.37-0.01,2.05-0.02 c0.97-0.01,1.94-0.03,2.9-0.05c0.69-0.02,1.38-0.03,2.06-0.06c0.97-0.03,1.94-0.07,2.92-0.11c0.68-0.03,1.35-0.05,2.03-0.09 c1-0.05,2.01-0.1,3.01-0.16c0.64-0.04,1.28-0.07,1.92-0.11c1.1-0.07,2.19-0.15,3.28-0.24c0.55-0.04,1.09-0.08,1.64-0.12 c1.58-0.13,3.16-0.27,4.74-0.42c0.06-0.01,0.11-0.01,0.17-0.02c1.64-0.16,3.27-0.34,4.91-0.53c0.53-0.06,1.05-0.13,1.58-0.19 c1.11-0.13,2.22-0.27,3.32-0.42c0.64-0.08,1.27-0.18,1.9-0.26c1-0.14,2-0.28,3-0.43c0.67-0.1,1.34-0.21,2.01-0.31 c0.96-0.15,1.93-0.31,2.89-0.47c0.68-0.11,1.37-0.23,2.05-0.35c0.96-0.17,1.91-0.34,2.87-0.52c0.68-0.13,1.36-0.25,2.03-0.38 c0.97-0.19,1.94-0.38,2.91-0.58c0.66-0.13,1.31-0.27,1.97-0.4c1.02-0.21,2.04-0.44,3.06-0.66c0.6-0.13,1.19-0.26,1.79-0.4 c1.21-0.28,2.41-0.56,3.62-0.85c0.4-0.1,0.81-0.19,1.21-0.29c1.61-0.4,3.21-0.81,4.82-1.23c0.38-0.1,0.76-0.21,1.14-0.31 c1.22-0.33,2.44-0.66,3.66-1c0.58-0.16,1.16-0.34,1.74-0.51c1.02-0.29,2.03-0.59,3.04-0.89c0.64-0.19,1.28-0.39,1.92-0.59 c0.95-0.29,1.91-0.59,2.86-0.9c0.66-0.21,1.32-0.43,1.99-0.65c0.93-0.31,1.86-0.61,2.79-0.93c0.66-0.23,1.33-0.45,1.99-0.68 c0.93-0.32,1.86-0.65,2.79-0.99c0.65-0.23,1.3-0.47,1.95-0.7c0.96-0.35,1.91-0.71,2.86-1.07c0.61-0.23,1.23-0.46,1.84-0.7 c1.05-0.4,2.09-0.82,3.14-1.24c0.51-0.21,1.03-0.41,1.54-0.61c1.52-0.62,3.04-1.25,4.56-1.9c0.03-0.01,0.06-0.02,0.08-0.04 c1.54-0.66,3.08-1.34,4.62-2.02c0.5-0.22,1-0.46,1.5-0.68c1.03-0.47,2.07-0.94,3.09-1.42c0.59-0.28,1.19-0.57,1.78-0.85 c0.93-0.45,1.86-0.89,2.79-1.35c0.63-0.31,1.25-0.62,1.87-0.93c0.9-0.45,1.79-0.9,2.68-1.36c0.63-0.32,1.27-0.65,1.9-0.98 c0.88-0.46,1.77-0.93,2.65-1.4c0.63-0.33,1.25-0.67,1.87-1.01c0.89-0.49,1.79-0.98,2.68-1.48c0.6-0.33,1.2-0.67,1.8-1.01 c0.94-0.53,1.87-1.07,2.8-1.62c0.55-0.32,1.09-0.63,1.64-0.95c1.1-0.65,2.2-1.32,3.3-1.99c0.36-0.22,0.73-0.44,1.09-0.66 c1.46-0.9,2.91-1.81,4.36-2.74c0.35-0.23,0.71-0.46,1.06-0.69c1.09-0.7,2.18-1.41,3.26-2.13c0.53-0.35,1.05-0.71,1.58-1.06 c0.91-0.61,1.81-1.22,2.71-1.85c0.58-0.4,1.15-0.8,1.72-1.2c0.85-0.6,1.69-1.19,2.54-1.8c0.59-0.42,1.18-0.85,1.76-1.28 c0.82-0.6,1.65-1.21,2.47-1.82c0.59-0.44,1.17-0.88,1.76-1.32c0.82-0.62,1.64-1.25,2.46-1.88c0.57-0.44,1.14-0.88,1.71-1.33 c0.84-0.66,1.68-1.33,2.51-2c0.53-0.43,1.07-0.86,1.6-1.29c0.91-0.75,1.82-1.5,2.73-2.26c0.45-0.37,0.89-0.74,1.34-1.11 c1.35-1.14,2.69-2.29,4.02-3.45c8.8-7.7,17.02-15.82,24.66-24.29c2.18-2.42,4.32-4.87,6.41-7.35c2.09-2.48,4.13-4.98,6.13-7.52 c1.39-1.76,2.75-3.55,4.09-5.34c6.37-8.48,12.24-17.25,17.57-26.25c1.62-2.73,3.18-5.47,4.7-8.24c1.52-2.77,2.99-5.55,4.42-8.36 c1.43-2.81,2.8-5.63,4.13-8.48c1.33-2.84,2.61-5.71,3.84-8.58c3.08-7.2,5.87-14.5,8.35-21.88c0.99-2.95,1.94-5.92,2.84-8.9 c0.8-2.67,1.56-5.36,2.29-8.05c4.94-18.31,8.09-37.03,9.42-55.87c0.11-1.57,0.21-3.15,0.29-4.73c0.16-3.01,0.28-6.02,0.35-9.03 c0-0.13,0.01-0.27,0.01-0.4c0.16-7.48,0.04-14.97-0.37-22.45C2667.13,2592.4,2667.11,2592.02,2667.09,2591.64z M1417.91,2435.21 C1417.91,2435.21,1417.91,2435.21,1417.91,2435.21l6.31-5.52c20.17-17.66,45.18-26.33,70.09-26.33c29.64,0,59.14,12.28,80.16,36.27 l53.41,60.98l-166.5,145.83l-53.41-60.98C1369.28,2541.29,1373.74,2473.89,1417.91,2435.21z M1564.88,2670.54l677.86,762.42 l-52.33,45.83l-672.16-767.41L1564.88,2670.54z M2268.33,3525.31l124.43-108.98l42.47,174.01L2268.33,3525.31z M2307.68,3376.08 l-677.86-762.42l54.94-48.12l672.16,767.41L2307.68,3376.08z"/><path d="M3355.61,1468.72l-328.41-74.18l-88.42-213.46l179.77-284.68c13.82-21.89,10.64-50.44-7.67-68.75l-243.55-243.55 c-18.31-18.31-46.86-21.49-68.75-7.67L2513.9,756.19l-213.46-88.42l-74.18-328.41c-5.7-25.25-28.14-43.19-54.03-43.19h-344.44 c-25.89,0-48.33,17.93-54.03,43.19l-74.18,328.41l-213.46,88.42l-284.68-179.77c-21.89-13.82-50.44-10.64-68.75,7.67L889.12,827.65 c-18.31,18.31-21.49,46.85-7.67,68.75l179.77,284.68l-88.42,213.46l-328.41,74.18c-25.25,5.7-43.19,28.14-43.19,54.03v344.44 c0,25.89,17.93,48.33,43.19,54.03l328.41,74.18l88.42,213.46l-179.77,284.68c-13.82,21.89-10.64,50.44,7.67,68.75l243.55,243.55 c18.31,18.31,46.85,21.49,68.75,7.67l102.65-64.82c25.87-16.33,33.59-50.55,17.26-76.41c-16.34-25.87-50.55-33.59-76.41-17.26 l-65.21,41.18l-180.94-180.94l171.45-271.5c9.61-15.22,11.23-34.15,4.34-50.78l-110.38-266.49c-6.89-16.63-21.42-28.87-38.97-32.83 l-313.21-70.75v-255.88l313.21-70.75c17.55-3.96,32.09-16.21,38.97-32.83l110.38-266.49c6.89-16.63,5.27-35.56-4.34-50.77 l-171.45-271.5l180.94-180.94l271.5,171.45c15.22,9.61,34.15,11.23,50.77,4.34l266.49-110.38c16.63-6.89,28.87-21.42,32.83-38.97 l70.75-313.22h255.88l70.75,313.22c3.97,17.55,16.21,32.09,32.83,38.97l266.49,110.38c16.62,6.89,35.56,5.27,50.78-4.34 l271.5-171.45l180.94,180.94l-171.45,271.5c-9.61,15.21-11.23,34.15-4.34,50.77l110.38,266.49c6.89,16.62,21.42,28.87,38.97,32.83 l313.22,70.75v255.88l-313.22,70.75c-17.55,3.97-32.08,16.21-38.97,32.83l-110.38,266.49c-6.89,16.62-5.27,35.56,4.34,50.78 l171.45,271.5l-180.94,180.94l-36.97-23.35c-25.87-16.34-60.08-8.61-76.41,17.26c-16.34,25.87-8.61,60.08,17.26,76.41l74.41,46.99 c9.11,5.75,19.36,8.56,29.56,8.56c14.31,0,28.5-5.53,39.19-16.23l243.55-243.55c18.31-18.31,21.49-46.85,7.67-68.75l-179.77-284.68 l88.42-213.46l328.41-74.18c25.25-5.7,43.19-28.14,43.19-54.03v-344.44C3398.8,1496.86,3380.86,1474.42,3355.61,1468.72z"/><path d="M1755.51,2273.66c77.47,32.77,159.73,49.38,244.49,49.38c84.77,0,167.02-16.61,244.49-49.38 c74.8-31.64,141.96-76.91,199.62-134.58c57.66-57.66,102.94-124.83,134.58-199.62c32.77-77.47,49.38-159.73,49.38-244.49 s-16.61-167.02-49.38-244.49c-31.64-74.8-76.92-141.96-134.58-199.62c-57.66-57.66-124.83-102.94-199.62-134.58 c-77.47-32.77-159.73-49.38-244.49-49.38c-84.77,0-167.02,16.61-244.49,49.38c-74.8,31.64-141.96,76.92-199.62,134.58 c-57.66,57.66-102.94,124.83-134.58,199.62c-32.77,77.47-49.38,159.73-49.38,244.49s16.61,167.02,49.38,244.49 c31.64,74.8,76.92,141.96,134.58,199.62C1613.55,2196.75,1680.71,2242.03,1755.51,2273.66z M1634.22,1329.19 c97.7-97.7,227.6-151.51,365.78-151.51s268.07,53.81,365.78,151.51c97.7,97.7,151.51,227.6,151.51,365.78 s-53.81,268.07-151.51,365.78c-97.7,97.7-227.6,151.51-365.78,151.51s-268.08-53.81-365.78-151.51 c-97.7-97.7-151.51-227.6-151.51-365.78S1536.52,1426.9,1634.22,1329.19z"/></g></svg>