<?xml version="1.0" encoding="UTF-8" standalone="no"?><svg xmlns="http://www.w3.org/2000/svg" xmlns:xlink="http://www.w3.org/1999/xlink" fill="#ffffff" height="510" preserveAspectRatio="xMidYMid meet" version="1" viewBox="1.0 1.0 510.0 510.0" width="510" zoomAndPan="magnify"><g><g id="change1_1"><path d="M456.08,1H55.92C25.637,1,1,25.637,1,55.92v320.16C1,406.363,25.637,431,55.92,431H206v20h-10c-27.57,0-50,22.43-50,50 c0,5.522,4.477,10,10,10h200c5.522,0,10-4.478,10-10c0-27.57-22.43-50-50-50h-10v-20h150.08c30.283,0,54.92-24.637,54.92-54.92 V55.92C511,25.637,486.363,1,456.08,1z M55.92,21h400.16C475.335,21,491,36.665,491,55.92V331H21V55.92 C21,36.665,36.665,21,55.92,21z M344.286,491H167.714c4.127-11.641,15.249-20,28.286-20h120 C329.037,471,340.159,479.359,344.286,491z M286,451h-60v-20h60V451z M456.08,411H55.92C36.665,411,21,395.335,21,376.08V351h470 v25.08C491,395.335,475.335,411,456.08,411z"/><path d="M146,161c18.062,0,32.203-15.969,29.713-34.099l30.826-33.097c9.612,8.215,22.965,9.348,33.587,3.653l36.082,30.066 C274.123,145.479,288.218,161,306,161c16.541,0,29.998-13.456,30-29.997l33.423-15.015C374.176,119.151,379.875,121,386,121 c16.542,0,30-13.458,30-30s-13.458-30-30-30c-19.938,0-34.488,19.259-28.756,38.534l-27.969,12.565 c-10.99-13.507-31.09-14.932-43.834-2.916l-31.808-26.504C262.008,62.937,247.401,41,226,41 c-18.194,0-32.376,16.202-29.672,34.423l-30.678,32.938C160.382,103.782,153.512,101,146,101c-16.542,0-30,13.458-30,30 S129.458,161,146,161z M386,81c5.514,0,10,4.486,10,10s-4.486,10-10,10s-10-4.486-10-10S380.486,81,386,81z M306,121 c5.514,0,10,4.486,10,10s-4.486,10-10,10s-10-4.486-10-10S300.486,121,306,121z M226,61c5.514,0,10,4.486,10,10s-4.486,10-10,10 s-10-4.486-10-10S220.486,61,226,61z M146,121c5.514,0,10,4.486,10,10s-4.486,10-10,10c-5.514,0-10-4.486-10-10 S140.486,121,146,121z"/><path d="M86,311c3.106,0,331.943,0,340,0c5.522,0,10-4.478,10-10s-4.478-10-10-10h-10V151c0-5.523-4.478-10-10-10h-40 c-5.522,0-10,4.477-10,10v140h-20v-80c0-5.523-4.478-10-10-10h-40c-5.522,0-10,4.477-10,10v80h-20V151c0-5.523-4.477-10-10-10h-40 c-5.523,0-10,4.477-10,10v140h-20v-90c0-5.523-4.478-10-10-10h-40c-5.523,0-10,4.477-10,10v90H86c-5.523,0-10,4.478-10,10 S80.477,311,86,311z M376,161h20v130h-20V161z M296,221h20v70h-20V221z M216,161h20v130h-20V161z M136,211h20v80h-20V211z"/><circle cx="461" cy="381" r="10"/><path d="M421,371h-20c-5.522,0-10,4.478-10,10s4.478,10,10,10h20c5.522,0,10-4.478,10-10S426.522,371,421,371z"/><path d="M361,371h-20c-5.522,0-10,4.478-10,10s4.478,10,10,10h20c5.522,0,10-4.478,10-10S366.522,371,361,371z"/></g></g></svg>