<?xml version="1.0" encoding="UTF-8" standalone="no"?><svg xmlns="http://www.w3.org/2000/svg" xmlns:xlink="http://www.w3.org/1999/xlink" fill="#03fe03" height="81.2" preserveAspectRatio="xMidYMid meet" version="1" viewBox="0.0 0.0 293.8 81.2" width="293.8" zoomAndPan="magnify"><g id="change1_1"><path d="M0 0H293.8V81.2H0z" fill="#060b0f"/></g><g id="change2_1"><path d="M281.2 6.3L12.5 6.3 6.2 6.3 6.2 12.5 6.2 75 12.5 75 12.5 12.5 281.2 12.5z" fill="#e76ce9"/></g><g id="change3_1"><path d="M12.5 75L281.2 75 287.5 75 287.5 68.8 287.5 6.3 281.2 6.3 281.2 68.8 12.5 68.8z" opacity="0.3"/></g><g id="change3_2"><path d="M287.5,0H6.3H0v6.2V75v6.2h6.2h281.2h6.2V75V6.2V0H287.5z M287.5,75H6.3V6.2h281.2V75z M128.2,30.6h-8.6v-2.9h8.6V30.6z M128.2,33.4v-2.9h2.9v2.9H128.2z M119.5,30.6v8.6h-2.9v-8.6H119.5z M119.5,47.8v2.9h-2.9v-2.9H119.5z M128.2,39.2v2.9h-8.6v-2.9 H128.2z M131,50.7h-2.9v-8.6h2.9V50.7z M119.5,53.6v-2.9h8.6v2.9H119.5z M137.5,50.7h-2.9V30.6h2.9v5.8h2.9v2.9h-2.9V50.7z M137.5,53.6v-2.9h2.9v2.9H137.5z M155.5,44.9h-8.6v-2.9h8.6v-2.9h2.9v14.4h-11.5v-2.9h8.6V44.9z M155.5,36.3v2.9h-8.6v-2.9H155.5z M146.9,50.7H144v-5.8h2.9V50.7z M164.9,53.6H162V36.3h5.8v2.9h-2.9V53.6z M174.2,50.7h-2.9V30.6h2.9v5.8h2.9v2.9h-2.9V50.7z M174.2,53.6v-2.9h2.9v2.9H174.2z"/></g></svg>