<?xml version="1.0" encoding="UTF-8" standalone="no"?><svg xmlns="http://www.w3.org/2000/svg" xmlns:xlink="http://www.w3.org/1999/xlink" fill="#000000" height="1500" preserveAspectRatio="xMidYMid meet" version="1" viewBox="0.0 0.0 1477.4 1500.0" width="1477.4" zoomAndPan="magnify"><g id="change1_1"><path d="M1132.828,1500c-41.6207,0-75.4822-33.8615-75.4822-75.4822c0-41.6222,33.8615-75.4835,75.4822-75.4835 c41.6222,0,75.4836,33.8613,75.4836,75.4835C1208.3116,1466.1385,1174.4502,1500,1132.828,1500z M604.4296,1500 c-41.6222,0-75.4836-33.8615-75.4836-75.4822c0-41.6222,33.8614-75.4835,75.4836-75.4835c41.6208,0,75.4822,33.8613,75.4822,75.4835 C679.9117,1466.1385,646.0504,1500,604.4296,1500z M426.5017,1340.1331c-1.1243,0-2.0968-0.7827-2.3377-1.8807L160.2933,131.3732 H2.3918c-1.3215,0-2.3918-1.0703-2.3918-2.3918V78.144c0-1.3215,1.0703-2.3918,2.3918-2.3918H203.145 c1.1243,0,2.0968,0.7827,2.3377,1.8807l84.7674,387.7094h113.0334c1.3214,0,2.3918,1.0703,2.3918,2.3918v55.2733l137.868,17.5542 c0.9944,0.1255,1.8033,0.8586,2.0281,1.8354c8.25,35.761,22.3699,69.6984,41.9712,100.8702 c0.5344,0.8498,0.4819,1.9435-0.1329,2.7378l-85.1674,110.059l78.1309,78.1017l109.9758-85.1602 c0.4293-0.3329,0.9462-0.5009,1.4645-0.5009c0.4395,0,0.8805,0.1198,1.2703,0.3651c31.2068,19.5692,65.1748,33.676,100.9578,41.9318 c0.9768,0.2249,1.7098,1.0353,1.8354,2.0282l17.5265,137.8549h110.5058l17.5308-137.8549c0.1256-0.9944,0.8586-1.8033,1.8354-2.0282 c35.7319-8.2427,69.6809-22.3508,100.9008-41.9318c0.3914-0.2453,0.8323-0.3651,1.2719-0.3651c0.5183,0,1.0353,0.168,1.4646,0.4994 l110.0181,85.1689l78.1396-78.1396l-85.166-109.9656c-0.6147-0.7929-0.6687-1.8851-0.1357-2.7349 c19.5663-31.2039,33.6744-65.1689,41.9318-100.9548c0.2249-0.9769,1.0353-1.7099,2.0282-1.8354l137.8549-17.5294v-55.2792 c0-1.3215,1.0703-2.3918,2.3917-2.3918h140.9666c0.7242,0,1.4091,0.3271,1.8632,0.8922c0.4541,0.5636,0.6278,1.3025,0.4745,2.0107 l-153.413,701.6377c-0.241,1.098-1.2134,1.8806-2.3378,1.8806H444.7013l24.6521,112.7488h820.9454 c1.3214,0,2.3917,1.0702,2.3917,2.3917v50.8373c0,1.3215-1.0703,2.3918-2.3917,2.3918H426.5017z M868.658,652.2809 c-101.774,0-184.5716-82.7757-184.5716-184.5205c0-1.3215,1.0703-2.4181,2.3918-2.4181h364.3086 c1.3214,0,2.3917,1.0703,2.3917,2.3918C1053.1799,569.5052,970.4042,652.2809,868.658,652.2809z" fill="#ffffff"/></g><g id="change1_2"><path d="M1321.5293,1169.3715H441.7302l25.6976,117.5322h822.8714v50.8373H426.5021L162.2197,128.9812H2.3921 V78.1438h200.7533l85.1792,389.59h114.9594v57.3804l139.9575,17.8199c8.4238,36.5189,22.8649,70.7352,42.2764,101.6061 L499.061,756.2668l81.1111,81.0804l111.6419-86.4509c0,0,0,0,0.0015,0c30.8797,19.3648,65.1587,33.8088,101.6893,42.2355 l17.7922,139.9444h114.7199l17.7966-139.9444c36.5306-8.4266,70.7585-22.8707,101.6353-42.2355l111.6842,86.4583l81.1199-81.1199 L1151.796,644.603c19.3633-30.8782,33.8074-65.1587,42.2355-101.6879l139.9443-17.7951v-57.3862h140.9666L1321.5293,1169.3715z M686.4785,467.7601c0,100.4321,81.7463,182.1288,182.1799,182.1288c100.4351,0,182.1302-81.6967,182.1302-182.1288 c0-0.0088-0.0015-0.0175-0.0015-0.0263H686.4785C686.4785,467.7426,686.4785,467.7513,686.4785,467.7601z M604.4299,1351.4258 c-40.3679,0-73.0919,32.7239-73.0919,73.0918c0,40.3665,32.7239,73.0905,73.0919,73.0905c40.3665,0,73.0904-32.724,73.0904-73.0905 C677.5203,1384.1497,644.7964,1351.4258,604.4299,1351.4258z M1132.8284,1351.4258c-40.3665,0-73.0905,32.7239-73.0905,73.0918 c0,40.3665,32.724,73.0905,73.0905,73.0905c40.3679,0,73.0918-32.724,73.0918-73.0905 C1205.9202,1384.1497,1173.1963,1351.4258,1132.8284,1351.4258z" fill="#ffffff"/></g><g id="change2_1"><path d="M811.2966,935.4682c-1.2047,0-2.2209-0.8951-2.3728-2.0895l-17.5834-138.2944 c-35.1668-8.2967-68.5843-22.1757-99.3779-41.2762l-110.3262,85.4303c-0.4337,0.3359-0.9491,0.5009-1.4645,0.5009 c-0.6147,0-1.2266-0.2365-1.6909-0.6994l-81.1111-81.0804c-0.8528-0.8513-0.9389-2.2034-0.2015-3.1569l85.4361-110.408 c-19.1297-30.7599-33.0233-64.1526-41.3156-99.2975l-138.3075-17.6097c-1.1944-0.1519-2.0895-1.1682-2.0895-2.3727V410.4311 c0-1.2047,0.8951-2.2209,2.0895-2.3728l138.3017-17.6097c8.3026-35.2018,22.1946-68.612,41.3127-99.3603L497.1682,180.689 c-0.7374-0.9535-0.6512-2.3056,0.2015-3.1569l81.1111-81.079c0.4629-0.4629,1.0762-0.6994,1.6909-0.6994 c0.5154,0,1.0309,0.165,1.4645,0.5008l110.3423,85.4449c30.7484-19.1166,64.1629-33.0101,99.3618-41.3156L808.9238,2.0895 C809.0756,0.8951,810.0919,0,811.2966,0h114.7199c1.2047,0,2.2209,0.8951,2.3728,2.0895l17.5878,138.2944 c35.1566,8.2952,68.558,22.1931,99.3253,41.3273l110.3656-85.4887c0.4337-0.3358,0.9491-0.5008,1.4646-0.5008 c0.6147,0,1.228,0.2365,1.6924,0.6994l81.1199,81.1199c0.8512,0.8527,0.9359,2.2049,0.2,3.1569l-85.4376,110.3671 c19.0977,30.7921,32.9766,64.2096,41.2762,99.3793l138.2943,17.636c1.1945,0.1519,2.0895,1.1682,2.0895,2.3728v114.6673 c0,1.2047-0.895,2.2209-2.0895,2.3728l-138.2943,17.5863c-8.2997,35.1683-22.1786,68.5843-41.2762,99.3764l85.4362,110.3146 c0.7374,0.952,0.6527,2.3041-0.1985,3.1569l-81.1199,81.1199c-0.4644,0.4628-1.0776,0.6994-1.6924,0.6994 c-0.5155,0-1.0309-0.165-1.4646-0.4994l-110.3671-85.4391c-30.8082,19.1108-64.2067,32.9897-99.3239,41.2762l-17.5878,138.2944 c-0.1519,1.1944-1.1682,2.0895-2.3728,2.0895H811.2966z M868.658,287.9708c-99.1208,0-179.7735,80.6424-179.7881,179.7633 c0,99.134,80.6526,179.7633,179.7881,179.7633c99.1078,0,179.7385-80.6293,179.7385-179.737 C1048.3804,368.6132,967.7511,287.9708,868.658,287.9708z" fill="#ffffff"/></g><g id="change2_2"><path d="M543.2414,542.9341c8.4238,36.5189,22.8649,70.7352,42.2764,101.6061L499.061,756.2668l81.1111,81.0804 l111.6419-86.4509c0,0,0,0,0.0015,0c30.8797,19.3648,65.1587,33.8088,101.6893,42.2355l17.7922,139.9444h114.7199l17.7966-139.9444 c36.5306-8.4266,70.7585-22.8707,101.6353-42.2355l111.6842,86.4583l81.1199-81.1199L1151.796,644.603 c19.3633-30.8782,33.8074-65.1587,42.2355-101.6879l139.9443-17.7951v-57.3862v-57.2811l-139.9443-17.8462 c-8.4281-36.5306-22.8722-70.8111-42.2355-101.6893l86.4568-111.6842l-81.1199-81.1199l-111.6842,86.5108 c-30.8768-19.4159-65.1047-33.8614-101.6353-42.288L926.0168,2.3915H811.2969l-17.7922,139.9444 c-36.5247,8.4252-70.7964,22.8663-101.6718,42.2764l-111.6609-86.467l-81.1111,81.079L585.509,290.942 c-19.4086,30.8724-33.8497,65.1441-42.2734,101.6645c0,0.0015,0,0.0029,0,0.0044l-139.9517,17.8199v57.303v57.3804 L543.2414,542.9341z M868.6583,285.5788c100.4263,0,182.1141,81.7361,182.1288,182.155c0,0.0088,0.0015,0.0175,0.0015,0.0263 c0,100.4321-81.6952,182.1288-182.1302,182.1288c-100.4336,0-182.1799-81.6967-182.1799-182.1288c0-0.0088,0-0.0175,0-0.0263 C686.4931,367.3148,768.2335,285.5788,868.6583,285.5788z" fill="#ffffff"/></g></svg>