<?xml version="1.0" encoding="UTF-8" standalone="no"?><svg xmlns="http://www.w3.org/2000/svg" xmlns:xlink="http://www.w3.org/1999/xlink" fill="#000000" height="1915" preserveAspectRatio="xMidYMid meet" version="1" viewBox="245.3 268.8 1962.0 1915.0" width="1962" zoomAndPan="magnify"><g fill="#ffffff" id="change1_1"><path d="M 1667.109375 779.621094 C 1664.320312 779.621094 1660.351562 782.976562 1656.363281 788.589844 L 1651.816406 794.96875 L 1653.964844 787.5 C 1656.542969 778.5 1657.695312 770.964844 1657.695312 763.761719 C 1657.695312 696.058594 1608.042969 640.96875 1547.070312 640.96875 C 1486 640.96875 1436.324219 696.058594 1436.324219 763.761719 C 1436.324219 770.996094 1437.558594 778.5 1440.070312 787.5 L 1442.214844 794.96875 L 1437.722656 788.625 C 1433.789062 782.976562 1429.675781 779.621094 1426.933594 779.621094 C 1426.789062 779.621094 1426.585938 779.6875 1426.277344 779.953125 C 1423.355469 783.054688 1422.855469 798.335938 1424.742188 825.410156 C 1426.421875 849.082031 1440.746094 871.265625 1448.726562 871.265625 C 1449.449219 871.230469 1450.015625 871.03125 1450.527344 870.621094 L 1452.261719 869.296875 L 1452.683594 871.398438 C 1462.894531 924.523438 1501.683594 961.585938 1547.070312 961.585938 C 1592.382812 961.585938 1631.214844 924.523438 1641.359375 871.398438 L 1641.769531 869.296875 L 1643.492188 870.621094 C 1644.039062 871.03125 1644.617188 871.230469 1645.570312 871.265625 C 1653.273438 871.265625 1667.644531 849.082031 1669.277344 825.410156 C 1671.144531 798.335938 1670.667969 783.054688 1667.742188 779.953125 C 1667.476562 779.6875 1667.234375 779.621094 1667.109375 779.621094"/><path d="M 1654.910156 976.121094 L 1653.691406 977.917969 L 1649.476562 976.121094 L 1572.574219 1091.238281 L 1572.066406 1087.265625 L 1563.027344 1018.238281 L 1579.460938 972.828125 L 1581.234375 967.894531 C 1570.535156 972.550781 1559.011719 975.101562 1547.070312 975.101562 C 1535.039062 975.101562 1523.527344 972.550781 1512.828125 967.894531 L 1514.558594 972.828125 L 1531.035156 1018.238281 L 1521.832031 1087.84375 L 1448.191406 976.898438 L 1445.738281 977.917969 L 1444.585938 976.121094 L 1299.375 1038.175781 L 1290.894531 1094.5625 C 1346.925781 1175.203125 1440.792969 1228.253906 1547.070312 1228.253906 C 1656.140625 1228.253906 1752.085938 1172.242188 1807.507812 1087.898438 L 1800.023438 1038.175781 L 1654.910156 976.121094"/><path d="M 1547.0625 1254.851562 C 1360.695312 1254.851562 1209.539062 1105.53125 1209.539062 921.265625 C 1209.539062 737.0625 1360.695312 587.671875 1547.0625 587.671875 C 1733.433594 587.671875 1884.570312 737.0625 1884.570312 921.265625 C 1884.570312 1105.53125 1733.433594 1254.851562 1547.0625 1254.851562 Z M 2207.25 987.292969 L 2207.25 811.554688 L 2061.691406 811.554688 C 2054.8125 779.988281 2045.15625 749.425781 2032.792969 720.285156 L 2152.160156 652.171875 L 2063.304688 499.964844 L 1936.625 572.207031 C 1914.996094 548.675781 1891.285156 527.117188 1865.707031 507.777344 L 1934.945312 389.144531 L 1780.992188 301.300781 L 1708.167969 425.921875 C 1677.875 416.238281 1646.253906 409.453125 1613.851562 405.40625 L 1613.851562 268.757812 L 1435.996094 268.757812 L 1435.996094 412.636719 C 1404.09375 419.394531 1373.191406 428.875 1343.667969 441.167969 L 1274.71875 323.167969 L 1120.75 411.078125 L 1193.878906 536.242188 C 1170.070312 557.679688 1148.199219 581.011719 1128.699219 606.359375 L 1008.660156 537.910156 L 919.765625 690.085938 L 1045.820312 762.019531 C 1036.03125 792.054688 1029.238281 823.199219 1025.058594 855.292969 L 886.851562 855.292969 L 886.851562 1031.003906 L 1032.371094 1031.003906 C 1039.230469 1062.664062 1048.878906 1093.171875 1061.269531 1122.339844 L 941.976562 1190.421875 L 1030.808594 1342.589844 L 1157.429688 1270.339844 C 1179.097656 1293.910156 1202.808594 1315.480469 1228.417969 1334.839844 L 1159.199219 1453.421875 L 1313.070312 1541.261719 L 1385.855469 1416.742188 C 1416.1875 1426.351562 1447.820312 1433.109375 1480.292969 1437.179688 L 1480.292969 1573.769531 L 1658.0625 1573.769531 L 1658.0625 1429.980469 C 1690.035156 1423.160156 1720.910156 1413.640625 1750.429688 1401.382812 L 1819.3125 1519.390625 L 1973.320312 1431.511719 L 1900.144531 1306.410156 C 1924.003906 1285.011719 1945.84375 1261.539062 1965.4375 1236.199219 L 2085.375 1304.679688 L 2174.300781 1152.511719 L 2048.285156 1080.632812 C 2058.023438 1050.597656 2064.859375 1019.320312 2069.003906 987.292969 L 2207.25 987.292969"/><path d="M 1020.960938 1842.679688 L 928.5625 1809.871094 L 928.359375 1809.398438 L 928.597656 1809.050781 L 916.503906 1782.699219 C 929.445312 1771.179688 939.945312 1755.21875 943.066406 1738.980469 L 943.304688 1737.761719 L 944.292969 1738.511719 C 944.59375 1738.78125 944.898438 1738.910156 945.476562 1738.910156 C 949.859375 1738.910156 948.976562 1735.238281 949.929688 1721.789062 C 950.980469 1706.371094 950.675781 1697.710938 948.976562 1695.980469 C 948.804688 1695.808594 948.707031 1695.78125 948.671875 1695.78125 C 947.074219 1695.78125 944.765625 1697.710938 942.488281 1700.898438 L 939.976562 1704.46875 L 941.199219 1700.261719 C 942.625 1695.128906 943.304688 1690.851562 943.304688 1686.738281 C 943.304688 1648.289062 915.078125 1616.96875 880.433594 1616.96875 C 845.785156 1616.96875 817.523438 1648.289062 817.523438 1686.738281 C 817.523438 1690.851562 818.238281 1695.128906 819.632812 1700.261719 L 820.855469 1704.511719 L 818.34375 1700.898438 C 816.0625 1697.710938 813.753906 1695.78125 812.226562 1695.78125 C 812.089844 1695.78125 811.988281 1695.808594 811.851562 1695.980469 C 810.152344 1697.710938 809.882812 1706.371094 810.96875 1721.789062 C 811.921875 1735.238281 811.039062 1738.910156 815.554688 1738.910156 C 815.964844 1738.910156 816.234375 1738.78125 816.539062 1738.511719 L 817.523438 1737.761719 L 817.765625 1738.980469 C 820.90625 1755.179688 831.386719 1771.179688 844.34375 1782.660156 L 832.472656 1808.578125 L 736.480469 1842.679688 L 728.871094 1874.070312 C 761.378906 1925.078125 818.390625 1957.558594 882.367188 1957.558594 C 896.226562 1957.558594 910.085938 1955.960938 923.671875 1952.839844 C 967.726562 1942.71875 1005.089844 1917 1030.871094 1880.761719 L 1020.960938 1842.679688"/><path d="M 929.753906 1978.75 C 817.425781 2004.53125 705.195312 1935.351562 679.109375 1824.308594 C 653.058594 1713.171875 723.0625 1602.261719 835.394531 1576.519531 C 947.855469 1550.800781 1060.121094 1619.960938 1086.140625 1731.03125 C 1112.191406 1842.070312 1042.179688 1953.039062 929.753906 1978.75 Z M 1261.398438 1934.460938 L 1293.5 1830.488281 L 1207.359375 1804.46875 C 1208.960938 1785.039062 1208.71875 1765.238281 1206.648438 1745.371094 L 1290.011719 1726.28125 L 1265.140625 1620.269531 L 1177.371094 1640.339844 C 1168.808594 1622.371094 1158.621094 1605.21875 1147.039062 1589.359375 L 1209.371094 1531.78125 L 1138.210938 1456.511719 L 1116.300781 1469.011719 L 1068.171875 1513.410156 C 1051.761719 1502.160156 1034.441406 1492.519531 1016.300781 1484.300781 L 1041.230469 1403.25 L 936.035156 1371.558594 L 909.746094 1456.679688 C 890.082031 1455.050781 870.039062 1455.359375 849.929688 1457.429688 L 830.566406 1375.03125 L 723.402344 1399.578125 L 743.75 1486.339844 C 725.472656 1494.789062 708.1875 1504.808594 692.152344 1516.289062 L 633.898438 1454.710938 L 553.5 1528.898438 L 615.253906 1594.28125 C 603.941406 1610.480469 594.089844 1627.640625 585.835938 1645.570312 L 503.871094 1620.851562 L 471.742188 1724.890625 L 557.882812 1750.898438 C 556.21875 1770.300781 556.59375 1790.03125 558.628906 1809.96875 L 475.308594 1829.058594 L 500.101562 1934.96875 L 587.875 1914.859375 C 596.46875 1932.96875 606.558594 1950.050781 618.238281 1965.980469 L 555.910156 2023.488281 L 630.910156 2102.941406 L 697.046875 2041.898438 C 713.417969 2053.070312 730.839844 2062.859375 749.015625 2070.941406 L 724.011719 2152.019531 L 829.210938 2183.75 L 855.5 2098.589844 C 875.132812 2100.191406 895.171875 2099.949219 915.28125 2097.878906 L 934.609375 2180.308594 L 1041.808594 2155.761719 L 1021.5 2069 C 1039.769531 2060.480469 1057.058594 2050.460938 1073.089844 2039.011719 L 1131.351562 2100.589844 L 1211.710938 2026.339844 L 1149.960938 1961.03125 C 1161.339844 1944.851562 1171.191406 1927.738281 1179.410156 1909.699219 L 1261.398438 1934.460938"/><path d="M 645.3125 1178.460938 L 586.449219 1157.570312 L 586.3125 1157.230469 L 578.667969 1140.109375 C 586.941406 1132.808594 593.683594 1122.75 595.652344 1112.390625 L 595.824219 1111.640625 L 596.4375 1112.121094 C 596.671875 1112.289062 596.84375 1112.390625 597.183594 1112.390625 C 599.964844 1112.390625 599.421875 1110.019531 600.035156 1101.421875 C 600.679688 1091.671875 600.511719 1086.140625 599.457031 1085.019531 C 599.320312 1084.910156 599.289062 1084.878906 599.222656 1084.878906 C 598.234375 1084.878906 596.773438 1086.070312 595.316406 1088.140625 L 593.71875 1090.449219 L 594.496094 1087.769531 C 595.382812 1084.46875 595.824219 1081.789062 595.824219 1079.140625 C 595.824219 1054.648438 577.855469 1034.671875 555.773438 1034.671875 C 533.664062 1034.671875 515.695312 1054.648438 515.695312 1079.140625 C 515.695312 1081.789062 516.136719 1084.46875 517.054688 1087.769531 L 517.800781 1090.449219 L 516.203125 1088.140625 C 514.742188 1086.070312 513.316406 1084.878906 512.296875 1084.878906 C 512.230469 1084.878906 512.125 1084.910156 512.125 1085.019531 C 511.007812 1086.140625 510.835938 1091.671875 511.550781 1101.421875 C 512.125 1110.019531 511.585938 1112.390625 514.4375 1112.390625 C 514.675781 1112.390625 514.914062 1112.289062 515.082031 1112.121094 L 515.695312 1111.640625 L 515.867188 1112.390625 C 517.867188 1122.75 524.609375 1132.769531 532.851562 1140.109375 L 525.203125 1156.75 L 464.066406 1178.460938 L 453.007812 1224.078125 C 474.085938 1250.230469 504.195312 1267.421875 538.691406 1272.140625 C 545.144531 1273.058594 551.460938 1273.5 557.746094 1273.5 C 598.015625 1273.460938 634.460938 1255.53125 658.015625 1227.339844 L 645.3125 1178.460938"/><path d="M 710.902344 1172.820312 C 699.457031 1254.070312 620.617188 1310.351562 534.953125 1298.5 C 449.253906 1286.679688 388.964844 1211.238281 400.546875 1129.949219 C 411.992188 1048.710938 490.828125 992.460938 576.5625 1004.308594 C 662.195312 1016.160156 722.484375 1091.609375 710.902344 1172.820312 Z M 855.261719 1222.480469 L 866.269531 1144.929688 L 799.285156 1135.691406 C 798.0625 1121.390625 795.515625 1107.269531 791.679688 1093.609375 L 850.816406 1071.191406 L 819.460938 998.398438 L 756.691406 1022.210938 C 748.230469 1010.488281 738.652344 999.449219 728.023438 989.328125 L 767.324219 941.371094 L 702.039062 892.859375 L 660.734375 943.210938 C 647.382812 936.988281 633.257812 931.988281 618.648438 928.191406 L 627.140625 867.929688 L 545.347656 856.589844 L 536.378906 920.039062 C 521.367188 920.988281 506.523438 923.199219 492.089844 926.761719 L 467.800781 870.378906 L 391.546875 899.320312 L 417.328125 959.171875 C 404.964844 967.050781 393.515625 976.050781 382.953125 985.929688 L 332.070312 948.089844 L 281.59375 1009.609375 L 335.160156 1049.308594 C 328.742188 1061.921875 323.714844 1075.230469 319.839844 1089.160156 L 256.21875 1080.328125 L 245.25 1157.808594 L 312.199219 1167.121094 C 313.386719 1181.449219 315.867188 1195.539062 319.738281 1209.199219 L 260.671875 1231.609375 L 291.988281 1304.339844 L 354.691406 1280.558594 C 363.316406 1292.320312 372.796875 1303.320312 383.429688 1313.511719 L 344.160156 1361.371094 L 409.410156 1409.871094 L 450.714844 1359.640625 C 464.03125 1365.789062 478.160156 1370.808594 492.902344 1374.648438 L 484.308594 1434.910156 L 566.066406 1446.191406 L 575.105469 1382.769531 C 590.183594 1381.78125 604.925781 1379.539062 619.328125 1376.039062 L 643.648438 1432.460938 L 719.90625 1403.421875 L 694.089844 1343.640625 C 706.421875 1335.691406 717.902344 1326.828125 728.5 1316.839844 L 779.378906 1354.648438 L 829.789062 1293.230469 L 776.289062 1253.488281 C 782.640625 1240.921875 787.804688 1227.511719 791.710938 1213.648438 L 855.261719 1222.480469"/></g></svg>