<?xml version="1.0" encoding="UTF-8" standalone="no"?><svg xmlns="http://www.w3.org/2000/svg" xmlns:xlink="http://www.w3.org/1999/xlink" fill="#ffffff" height="510" preserveAspectRatio="xMidYMid meet" version="1" viewBox="1.0 1.0 510.0 510.0" width="510" zoomAndPan="magnify"><g><g id="change1_1"><path d="M424.741,31H406V16c0-8.284-6.716-15-15-15s-15,6.716-15,15v15H136V16c0-8.284-6.716-15-15-15s-15,6.716-15,15v15H87.259 C39.695,31,1,69.695,1,117.259v307.482C1,472.305,39.695,511,87.259,511h337.482C472.305,511,511,472.305,511,424.741V117.259 C511,69.695,472.305,31,424.741,31z M481,424.741C481,455.763,455.763,481,424.741,481H87.259C56.237,481,31,455.763,31,424.741 V181h450V424.741z M481,151H31v-33.741C31,86.237,56.237,61,87.259,61H106v30c0,8.284,6.716,15,15,15s15-6.716,15-15V61h240v30 c0,8.284,6.716,15,15,15s15-6.716,15-15V61h18.741C455.763,61,481,86.237,481,117.259V151z"/><path d="M198.291,349.751l-8.485,49.474c-2.096,12.226,10.771,21.59,21.764,15.813L256,391.679l44.431,23.358 c11.016,5.79,23.856-3.609,21.764-15.813l-8.485-49.474l35.944-35.038c8.885-8.66,3.974-23.801-8.313-25.585l-49.675-7.218 l-22.215-45.013c-5.493-11.127-21.407-11.133-26.902,0l-22.215,45.013l-49.675,7.218c-12.28,1.783-17.203,16.919-8.313,25.585 L198.291,349.751z"/></g></g></svg>