<?xml version="1.0" encoding="UTF-8" standalone="no"?><svg xmlns="http://www.w3.org/2000/svg" xmlns:xlink="http://www.w3.org/1999/xlink" clip-rule="evenodd" fill="#000000" fill-rule="evenodd" height="153.1" image-rendering="optimizeQuality" preserveAspectRatio="xMidYMid meet" text-rendering="geometricPrecision" version="1" viewBox="11.6 10.2 150.2 153.1" width="150.2" zoomAndPan="magnify"><defs><linearGradient gradientUnits="userSpaceOnUse" id="a" x1="1.087" x2="172.311" xlink:actuate="onLoad" xlink:show="other" xlink:type="simple" y1="53.33" y2="120.068"><stop offset="0" stop-color="#ffffff"/><stop offset="0.502" stop-color="#ffffff"/><stop offset="1" stop-color="#ffffff"/></linearGradient></defs><g><path d="M86.573 12.8451c-5.259,0 -9.5357,4.2774 -9.5357,9.5343 0.0003,5.257 4.2764,9.5339 9.5354,9.5339 5.2558,-0.0002 9.5319,-4.2767 9.5319,-9.5339 0.0003,-5.2571 -4.2764,-9.5341 -9.5316,-9.5343zm-21.2772 46.8009l43.5611 0 0 -7.0135c0,-7.2031 -5.8604,-13.0636 -13.067,-13.0636l-0.5839 -0.0003c-2.2414,2.0015 -5.1087,3.098 -8.1298,3.098 -3.0243,-0.0002 -5.8883,-1.0962 -8.1297,-3.0977l-0.5872 -0.0003c-7.2034,0 -13.0637,5.8611 -13.0637,13.0642l0.0002 7.0132zm71.5135 3.2123c-5.2556,0 -9.532,4.2773 -9.532,9.5341 0.0001,5.2572 4.2764,9.5343 9.5319,9.5343 5.2591,0 9.5354,-4.277 9.5354,-9.5343 0,-5.2569 -4.2763,-9.534 -9.5353,-9.5341zm-101.228 -0.1278c-5.2591,0 -9.5356,4.2771 -9.5356,9.5339 0.0002,5.2569 4.2764,9.5344 9.5354,9.5344 5.2557,-0.0003 9.5354,-4.2772 9.5354,-9.5344 0.0002,-5.2568 -4.2799,-9.5339 -9.5352,-9.5339zm-21.2772 46.8005l43.5614 0 0 -7.0131c0,-7.2031 -5.8606,-13.0636 -13.0637,-13.0636l-0.5871 0c-2.2415,2.0015 -5.1055,3.0974 -8.1301,3.0974 -3.0209,-0.0003 -5.8884,-1.0959 -8.1297,-3.0974l-0.5873 0c-7.2031,0 -13.0637,5.8605 -13.0637,13.0639l0.0002 7.0128zm72.4264 4.2197c-5.259,0 -9.5357,4.2773 -9.5357,9.5346 0.0004,5.2571 4.2764,9.5339 9.5354,9.5339 5.2559,-0.0001 9.5319,-4.2767 9.5319,-9.5339 0.0003,-5.2575 -4.2764,-9.5344 -9.5316,-9.5346zm-21.2771 46.8009l43.5614 0 0 -7.0143c0,-7.2023 -5.8607,-13.0624 -13.0639,-13.0624l-0.5874 -0.0003c-2.2411,2.0015 -5.1086,3.0976 -8.1297,3.0976 -3.0243,-0.0002 -5.8884,-1.0958 -8.1298,-3.0973l-0.5871 -0.0003c-7.2031,0 -13.0638,5.8606 -13.0638,13.063l0.0003 7.014zm-27.2987 -102.708c-0.2655,0 -0.5315,-0.0783 -0.7659,-0.2417 -0.6081,-0.4247 -0.7587,-1.2616 -0.3321,-1.8696 7.3118,-10.4747 18.2421,-18.4267 30.7706,-22.3916 0.7101,-0.2247 1.4616,0.1682 1.6854,0.8749 0.2241,0.7069 -0.1678,1.4619 -0.8742,1.6854 -11.9688,3.7875 -22.4031,11.3764 -29.3825,21.3688 -0.2587,0.3735 -0.6782,0.5741 -1.1013,0.5738zm77.3811 51.8156l43.558 0 0 -7.0131c0,-7.2031 -5.8606,-13.0633 -13.0638,-13.0633l-0.5872 -0.0002c-2.2414,2.0015 -5.1053,3.0975 -8.1299,3.0975 -3.021,-0.0001 -5.8884,-1.0958 -8.1298,-3.0973l-0.5838 -0.0002c-7.2031,0 -13.0636,5.8605 -13.0636,13.0636l0.0001 7.013zm44.9005 2.6851l-46.2431 0c-0.7412,0 -1.3429,-0.6007 -1.3429,-1.3424l0.0003 -8.3558c0,-8.6841 7.0629,-15.7488 15.7486,-15.7488l1.1158 -0.0003c0.3497,0 0.685,0.1378 0.9368,0.3829 1.794,1.7507 4.1576,2.7147 6.6611,2.7147 2.5075,-0.0002 4.8708,-0.964 6.6647,-2.7147 0.2486,-0.2452 0.5873,-0.3826 0.937,-0.3826l1.1155 -0.0003c8.6857,0 15.749,7.0653 15.749,15.7492l0.0002 8.3556c0,0.7415 -0.6017,1.3428 -1.343,1.3425zm-25.1897 -54.4991c-0.4268,0 -0.8429,-0.1999 -1.1052,-0.574 -0.58,-0.8339 -1.1958,-1.663 -1.8287,-2.4655 -6.9721,-8.8672 -16.4937,-15.4021 -27.5327,-18.8987 -0.7063,-0.2242 -1.0979,-0.9784 -0.8742,-1.6854 0.2241,-0.707 0.9791,-1.0983 1.6854,-0.8745 11.5531,3.6598 21.522,10.506 28.8335,19.798 0.6646,0.8422 1.3078,1.7134 1.9196,2.5889 0.4266,0.608 0.2762,1.4452 -0.3321,1.8697 -0.2342,0.1631 -0.5001,0.2417 -0.7656,0.2415zm-72.0768 80.4182c-0.1711,0 -0.3462,-0.0333 -0.5176,-0.1043 -9.871,-4.1343 -18.3819,-10.7487 -24.613,-19.1282 -0.4403,-0.5952 -0.3181,-1.4364 0.2763,-1.8788 0.5945,-0.4428 1.4371,-0.3188 1.8777,0.2763 5.9447,7.9933 14.0706,14.3052 23.4976,18.2536 0.6819,0.2865 1.007,1.0735 0.7203,1.7574 -0.2165,0.5144 -0.7169,0.8242 -1.2413,0.824zm46.7785 0.116c-0.5244,0 -1.0282,-0.3127 -1.2416,-0.8305 -0.2831,-0.6855 0.0456,-1.4704 0.7309,-1.7533 9.5425,-3.9411 17.763,-10.2917 23.7667,-18.3665 0.4408,-0.5947 1.2832,-0.7185 1.8777,-0.2759 0.5945,0.4423 0.7203,1.2836 0.2763,1.8784 -6.294,8.4648 -14.9028,15.12 -24.8963,19.246 -0.1676,0.0692 -0.3426,0.1021 -0.5137,0.1018zm0.4091 24.8581l-46.2471 0c-0.7411,0 -1.3427,-0.6011 -1.3427,-1.3423l0.0002 -8.3575c0,-8.6829 7.0666,-15.7479 15.7487,-15.7479l1.1156 0c0.3497,0 0.6888,0.1375 0.9405,0.3826 1.7903,1.7507 4.1575,2.7151 6.6612,2.7151 2.5037,-0.0003 4.8708,-0.9644 6.6611,-2.7151 0.2519,-0.2453 0.5874,-0.3826 0.9406,-0.3826l1.1158 0c8.6821,0 15.7486,7.065 15.7486,15.7482l0.0001 8.357c0,0.7411 -0.6015,1.3428 -1.3426,1.3425zm-23.6269 -27.7325c-6.738,0 -12.2211,-5.4816 -12.2211,-12.2193 0.0002,-6.7382 5.4828,-12.2195 12.2208,-12.2195 6.7381,-0.0003 12.2174,5.4813 12.2174,12.2195 0,6.7377 -5.4793,12.2194 -12.2171,12.2193zm-27.5223 -23.288l-46.2467 0c-0.7416,0 -1.343,-0.6015 -1.343,-1.3428l0 -8.3559c0,-8.6841 7.0667,-15.749 15.7489,-15.749l1.1158 -0.0002c0.3529,0 0.6885,0.1377 0.9402,0.3824 1.7907,1.7506 4.1576,2.7152 6.6612,2.7152 2.5037,-0.0001 4.8708,-0.9643 6.6611,-2.7152 0.2518,-0.2451 0.5874,-0.3822 0.9407,-0.3822l1.1156 -0.0002c8.6821,0 15.7487,7.0653 15.7487,15.7495l0 8.3553c0,0.7415 -0.6014,1.3431 -1.3425,1.3431zm-23.6269 -27.7325c-6.7381,0 -12.221,-5.4815 -12.221,-12.2197 0,-6.7378 5.4827,-12.2193 12.2208,-12.2193 6.7383,-0.0002 12.2209,5.4817 12.2209,12.2193 0.0003,6.738 -5.4828,12.2199 -12.2207,12.2197zm101.228 0.1277c-6.7382,0 -12.2174,-5.4813 -12.2174,-12.2194 0,-6.738 5.4792,-12.2194 12.2173,-12.2194 6.7382,-0.0003 12.2208,5.4817 12.2208,12.2194 0.0002,6.7378 -5.4827,12.2198 -12.2207,12.2194zm-26.6094 -22.2807l-46.2471 0c-0.7411,0 -1.3427,-0.601 -1.3427,-1.3423l0.0001 -8.3563c0,-8.6837 7.0666,-15.7486 15.7488,-15.7486l1.1156 -0.0001c0.3497,0 0.6887,0.1372 0.9404,0.3823 1.7904,1.7506 4.1575,2.7151 6.6612,2.7151 2.5038,0 4.8708,-0.9644 6.6612,-2.7151 0.2519,-0.2454 0.5873,-0.3822 0.9405,-0.3822l1.1123 -0.0001c8.6857,0 15.7487,7.065 15.7487,15.749l0 8.3558c0,0.7411 -0.598,1.3429 -1.339,1.3425zm-23.6269 -27.7324c-6.7381,0 -12.2211,-5.4816 -12.2211,-12.2193 0.0002,-6.7378 5.4827,-12.2195 12.2208,-12.2195 6.7384,0 12.2173,5.4817 12.2173,12.2195 0,6.7376 -5.4792,12.2194 -12.217,12.2193z" fill="url(#a)"/></g><path d="M0 0H173.397V173.397H0z" fill="none"/></svg>