<?xml version="1.0" encoding="UTF-8" standalone="no"?><svg xmlns="http://www.w3.org/2000/svg" xmlns:xlink="http://www.w3.org/1999/xlink" fill="#ffffff" height="77.5" preserveAspectRatio="xMidYMid meet" version="1" viewBox="-0.0 0.0 71.8 77.5" width="71.8" zoomAndPan="magnify"><g data-name="27" id="change1_1"><path d="M8.322,16.09H39.844a1.347,1.347,0,0,0,1.115-.607,1.362,1.362,0,0,0,.208-.725V7.845a1.33,1.33,0,0,0-1.323-1.333H8.322A1.329,1.329,0,0,0,7,7.845v6.913A1.329,1.329,0,0,0,8.322,16.09ZM9.654,9.167H38.512v4.269H9.654ZM12.83,45.444H8.322A1.329,1.329,0,0,0,7,46.777v4.392A1.328,1.328,0,0,0,8.322,52.5H12.83a1.333,1.333,0,0,0,1.332-1.332V46.777A1.334,1.334,0,0,0,12.83,45.444Zm-1.333,4.4H9.654V48.1H11.5Zm33.048-9.185A3.765,3.765,0,0,1,46.61,39.6v-.779a1.323,1.323,0,1,1,2.645,0V39.6a3.767,3.767,0,0,1,1.948.962.838.838,0,0,1,.1.095,3.779,3.779,0,0,1,1.075,2.109,3.359,3.359,0,0,1,.042.56,1.332,1.332,0,1,1-2.664,0,.951.951,0,0,0-.069-.369,1.087,1.087,0,0,0-.265-.427,1.122,1.122,0,0,0-.788-.326H47.216a1.125,1.125,0,0,0-.788.325.867.867,0,0,0-.162.2,1.133,1.133,0,0,0,.128,1.368,1.191,1.191,0,0,0,.822.358h1.423a3.774,3.774,0,0,1,2.2.707,3.4,3.4,0,0,1,.475.4l.075.086a3.659,3.659,0,0,1,.928,1.732,3.223,3.223,0,0,1,.1.85,3.792,3.792,0,0,1-.611,2.056,3.983,3.983,0,0,1-.5.623,3.808,3.808,0,0,1-2.063,1.057v.781a1.323,1.323,0,1,1-2.645,0v-.782a3.8,3.8,0,0,1-1.167-.4,3.6,3.6,0,0,1-.887-.655,3.767,3.767,0,0,1-1.117-2.679,1.332,1.332,0,0,1,2.664,0,1.118,1.118,0,0,0,.325.8,1.152,1.152,0,0,0,.8.335h1.413a1.144,1.144,0,0,0,1.132-1.132,1.141,1.141,0,0,0-.168-.587,1.052,1.052,0,0,0-.128-.161,1.132,1.132,0,0,0-.836-.373H47.226a3.85,3.85,0,0,1-1.792-.453A3.914,3.914,0,0,1,44.547,46l-.065-.065a3.77,3.77,0,0,1,.063-5.271Zm-4.7-21.6H35.337a1.33,1.33,0,0,0-1.323,1.332v4.393a1.33,1.33,0,0,0,1.323,1.332h4.507a1.33,1.33,0,0,0,1.323-1.332V20.392A1.33,1.33,0,0,0,39.844,19.06Zm-1.332,4.4H36.669V21.724h1.843Zm1.332,4.393H35.337a1.33,1.33,0,0,0-1.323,1.332V33.58a1.329,1.329,0,0,0,1.323,1.331h4.507a1.307,1.307,0,0,0,1.3-1.122.818.818,0,0,0,.02-.209V29.187A1.33,1.33,0,0,0,39.844,27.855Zm-1.332,4.4H36.669V30.519h1.843Zm33.132,36.8a1.145,1.145,0,0,0,.016-.156V67.8l.026,0V14.29a1.353,1.353,0,0,0-1.352-1.351H48.175v-7.9A5.053,5.053,0,0,0,43.138,0H5.027A5.036,5.036,0,0,0,0,5.037v48.94a5.038,5.038,0,0,0,5.027,5.037h4.9v17.1a1.323,1.323,0,0,0,1.855,1.2H45.921a1.234,1.234,0,0,0,1.267-1.07,1.278,1.278,0,0,0,.07-.4v-4.98H70.427A1.318,1.318,0,0,0,71.644,69.06Zm-20.1-33.187a11.642,11.642,0,0,1,2.191,1.119,10.13,10.13,0,0,1,1.051.813,7.2,7.2,0,0,1,.552.514,10.569,10.569,0,0,1,1.922,2.673,9.973,9.973,0,0,1,.748,1.929A10.153,10.153,0,0,1,58.4,45.49c.009.1.008.2.008.3a10.665,10.665,0,0,1-.841,4.168,10.064,10.064,0,0,1-1.071,1.929,10.662,10.662,0,0,1-1.145,1.366,10.453,10.453,0,0,1-11.76,2.152l0-.137H43.31l-.392-.2a10.22,10.22,0,0,1-1.665-1.137l-.075-.064a1.735,1.735,0,0,0-.206-.159.721.721,0,0,0-.13-.138c-.094-.086-.189-.172-.274-.266l-.07-.06a10.176,10.176,0,0,1-.9-1.032l-.076-.12q-.147-.187-.267-.373l-.133-.2c-.035-.054-.071-.107-.106-.162l-.054-.106a8.89,8.89,0,0,1-.45-.826l-.088-.185c-.043-.088-.086-.183-.121-.27l-.129-.306c-.022-.055-.045-.112-.071-.188l-.165-.489c-.048-.157-.094-.314-.141-.471a.725.725,0,0,0-.041-.154L37.672,48a2.956,2.956,0,0,0-.093-.543l-.012-.045-.052-.435a1.62,1.62,0,0,1-.019-.2c-.011-.069-.014-.136-.018-.2l-.012-.156a.942.942,0,0,1-.005-.126c-.01-.165-.019-.33-.019-.5s.01-.349.019-.525L37.5,44.7a.985.985,0,0,1,.014-.132l.288-1.541c.027-.1.053-.192.095-.311l.158-.493a1.214,1.214,0,0,1,.063-.16c.035-.1.07-.194.127-.325a1.071,1.071,0,0,1,.064-.153,2.126,2.126,0,0,1,.121-.276l.078-.165c.045-.1.1-.2.151-.293l.044-.161.039.006c.033-.066.074-.141.158-.282a1.784,1.784,0,0,1,.1-.16,2.1,2.1,0,0,0,.111-.19c.034-.045.065-.093.1-.14l.222-.315c.05-.076.11-.152.191-.259.031-.047.071-.093.155-.2.057-.071.109-.138.179-.217.215-.243.527-.581.577-.631a11.7,11.7,0,0,1,4.3-2.607A11.589,11.589,0,0,1,51.542,35.873ZM5.386,56.359l-.359-.009a2.38,2.38,0,0,1-2.372-2.373V5.037a2.355,2.355,0,0,1,.7-1.676,2.386,2.386,0,0,1,1.675-.7H43.138a2.381,2.381,0,0,1,2.374,2.373V32.8H45.5a12.5,12.5,0,0,0-2.355.679l-.083.029c-.148.059-.308.129-.451.2A12.289,12.289,0,0,0,40.362,35a.421.421,0,0,0-.134.089c-.088.059-.17.122-.255.187l-.3.241a1.129,1.129,0,0,0-.186.166.786.786,0,0,0-.164.133,3.242,3.242,0,0,0-.286.259,1.339,1.339,0,0,0-.133.119c-.081.081-.162.162-.265.255-.069.07-.139.14-.207.213H35.337a1.325,1.325,0,0,0-1.323,1.323v4.4a1.317,1.317,0,0,0,.957,1.263c-.01.061-.023.128-.038.215l-.017.146c-.008.068-.017.138-.021.2l-.069.708c0,.059-.008.118-.019.222-.006.132-.009.27-.009.435a1.323,1.323,0,0,0-.784,1.206v4.4A1.324,1.324,0,0,0,35.337,52.5h1.281l.513.809c.021.036.046.069.112.161l.214.286.068.093a12.571,12.571,0,0,0,1.119,1.285,12.81,12.81,0,0,0,1.4,1.224Zm39.2,18.284H12.605V59.014H26.533V60.56H17.619a1.337,1.337,0,0,0,0,2.674h8.914v3.539H17.481a1.337,1.337,0,0,0,0,2.674h9.052v.078a1.233,1.233,0,0,0,.358.905c.013.015.028.029.041.044s.018.018.028.026a1.234,1.234,0,0,0,.91.362H44.584Zm24.4-6.455H29.207V59.014H43.138a4.6,4.6,0,0,0,1.182-.153,4.5,4.5,0,0,0,.634-.2,13.046,13.046,0,0,0,12.265-3.531,12.75,12.75,0,0,0,2.047-2.675h4.871a1.356,1.356,0,1,0,0-2.711H60.47a13.289,13.289,0,0,0,.6-3.959,13,13,0,0,0-.548-3.773,11.632,11.632,0,0,0-.386-1.136,13.419,13.419,0,0,0-1.672-2.983h5.676a1.356,1.356,0,1,0,0-2.712H55.778a13.063,13.063,0,0,0-3.645-1.929h7.086a1.356,1.356,0,1,0,0-2.712H48.176V28.609H59.219a1.356,1.356,0,1,0,0-2.712H48.176V15.651h20.8V67.243l.013,0ZM12.83,19.06H8.322A1.329,1.329,0,0,0,7,20.392v4.393a1.329,1.329,0,0,0,1.322,1.332H12.83a1.334,1.334,0,0,0,1.332-1.332V20.392A1.334,1.334,0,0,0,12.83,19.06Zm-1.333,4.4H9.654V21.724H11.5ZM30.839,36.65H26.332a1.329,1.329,0,0,0-1.323,1.332v4.393a1.329,1.329,0,0,0,1.323,1.331h4.507a1.333,1.333,0,0,0,1.323-1.331V37.982a1.334,1.334,0,0,0-1.323-1.332Zm-1.332,4.4H27.664V39.3h1.843Zm-7.673-4.4H17.327A1.329,1.329,0,0,0,16,37.982v4.393a1.329,1.329,0,0,0,1.323,1.331h4.507a1.329,1.329,0,0,0,1.323-1.331V37.982A1.329,1.329,0,0,0,21.834,36.65Zm-1.332,4.4H18.659V39.3H20.5Zm-7.672-4.4H8.322A1.328,1.328,0,0,0,7,37.982v4.393a1.328,1.328,0,0,0,1.322,1.331H12.83a1.333,1.333,0,0,0,1.332-1.331V37.982A1.333,1.333,0,0,0,12.83,36.65Zm-1.333,4.4H9.654V39.3H11.5Zm10.337-13.2H17.327A1.33,1.33,0,0,0,16,29.187V33.58a1.329,1.329,0,0,0,1.323,1.331h4.507a1.329,1.329,0,0,0,1.323-1.331V29.187A1.33,1.33,0,0,0,21.834,27.855Zm-1.332,4.4H18.659V30.519H20.5ZM30.839,45.444H26.332a1.33,1.33,0,0,0-1.323,1.333v4.392A1.329,1.329,0,0,0,26.332,52.5h4.507a1.333,1.333,0,0,0,1.323-1.332V46.777a1.335,1.335,0,0,0-1.323-1.333Zm-1.332,4.4H27.664V48.1h1.843Zm-7.673-4.4H17.327A1.33,1.33,0,0,0,16,46.777v4.392A1.329,1.329,0,0,0,17.327,52.5h4.507a1.329,1.329,0,0,0,1.323-1.332V46.777A1.33,1.33,0,0,0,21.834,45.444Zm-1.332,4.4H18.659V48.1H20.5ZM30.839,27.855H26.332a1.33,1.33,0,0,0-1.323,1.332V33.58a1.329,1.329,0,0,0,1.323,1.331h4.507a1.333,1.333,0,0,0,1.323-1.331V29.187A1.33,1.33,0,0,0,30.839,27.855Zm-1.332,4.4H27.664V30.519h1.843Zm-16.677-4.4H8.322A1.329,1.329,0,0,0,7,29.187V33.58a1.328,1.328,0,0,0,1.322,1.331H12.83a1.333,1.333,0,0,0,1.332-1.331V29.187A1.334,1.334,0,0,0,12.83,27.855Zm-1.333,4.4H9.654V30.519H11.5Zm19.342-13.2H26.332a1.33,1.33,0,0,0-1.323,1.332V24.81a1.317,1.317,0,0,0,1.323,1.307h4.507a1.33,1.33,0,0,0,1.323-1.332V20.392a1.246,1.246,0,0,0-.33-.867A1.275,1.275,0,0,0,30.839,19.06Zm-1.332,4.4H27.664V21.724h1.843Zm-7.673-4.4H17.327A1.33,1.33,0,0,0,16,20.392v4.393a1.33,1.33,0,0,0,1.323,1.332h4.507a1.314,1.314,0,0,0,1.323-1.332V20.392A1.33,1.33,0,0,0,21.834,19.06Zm-1.332,4.4H18.659V21.724H20.5Zm44.23,40.256H34.393a1.338,1.338,0,0,1,0-2.674H64.732A1.338,1.338,0,0,1,64.732,63.718Z"/></g></svg>